<?xml version="1.0" standalone="no"?>
<!DOCTYPE svg PUBLIC "-//W3C//DTD SVG 1.1//EN" "http://www.w3.org/Graphics/SVG/1.1/DTD/svg11.dtd" >
<svg xmlns="http://www.w3.org/2000/svg" xmlns:xlink="http://www.w3.org/1999/xlink" version="1.1">
<metadata></metadata>
<defs>
<font id="relative10_pitch" horiz-adv-x="616" >
<font-face units-per-em="1024" ascent="819" descent="-205" />
<missing-glyph horiz-adv-x="500" />
<glyph horiz-adv-x="0" />
<glyph horiz-adv-x="0" />
<glyph horiz-adv-x="341" />
<glyph unicode="&#xd;" horiz-adv-x="0" />
<glyph unicode=" " />
<glyph unicode="!" d="M275 717h66q10 0 10 -10v-507q0 -11 -10 -11h-66q-10 0 -10 11v507q0 10 10 10zM258 121h100q11 0 11 -10v-101q0 -10 -11 -10h-100q-10 0 -10 10v101q0 10 10 10z" />
<glyph unicode="&#x22;" d="M184 492v215q0 10 11 10h59q10 0 10 -10v-215q0 -11 -10 -11h-59q-11 0 -11 11zM352 492v215q0 10 10 10h60q10 0 10 -10v-215q0 -11 -10 -11h-60q-10 0 -10 11z" />
<glyph unicode="#" d="M322 10l29 193h-127l-29 -193q-1 -10 -12 -10h-65q-9 0 -9 10l29 193h-78q-10 0 -10 10v61q0 11 10 11h92l23 147h-74q-10 0 -10 10v62q0 10 10 10h87l30 193q1 10 11 10h66q9 0 9 -10l-30 -193h127l30 193q1 10 11 10h66q9 0 9 -10l-30 -193h78q10 0 10 -10v-62 q0 -10 -10 -10h-91l-23 -147h73q11 0 11 -11v-61q0 -10 -11 -10h-87l-29 -193q-1 -10 -12 -10h-65q-9 0 -9 10zM261 432l-23 -147h127l23 147h-127z" />
<glyph unicode="$" d="M255 -92v85q-95 12 -152.5 71t-57.5 148q0 10 10 10h66q10 0 10 -10q0 -51 33 -88.5t91 -48.5v267q-97 29 -147 70.5t-50 118.5q0 81 55.5 132t141.5 61v85q0 10 10 10h66q10 0 10 -10v-85q90 -12 143.5 -67.5t53.5 -129.5q0 -10 -11 -10h-65q-10 0 -10 10q0 38 -32 71 t-79 44v-239q52 -15 87 -29t68 -35.5t49 -52.5t16 -71q0 -102 -61 -158.5t-159 -64.5v-84q0 -10 -10 -10h-66q-10 0 -10 10zM475 208q0 41 -35 66t-99 44v-244q62 8 98 41.5t36 92.5zM144 538q0 -74 111 -110v214q-50 -8 -80.5 -35.5t-30.5 -68.5z" />
<glyph unicode="%" d="M82 170l401 417q4 4 7 4q4 0 8 -4l25 -26q4 -4 4 -7q0 -4 -3 -7l-401 -417q-4 -4 -7 -4t-7 4l-26 26q-4 4 -4 7q0 4 3 7zM318 564q0 -74 -45 -118.5t-108 -44.5t-108.5 44.5t-45.5 118.5t45.5 118.5t108.5 44.5t108 -44.5t45 -118.5zM259 564q0 54 -26.5 81t-67.5 27 t-67.5 -27t-26.5 -81t26.5 -80.5t67.5 -26.5t67.5 26.5t26.5 80.5zM595 153q0 -74 -45.5 -118.5t-108.5 -44.5t-108 44.5t-45 118.5t45 118t108 44t108.5 -44t45.5 -118zM536 153q0 54 -27 80.5t-68 26.5t-67.5 -26.5t-26.5 -80.5t26.5 -81t67.5 -27t68 27t27 81z" />
<glyph unicode="&#x26;" d="M525 286q-6 -85 -36 -150l86 -120q4 -8 4 -9q0 -7 -9 -7h-77q-8 0 -14 9l-39 54q-70 -73 -184 -73q-89 0 -151.5 58t-62.5 165q0 130 143 211l-3 5q-50 71 -50 145q0 66 45.5 109.5t122.5 43.5q76 0 120 -42.5t44 -102.5q0 -57 -26.5 -94t-78.5 -63l-55 -28l128 -181 q15 57 15 142q0 10 11 10h124q10 0 10 -11v-61q0 -10 -10 -10h-57zM256 70q90 0 137 60l-162 229q-103 -62 -103 -157q0 -60 37.5 -96t90.5 -36zM214 566q0 -24 9 -45.5t36 -60.5l63 28q60 26 60 89q0 31 -22.5 52.5t-59.5 21.5q-40 0 -63 -22.5t-23 -62.5z" />
<glyph unicode="'" d="M268 492v215q0 10 11 10h59q10 0 10 -10v-215q0 -11 -10 -11h-59q-11 0 -11 11z" />
<glyph unicode="(" d="M291 187q0 -69 6.5 -111.5t28.5 -81t47.5 -64.5t80.5 -73q4 -4 4 -8q0 -3 -3 -7l-40 -48q-4 -4 -7 -4q-4 0 -8 3q-112 94 -153.5 168.5t-41.5 194.5v203q0 120 41.5 194.5t153.5 168.5q4 3 8 3q3 0 7 -4l40 -48q3 -5 3 -7q0 -4 -4 -8q-55 -47 -80.5 -73t-47.5 -64.5 t-28.5 -81t-6.5 -111.5v-141z" />
<glyph unicode=")" d="M331 187v141q0 69 -6.5 111.5t-28.5 81t-47.5 64.5t-80.5 73q-4 4 -4 8q0 2 3 7l40 48q4 4 7 4q2 0 7 -3q113 -94 154.5 -169t41.5 -194v-203q0 -119 -41.5 -194t-154.5 -169q-5 -3 -7 -3q-3 0 -7 4l-40 48q-3 4 -3 7q0 4 4 8q55 47 80.5 73t47.5 64.5t28.5 81t6.5 111.5 z" />
<glyph unicode="*" d="M120 561l15 49q2 7 8 7q1 0 5 -1l124 -39v130q0 10 11 10h51q10 0 10 -10v-130l124 39l5 1q6 0 8 -7l16 -49q1 -3 1 -4q0 -6 -8 -9l-123 -40l76 -106q3 -4 3 -7q0 -4 -4 -7l-42 -31q-5 -3 -8 -3q-4 0 -7 5l-77 106l-77 -106q-3 -5 -7 -5t-8 3l-42 31q-4 3 -4 7q0 3 3 7 l77 106l-124 40q-7 3 -7 9z" />
<glyph unicode="+" d="M348 560v-170h170q10 0 10 -10v-59q0 -11 -10 -11h-170v-170q0 -10 -10 -10h-59q-11 0 -11 10v170h-170q-10 0 -10 11v59q0 10 10 10h170v170q0 10 11 10h59q10 0 10 -10z" />
<glyph unicode="," d="M256 -55q29 0 38 10t9 38v7h-47q-10 0 -10 10v105q0 10 10 10h104q11 0 11 -10v-145q0 -41 -21 -62t-58 -21h-36q-10 0 -10 11v36q0 11 10 11z" />
<glyph unicode="-" d="M126 390h364q11 0 11 -10v-59q0 -11 -11 -11h-364q-10 0 -10 11v59q0 10 10 10z" />
<glyph unicode="." d="M256 125h104q11 0 11 -10v-105q0 -10 -11 -10h-104q-10 0 -10 10v105q0 10 10 10z" />
<glyph unicode="/" d="M59 10l393 697q6 10 14 10h73q8 0 8 -5q0 -1 -2 -5l-392 -697q-6 -10 -15 -10h-72q-9 0 -9 5q0 1 2 5z" />
<glyph unicode="0" d="M56 358q0 178 69.5 273.5t182.5 95.5t182.5 -95.5t69.5 -273.5t-69.5 -273t-182.5 -95t-182.5 95t-69.5 273zM142 358q0 -179 61 -245l145 530q-16 4 -40 4q-82 0 -124 -68.5t-42 -220.5zM474 358q0 182 -60 246l-146 -530q16 -4 40 -4q82 0 124 68t42 220z" />
<glyph unicode="1" d="M121 10v60q0 10 10 10h164v523l-150 -81q-6 -3 -11 -3q-7 0 -7 9v71q0 9 11 15l178 98q8 5 16 5h37q10 0 10 -10v-627h164q10 0 10 -10v-60q0 -10 -10 -10h-412q-10 0 -10 10z" />
<glyph unicode="2" d="M77 10v43q0 15 11 24l283 272q41 40 56.5 77t15.5 88q0 61 -36.5 97t-101.5 36q-68 0 -105.5 -39.5t-37.5 -98.5q0 -15 -14 -15h-58q-12 0 -12 15q2 94 62.5 156t164.5 62q99 0 160.5 -59.5t61.5 -148.5q0 -70 -22.5 -121t-71.5 -98l-230 -220h337q10 0 10 -10v-60 q0 -10 -10 -10h-453q-10 0 -10 10z" />
<glyph unicode="3" d="M236 353v58q0 11 11 11h52q64 0 96.5 28t32.5 90q0 52 -35 79.5t-91 27.5t-93.5 -31.5t-41.5 -85.5q-1 -12 -13 -12h-57q-13 0 -13 18q5 85 67.5 138t150.5 53q92 0 149 -48t57 -129q0 -61 -21 -98.5t-67 -64.5q121 -49 121 -178q0 -98 -65.5 -158.5t-170.5 -60.5 q-99 0 -166 61t-74 158q0 17 13 17h55q13 0 14 -13q7 -66 49 -104.5t109 -38.5q70 0 111 36t41 106q0 63 -38.5 96.5t-111.5 33.5h-60q-11 3 -11 11z" />
<glyph unicode="4" d="M371 10v137h-311q-10 0 -10 11v38q0 12 8 23l324 490q5 8 13 8h49q11 0 11 -10v-480h98q10 0 10 -10v-59q0 -11 -10 -11h-98v-137q0 -10 -12 -10h-62q-10 0 -10 10zM371 547l-215 -320h215v320z" />
<glyph unicode="5" d="M80 334l44 373q1 10 10 10h365q10 0 10 -10v-60q0 -10 -10 -10h-302l-29 -214q80 52 162 52q104 0 163.5 -64t59.5 -177q0 -114 -67 -179t-172 -65q-99 0 -167.5 60t-71.5 150q0 15 12 15h58q11 0 14 -15q8 -57 50.5 -93.5t104.5 -36.5q75 0 115 42.5t40 119.5 q0 75 -41 119t-114 44q-80 0 -147 -62q-9 -9 -17 -9h-60q-10 0 -10 10z" />
<glyph unicode="6" d="M75 327q0 199 68.5 299.5t187.5 100.5q88 0 143.5 -47.5t68.5 -130.5q0 -10 -12 -10h-61q-8 0 -11 10q-13 52 -48 77t-80 25q-73 0 -118.5 -66t-47.5 -199q31 38 77.5 57.5t92.5 19.5q102 0 164 -62.5t62 -174.5q0 -109 -69 -172.5t-166 -63.5q-113 0 -182 79.5 t-69 257.5zM174 226q0 -68 42 -112t110 -44t109.5 44t41.5 112t-41.5 112.5t-109.5 44.5t-110 -44.5t-42 -112.5z" />
<glyph unicode="7" d="M81 647v60q0 10 10 10h447q10 0 10 -10v-39q0 -12 -5 -26l-256 -635q-3 -7 -12 -7h-65q-10 0 -10 8q0 3 2 7l251 622h-362q-10 0 -10 10z" />
<glyph unicode="8" d="M96 538q0 87 62 138t150 51t150 -51t62 -138q0 -101 -91 -157q113 -56 113 -178q0 -93 -65.5 -153t-168.5 -60t-168 60t-65 153q0 123 112 178q-91 56 -91 157zM159 203q0 -61 41 -97t108 -36t108.5 36t41.5 97q0 62 -41.5 98.5t-108.5 36.5t-108 -36.5t-41 -98.5z M176 534q0 -52 35.5 -85t96.5 -33t96.5 33t35.5 85q0 54 -36.5 83.5t-95.5 29.5t-95.5 -29.5t-36.5 -83.5z" />
<glyph unicode="9" d="M548 390q0 -199 -68.5 -299.5t-187.5 -100.5q-88 0 -143.5 47.5t-68.5 130.5q0 10 11 10h62q8 0 11 -10q13 -52 48 -77t80 -25q73 0 118.5 66t47.5 199q-31 -38 -77.5 -57.5t-92.5 -19.5q-102 0 -164.5 62t-62.5 174q0 109 69.5 173t166.5 64q113 0 182 -79.5t69 -257.5z M449 490q0 68 -42 112.5t-110 44.5t-110 -44.5t-42 -112.5t42 -112t110 -44t110 44t42 112z" />
<glyph unicode=":" d="M256 125h104q11 0 11 -10v-105q0 -10 -11 -10h-104q-10 0 -10 10v105q0 10 10 10zM256 483h104q11 0 11 -10v-104q0 -11 -11 -11h-104q-10 0 -10 11v104q0 10 10 10z" />
<glyph unicode=";" d="M256 -55q29 0 38 10t9 38v7h-47q-10 0 -10 10v105q0 10 10 10h104q11 0 11 -10v-145q0 -41 -21 -62t-58 -21h-36q-10 0 -10 11v36q0 11 10 11zM256 483h104q11 0 11 -10v-104q0 -11 -11 -11h-104q-10 0 -10 11v104q0 10 10 10z" />
<glyph unicode="&#x3c;" d="M516 142v-74q0 -7 -5 -7q-2 0 -5 1l-407 186q-10 4 -10 13v76q0 9 10 13l407 186q3 1 5 1q5 0 5 -7v-74q0 -11 -10 -15l-325 -142l325 -142q10 -4 10 -15z" />
<glyph unicode="=" d="M98 452h420q10 0 10 -11v-59q0 -10 -10 -10h-420q-10 0 -10 10v59q0 11 10 11zM98 244h420q10 0 10 -11v-59q0 -10 -10 -10h-420q-10 0 -10 10v59q0 11 10 11z" />
<glyph unicode="&#x3e;" d="M100 68v74q0 10 11 15l324 142l-324 142q-11 5 -11 15v74q0 7 5 7q3 0 6 -1l406 -186q10 -4 10 -13v-76q0 -9 -10 -13l-406 -186q-3 -1 -6 -1q-5 0 -5 7z" />
<glyph unicode="?" d="M86 524q3 85 65 144t162 59q97 0 154 -52t57 -138q0 -41 -17.5 -74t-42.5 -56t-50 -44.5t-42.5 -49t-17.5 -59.5v-54q0 -11 -10 -11h-65q-11 0 -11 11v47q0 45 17.5 82t42.5 61t50 45.5t42.5 47t17.5 54.5q0 49 -34.5 78.5t-90.5 29.5t-96 -31.5t-47 -89.5 q-1 -10 -10 -10h-64q-10 0 -10 10zM261 121h100q11 0 11 -10v-101q0 -10 -11 -10h-100q-10 0 -10 10v101q0 10 10 10z" />
<glyph unicode="@" d="M584 498v-409q0 -9 -10 -9h-53q-9 0 -9 9v40q-46 -57 -127 -57q-84 0 -136 61.5t-52 162.5t52 162.5t136 61.5q85 0 127 -55v38q0 65 -41 104.5t-129 39.5q-110 0 -172 -99t-62 -252q0 -166 69 -256.5t189 -90.5q97 0 174 45q2 1 5 1q5 0 7 -5l25 -48q1 -2 1 -4 q0 -5 -6 -9q-91 -50 -206 -50q-154 0 -244 104t-90 313q0 187 83.5 304t226.5 117q113 0 177.5 -60t64.5 -159zM518 296q0 73 -31 114t-91 41t-92 -43t-32 -112t32.5 -112t91.5 -43q60 0 91 41t31 114z" />
<glyph unicode="A" d="M174 208l-65 -198q-3 -10 -13 -10h-69q-12 0 -12 10q0 3 1 6l240 691q3 10 10 10h84q7 0 10 -10l240 -691q1 -3 1 -6q0 -10 -11 -10h-70q-9 0 -12 10l-67 198h-267zM308 610l-107 -320h214z" />
<glyph unicode="B" d="M104 0q-10 0 -10 10v697q0 10 10 10h236q88 0 144 -45t56 -132q0 -116 -91 -160q59 -23 90 -64.5t31 -111.5q0 -89 -56 -146.5t-156 -57.5h-254zM180 336v-251h169q63 0 99 30.5t36 94.5q0 62 -36.5 94t-98.5 32h-169zM180 632v-214h165q109 0 109 107q0 51 -30.5 79 t-78.5 28h-165z" />
<glyph unicode="C" d="M512 243h62q12 0 12 -11q-15 -118 -83.5 -180t-174.5 -62q-123 0 -202 95t-79 273t79 273.5t202 95.5q106 0 174.5 -62.5t83.5 -180.5q0 -10 -12 -10h-62q-11 0 -12 10q-17 83 -55.5 122t-116.5 39q-90 0 -140.5 -74t-50.5 -213t50.5 -212.5t140.5 -73.5q80 0 117 38 t55 122q2 11 12 11z" />
<glyph unicode="D" d="M77 10v697q0 10 10 10h162q139 0 227 -91t88 -268t-88 -267.5t-227 -90.5h-162q-10 0 -10 10zM163 82h85q106 0 166 68.5t60 207.5t-60 208t-166 69h-85v-553z" />
<glyph unicode="E" d="M175 336v-254h362q10 0 10 -10v-62q0 -10 -10 -10h-438q-10 0 -10 10v697q0 10 10 10h430q11 0 11 -10v-62q0 -10 -11 -10h-354v-217h323q10 0 10 -10v-62q0 -10 -10 -10h-323z" />
<glyph unicode="F" d="M175 321v-311q0 -10 -10 -10h-66q-10 0 -10 10v697q0 10 10 10h446q10 0 10 -10v-62q0 -10 -10 -10h-370v-233h338q10 0 10 -10v-61q0 -10 -10 -10h-338z" />
<glyph unicode="G" d="M323 365h248q11 0 11 -11v-183q0 -19 -11 -39q-33 -66 -93 -104t-141 -38q-130 0 -213 96.5t-83 271.5q0 177 81.5 273t204.5 96q104 0 168 -59.5t76 -159.5q0 -10 -11 -10h-65q-12 0 -13 10q-14 68 -51 102.5t-104 34.5q-92 0 -144 -74.5t-52 -212.5q0 -140 52.5 -213 t153.5 -73q113 0 159 96v115h-173q-11 0 -11 10v61q0 11 11 11z" />
<glyph unicode="H" d="M151 333v-323q0 -10 -11 -10h-65q-10 0 -10 10v697q0 10 10 10h65q11 0 11 -10v-292h315v292q0 10 10 10h66q10 0 10 -10v-697q0 -10 -10 -10h-66q-10 0 -10 10v323h-315z" />
<glyph unicode="I" d="M98 645v62q0 10 11 10h399q10 0 10 -10v-62q0 -10 -10 -10h-157v-553h167q10 0 10 -10v-62q0 -10 -10 -10h-420q-10 0 -10 10v62q0 10 10 10h167v553h-156q-11 0 -11 10z" />
<glyph unicode="J" d="M509 707v-450q0 -133 -62 -200t-166 -67q-106 0 -165.5 64t-59.5 164q0 10 11 10h65q10 0 10 -10q0 -64 38.5 -105t100.5 -41q142 0 142 184v451q0 10 10 10h66q10 0 10 -10z" />
<glyph unicode="K" d="M557 702l-229 -252l271 -436q2 -4 2 -6q0 -8 -9 -8h-79q-9 0 -18 15l-230 366l-91 -101v-270q0 -10 -10 -10h-66q-10 0 -10 10v697q0 10 10 10h66q10 0 10 -10v-303l279 303q9 10 16 10h82q9 0 9 -7q0 -4 -3 -8z" />
<glyph unicode="L" d="M125 10v697q0 10 10 10h66q10 0 10 -10v-625h358q11 0 11 -10v-62q0 -10 -11 -10h-434q-10 0 -10 10z" />
<glyph unicode="M" d="M557 707v-697q0 -10 -10 -10h-66q-10 0 -10 10v581l-123 -323q-2 -5 -13 -5h-53q-12 0 -14 5l-123 323v-581q0 -10 -10 -10h-65q-11 0 -11 10v697q0 10 11 10h99q14 0 16 -8l123 -339l123 339q2 8 16 8h100q10 0 10 -10z" />
<glyph unicode="N" d="M541 0h-83q-14 0 -17 8l-289 561v-559q0 -10 -11 -10h-65q-10 0 -10 10v697q0 10 10 10h83q13 0 16 -8l290 -562v560q0 10 10 10h66q10 0 10 -10v-697q0 -10 -10 -10z" />
<glyph unicode="O" d="M308 -10q-121 0 -195 97t-74 271t74 271.5t195 97.5t195.5 -97.5t74.5 -271.5t-74.5 -271t-195.5 -97zM308 72q179 0 179 286q0 287 -179 287t-179 -287q0 -286 179 -286z" />
<glyph unicode="P" d="M97 10v697q0 10 11 10h230q112 0 173.5 -53t61.5 -147t-61.5 -147t-173.5 -53h-155v-307q0 -10 -10 -10h-65q-11 0 -11 10zM183 635v-236h170q130 0 130 118t-130 118h-170z" />
<glyph unicode="Q" d="M308 -10q-121 0 -195 97t-74 271t74 271.5t195 97.5t195.5 -97.5t74.5 -271.5q0 -152 -61 -250l57 -55q5 -5 5 -7t-5 -7l-43 -45q-4 -4 -7 -4t-7 4l-53 51q-64 -55 -156 -55zM308 72q56 0 96 30l-64 63q-4 4 -4 7t4 7l43 45q4 4 7 4t7 -4l58 -56q32 67 32 190 q0 287 -179 287t-179 -287q0 -286 179 -286z" />
<glyph unicode="R" d="M79 10v697q0 10 10 10h245q217 0 217 -190q0 -135 -134 -180l162 -337q1 -2 1 -4q0 -6 -10 -6h-75q-10 0 -15 10l-157 328h-158v-328q0 -10 -10 -10h-66q-10 0 -10 10zM165 635v-215h179q121 0 121 107q0 108 -121 108h-179z" />
<glyph unicode="S" d="M58 531q0 91 68.5 143.5t169.5 52.5q108 0 175 -58t67 -142q0 -10 -11 -10h-65q-10 0 -10 10q0 48 -46 83t-110 35q-67 0 -109.5 -29t-42.5 -78q0 -28 14.5 -49.5t42 -36t54.5 -23.5t66 -20l12 -3q54 -15 90 -29t70.5 -36t51 -53t16.5 -73q0 -112 -72 -168.5t-186 -56.5 t-186 61t-72 161q0 10 10 10h66q10 0 10 -10q0 -61 47 -100.5t125 -39.5q77 0 124.5 34t47.5 102q0 26 -14 46t-43 34.5t-55 23.5t-69 20q-57 15 -94.5 29.5t-72.5 37t-52 55.5t-17 77z" />
<glyph unicode="T" d="M45 645v62q0 10 10 10h506q10 0 10 -10v-62q0 -10 -10 -10h-210v-625q0 -10 -10 -10h-66q-10 0 -10 10v625h-210q-10 0 -10 10z" />
<glyph unicode="U" d="M68 243v464q0 10 10 10h65q11 0 11 -10v-453q0 -182 154 -182q155 0 155 182v453q0 10 10 10h66q10 0 10 -10v-464q0 -117 -68 -185t-173 -68t-172.5 68t-67.5 185z" />
<glyph unicode="V" d="M248 10l-224 697q-1 3 -1 4q0 6 9 6h76q9 0 12 -10l188 -602l189 602q3 10 12 10h76q9 0 9 -6l-1 -4l-224 -697q-3 -10 -12 -10h-98q-8 0 -11 10z" />
<glyph unicode="W" d="M99 10l-79 697q0 10 9 10h66q12 0 13 -10l57 -596l97 442q3 10 12 10h68q9 0 12 -10l98 -442l57 596q1 10 12 10h67q8 0 8 -10l-79 -697q-1 -10 -11 -10h-95q-9 0 -12 10l-91 413l-91 -413q-3 -10 -11 -10h-95q-11 0 -12 10z" />
<glyph unicode="X" d="M169 707l139 -237l139 237q6 10 15 10h75q8 0 8 -6q0 -2 -1 -4l-188 -319l223 -378q1 -2 1 -4q0 -6 -8 -6h-75q-9 0 -15 10l-174 296l-174 -296q-6 -10 -14 -10h-76q-7 0 -7 6q0 2 1 4l222 378l-187 319q-1 2 -1 4q0 6 8 6h75q8 0 14 -10z" />
<glyph unicode="Y" d="M574 707l-223 -405v-292q0 -10 -10 -10h-66q-10 0 -10 10v292l-223 405q-2 4 -2 5q0 5 7 5h81q6 0 11 -8l169 -312l169 312q5 8 11 8h81q8 0 8 -5q0 -1 -1 -2l-1.5 -1.5t-0.5 -1.5z" />
<glyph unicode="Z" d="M78 645v62q0 10 10 10h442q11 0 11 -10v-62q0 -8 -6 -17l-373 -546h386q10 0 10 -10v-62q0 -10 -10 -10h-473q-10 0 -10 10v62q0 8 6 17l373 546h-356q-10 0 -10 10z" />
<glyph unicode="[" d="M175 -193v900q0 10 10 10h296q11 0 11 -10v-62q0 -10 -11 -10h-220v-756h220q11 0 11 -10v-62q0 -10 -11 -10h-296q-10 0 -10 10z" />
<glyph unicode="\" d="M165 707l392 -697q2 -4 2 -5q0 -5 -8 -5h-73q-8 0 -14 10l-392 697q-2 4 -2 5q0 5 8 5h73q8 0 14 -10z" />
<glyph unicode="]" d="M441 707v-900q0 -10 -10 -10h-296q-10 0 -10 10v62q0 10 10 10h220v756h-220q-10 0 -10 10v62q0 10 10 10h296q10 0 10 -10z" />
<glyph unicode="^" d="M158 402h-74q-7 0 -7 7q0 2 1 4l179 294q6 10 13 10h76q7 0 13 -10l180 -294q1 -2 1 -4q0 -7 -8 -7h-73q-8 0 -15 11l-136 226l-136 -226q-7 -11 -14 -11z" />
<glyph unicode="_" d="M98 0h420q10 0 10 -10v-60q0 -10 -10 -10h-420q-10 0 -10 10v60q0 10 10 10z" />
<glyph unicode="`" d="M336 707l67 -129q1 -2 1 -5q0 -6 -6 -6h-65q-11 0 -19 10l-101 130q-2 3 -2 5q0 5 6 5h104q9 0 15 -10z" />
<glyph unicode="a" d="M173 361h-65q-8 0 -8 7q0 6 1 10q15 62 71 104t144 42q101 0 156.5 -50t55.5 -134v-242q0 -53 18 -88q1 -2 1 -5q0 -5 -8 -5h-80q-10 0 -10 10v53q-27 -34 -74.5 -53.5t-102.5 -19.5q-78 0 -134 42.5t-56 121.5q0 82 57.5 126t146.5 44q68 0 163 -22v26q0 60 -34.5 90.5 t-98.5 30.5q-47 0 -81 -20.5t-48 -57.5q-4 -10 -14 -10zM449 226q-91 22 -153 22q-56 0 -93 -24.5t-37 -69.5q0 -39 31.5 -63.5t84.5 -24.5q68 0 117.5 43t49.5 117z" />
<glyph unicode="b" d="M98 10v697q0 10 11 10h59q10 0 10 -10v-251q65 68 163 68q102 0 164 -72.5t62 -194.5t-62 -194.5t-164 -72.5q-52 0 -95.5 18.5t-67.5 49.5v-48q0 -10 -10 -10h-59q-11 0 -11 10zM170 257q0 -83 42 -137t113 -54q73 0 115.5 54t42.5 137t-42.5 137.5t-115.5 54.5 q-71 0 -113 -54.5t-42 -137.5z" />
<glyph unicode="c" d="M323 449q-73 0 -119.5 -53t-46.5 -139t46.5 -138.5t119.5 -52.5q55 0 92.5 26.5t51.5 75.5q2 9 14 9h63q7 0 7 -6t-1 -10q-21 -80 -79.5 -125.5t-147.5 -45.5q-114 0 -182 75t-68 192t68 192t182 75q89 0 147.5 -45.5t79.5 -125.5q1 -4 1 -10t-7 -6h-63q-12 0 -14 9 q-14 49 -51.5 76t-92.5 27z" />
<glyph unicode="d" d="M537 707v-697q0 -10 -11 -10h-59q-10 0 -10 10v48q-24 -31 -67.5 -49.5t-95.5 -18.5q-102 0 -164 72.5t-62 194.5t62 194.5t164 72.5q98 0 163 -68v251q0 10 10 10h59q11 0 11 -10zM465 257q0 83 -42 137.5t-113 54.5q-73 0 -115.5 -54.5t-42.5 -137.5t42.5 -137 t115.5 -54q71 0 113 54t42 137z" />
<glyph unicode="e" d="M548 232h-390q6 -75 47 -120.5t113 -45.5q55 0 88.5 22.5t52.5 71.5q3 9 14 9h67q7 0 7 -7q0 -4 -2 -10q-55 -162 -227 -162q-116 0 -181 75t-65 192q0 115 68.5 191t177.5 76q112 0 176 -77.5t64 -189.5v-14q0 -11 -10 -11zM318 449q-57 0 -100.5 -38.5t-55.5 -102.5 h306q-12 63 -53.5 102t-96.5 39z" />
<glyph unicode="f" d="M528 438h-215v-428q0 -10 -10 -10h-59q-11 0 -11 10v428h-141q-10 0 -10 11v55q0 10 10 10h141v45q0 69 40.5 118.5t112.5 49.5q62 0 112 -29q8 -6 8 -17v-54q0 -11 -7 -11q-4 0 -7 2q-50 33 -100 33q-37 0 -58 -24.5t-21 -67.5v-45h215q11 0 11 -10v-55q0 -11 -11 -11z " />
<glyph unicode="g" d="M104 -44q0 51 26 83q-59 33 -59 108q0 83 90 132q-14 35 -14 70q0 81 52 128t128 47q57 0 102 -28l69 61q4 4 8 4q3 0 8 -5l39 -41q4 -4 4 -8t-5 -9l-66 -63q21 -40 21 -86q0 -80 -50.5 -127t-129.5 -47q-77 0 -125 44q-51 -22 -51 -66q0 -28 17 -43t45 -15q18 0 61.5 10 t78.5 10q103 0 161 -41.5t58 -122.5q0 -75 -63 -119.5t-169 -44.5q-107 0 -171.5 43.5t-64.5 125.5zM340 39q-36 0 -77.5 -7.5t-49.5 -8.5q-29 -24 -29 -66q0 -46 42.5 -70t113.5 -24q70 0 111.5 23.5t41.5 64.5q0 88 -153 88zM227 349q0 -46 29 -72t71 -26q43 0 71.5 26 t28.5 72q0 47 -28.5 73.5t-71.5 26.5t-71.5 -26.5t-28.5 -73.5z" />
<glyph unicode="h" d="M103 10v697q0 10 11 10h59q10 0 10 -10v-267q27 37 78.5 60.5t103.5 23.5q85 0 131 -43.5t46 -128.5v-342q0 -10 -11 -10h-59q-10 0 -10 10v324q0 58 -30.5 86.5t-85.5 28.5q-59 0 -111 -50.5t-52 -128.5v-260q0 -10 -10 -10h-59q-11 0 -11 10z" />
<glyph unicode="i" d="M126 451v53q0 10 10 10h221q11 0 11 -10v-428h177q10 0 10 -10v-56q0 -10 -10 -10h-434q-11 0 -11 10v56q0 10 11 10h177v364h-152q-10 0 -10 11zM266 618v89q0 10 10 10h89q10 0 10 -10v-89q0 -10 -10 -10h-89q-10 0 -10 10z" />
<glyph unicode="j" d="M130 451v53q0 10 10 10h297q10 0 10 -10v-557q0 -121 -30 -194q-3 -8 -8 -8l-5 1l-58 16q-8 3 -8 9l1 4q29 77 29 159v506h-228q-10 0 -10 11zM343 618v89q0 10 10 10h88q11 0 11 -10v-89q0 -10 -11 -10h-88q-10 0 -10 10z" />
<glyph unicode="k" d="M447 9l-173 258l-88 -84v-173q0 -10 -10 -10h-59q-11 0 -11 10v697q0 10 11 10h59q10 0 10 -10v-419l223 217q9 9 16 9h83q8 0 8 -7q0 -4 -4 -8l-177 -172l209 -312q2 -3 2 -7q0 -8 -9 -8h-73q-12 0 -17 9z" />
<glyph unicode="l" d="M96 651v56q0 10 10 10h238q10 0 10 -10v-631h191q10 0 10 -10v-56q0 -10 -10 -10h-461q-10 0 -10 10v56q0 10 10 10h190v565h-168q-10 0 -10 10z" />
<glyph unicode="m" d="M46 10v494q0 10 10 10h60q10 0 10 -10v-44q18 30 51.5 47t67.5 17q74 0 104 -61q47 61 121 61q59 0 87 -29.5t28 -96.5v-388q0 -10 -11 -10h-59q-10 0 -10 10v369q0 70 -58 70q-42 0 -67 -37.5t-25 -104.5v-297q0 -10 -10 -10h-59q-11 0 -11 10v361q0 78 -57 78 q-42 0 -67 -37t-25 -101v-301q0 -10 -10 -10h-60q-10 0 -10 10z" />
<glyph unicode="n" d="M106 10v494q0 10 11 10h59q10 0 10 -10v-62q29 35 75 58.5t99 23.5q83 0 126 -45.5t43 -124.5v-344q0 -10 -10 -10h-59q-10 0 -10 10v329q0 55 -25 82.5t-81 27.5q-67 0 -112.5 -49t-45.5 -130v-260q0 -10 -10 -10h-59q-11 0 -11 10z" />
<glyph unicode="o" d="M52 257q0 119 72 193t184 74t184 -74t72 -193t-72 -193t-184 -74t-184 74t-72 193zM136 257q0 -84 48 -137.5t124 -53.5t124 53.5t48 137.5t-48 138t-124 54t-124 -54t-48 -138z" />
<glyph unicode="p" d="M100 -193v697q0 10 11 10h59q10 0 10 -10v-48q24 31 67.5 49.5t95.5 18.5q102 0 164 -72.5t62 -194.5t-62 -194.5t-164 -72.5q-98 0 -163 68v-251q0 -10 -10 -10h-59q-11 0 -11 10zM172 257q0 -83 42 -137t113 -54q73 0 115.5 54t42.5 137t-42.5 137.5t-115.5 54.5 q-71 0 -113 -54.5t-42 -137.5z" />
<glyph unicode="q" d="M524 504v-697q0 -10 -10 -10h-59q-11 0 -11 10v251q-65 -68 -162 -68q-102 0 -164.5 72.5t-62.5 194.5t62.5 194.5t164.5 72.5q52 0 95 -18.5t67 -49.5v48q0 10 11 10h59q10 0 10 -10zM453 257q0 83 -42 137.5t-113 54.5q-73 0 -116 -54.5t-43 -137.5t43 -137t116 -54 q71 0 113 54t42 137z" />
<glyph unicode="r" d="M548 397l-60 -36q-3 -2 -7 -2q-5 0 -8 6q-29 46 -54.5 65t-71.5 19q-62 0 -103.5 -58.5t-41.5 -143.5v-237q0 -10 -11 -10h-59q-10 0 -10 10v494q0 10 10 10h59q11 0 11 -10v-65q28 37 73.5 61t102.5 24q122 0 174 -109q2 -4 2 -7q0 -8 -6 -11z" />
<glyph unicode="s" d="M529 151q0 -76 -60 -118.5t-151 -42.5t-155.5 48t-64.5 119q0 10 11 10h65q9 0 10 -10q6 -43 44 -67t94 -24q55 0 89 18t34 56t-35.5 56.5t-118.5 31.5q-94 15 -137 49.5t-43 100.5q0 69 56.5 107.5t142.5 38.5t140.5 -39.5t61.5 -107.5q0 -10 -10 -10h-58q-7 0 -10 10 q-11 36 -46 54t-81 18q-52 0 -84.5 -17.5t-32.5 -51.5q0 -37 33.5 -54t116.5 -32q42 -7 72 -16t58.5 -25t43.5 -41.5t15 -60.5z" />
<glyph unicode="t" d="M53 514h127v166q0 10 10 10h60q10 0 10 -10v-166h203q10 0 10 -10v-55q0 -11 -10 -11h-203v-239q0 -66 26 -99.5t74 -33.5q50 0 75.5 26t32.5 79q1 9 11 9h60h4t2.5 -1t2 -3t0.5 -5q0 -75 -51 -128t-137 -53q-180 0 -180 208v240h-127q-10 0 -10 11v55q0 10 10 10z" />
<glyph unicode="u" d="M513 504v-494q0 -10 -10 -10h-60q-10 0 -10 10v62q-29 -35 -75 -58.5t-99 -23.5q-83 0 -126 45.5t-43 124.5v344q0 10 10 10h60q10 0 10 -10v-329q0 -55 24.5 -82t80.5 -27q67 0 112.5 49t45.5 129v260q0 10 10 10h60q10 0 10 -10z" />
<glyph unicode="v" d="M564 498l-208 -488q-4 -10 -10 -10h-76q-6 0 -10 10l-208 488q-1 3 -1 7q0 9 9 9h70q11 0 14 -10l164 -398l164 398q3 10 14 10h70q9 0 9 -9q0 -4 -1 -7z" />
<glyph unicode="w" d="M599 499l-110 -489q-3 -10 -13 -10h-73q-10 0 -13 10l-82 329l-82 -329q-3 -10 -13 -10h-73q-10 0 -13 10l-110 489q-1 4 -1 8q0 7 9 7h70q12 0 15 -10l70 -387l78 336q3 10 11 10h78q8 0 11 -10l78 -336l71 387q3 10 14 10h71q8 0 8 -7q0 -4 -1 -8z" />
<glyph unicode="x" d="M188 507l120 -176l120 176q5 7 14 7h74q7 0 7 -7q0 -2 -2 -6l-164 -237l180 -251q3 -5 3 -8q0 -5 -6 -5h-79q-9 0 -15 10l-132 188l-132 -188q-6 -10 -14 -10h-79q-6 0 -6 5q0 3 3 8l179 251l-164 237q-2 4 -2 6q0 7 7 7h74q9 0 14 -7z" />
<glyph unicode="y" d="M92 -180v55q0 10 8 10q4 0 25.5 -11t48.5 -11q36 0 56 28.5t51 106.5l2 6l-210 494q-2 6 -2 8q0 8 8 8h74q10 0 13 -10l161 -388l152 388q4 10 15 10h70q8 0 8 -7q0 -1 -2 -7l-220 -550q-35 -87 -74.5 -125t-97.5 -38q-39 0 -76 16q-10 6 -10 17z" />
<glyph unicode="z" d="M120 449v55q0 10 10 10h358q11 0 11 -10v-55q0 -9 -9 -22l-286 -351h304q10 0 10 -10v-56q0 -10 -10 -10h-391q-11 0 -11 10v56q0 6 7 15l291 357h-274q-10 0 -10 11z" />
<glyph unicode="{" d="M342 173v-176q0 -69 12.5 -93.5t56.5 -24.5h70q11 0 11 -10v-62q0 -10 -11 -10h-70q-79 0 -117 48t-38 152v160q0 59 -54 59h-45q-11 0 -11 10v62q0 10 11 10h45q54 0 54 59v160q0 104 38 152t117 48h70q11 0 11 -10v-62q0 -10 -11 -10h-70q-44 0 -56.5 -24.5 t-12.5 -93.5v-176q0 -69 -58 -84q58 -15 58 -84z" />
<glyph unicode="|" d="M265 -92v901q0 10 10 10h66q10 0 10 -10v-901q0 -10 -10 -10h-66q-10 0 -10 10z" />
<glyph unicode="}" d="M274 -3v176q0 68 59 84q-59 16 -59 84v176q0 70 -12 94t-56 24h-71q-10 0 -10 10v62q0 10 10 10h71q79 0 116.5 -47.5t37.5 -152.5v-160q0 -59 55 -59h45q10 0 10 -10v-62q0 -10 -10 -10h-45q-55 0 -55 -59v-160q0 -105 -37.5 -152.5t-116.5 -47.5h-71q-10 0 -10 10v62 q0 10 10 10h71q44 0 56 24t12 94z" />
<glyph unicode="~" d="M97 373q49 37 117 37q42 0 101 -21t87 -21q37 0 77 25q4 2 7 2q6 0 11 -8l30 -51q1 -2 1 -4q0 -8 -9 -14q-48 -36 -117 -36q-42 0 -101 21t-87 21q-36 0 -77 -26q-4 -2 -7 -2q-5 0 -10 8l-31 51q-1 2 -1 4q0 8 9 14z" />
<glyph unicode="&#xa0;" />
<glyph unicode="&#xa1;" d="M341 -203h-66q-10 0 -10 10v507q0 11 10 11h66q10 0 10 -11v-507q0 -10 -10 -10zM358 393h-100q-10 0 -10 10v101q0 10 10 10h100q11 0 11 -10v-101q0 -10 -11 -10z" />
<glyph unicode="&#xa2;" d="M269 10v84q-96 14 -151.5 86.5t-55.5 177.5q0 104 56 177t151 87v85q0 10 11 10h65q10 0 10 -10v-84q71 -10 119 -54t66 -114q1 -4 1 -11q0 -6 -7 -6h-63q-12 0 -14 9q-23 80 -102 98v-373q79 19 102 97q3 10 14 10h63q7 0 7 -7q0 -6 -1 -10q-18 -70 -66 -114t-119 -54 v-84q0 -10 -10 -10h-65q-11 0 -11 10zM146 358q0 -72 33.5 -122t89.5 -64v372q-56 -14 -89.5 -64.5t-33.5 -121.5z" />
<glyph unicode="&#xa3;" d="M172 285q0 17 -3 33h-76q-10 0 -10 11v59q0 10 10 10h52q-21 61 -21 115q0 97 62.5 155.5t158.5 58.5q103 0 160.5 -58t57.5 -145q0 -10 -10 -10h-66q-10 0 -10 10q0 51 -37 86t-95 35q-63 0 -99 -35t-36 -97q0 -50 26 -115h233q10 0 10 -10v-59q0 -11 -10 -11h-214 q3 -18 3 -38q0 -105 -69 -198h374q10 0 10 -10v-62q0 -10 -10 -10h-453q-11 0 -11 10v72q0 8 9 20q35 45 49.5 85t14.5 98z" />
<glyph unicode="&#xa4;" d="M92 144l51 51q-31 51 -31 112q0 62 31 113l-51 50q-4 4 -4 7t4 7l39 39q4 4 7 4t7 -4l51 -50q48 33 112 33q65 0 113 -33l50 50q4 4 7 4t7 -4l39 -39q4 -4 4 -7t-4 -7l-51 -50q32 -52 32 -113q0 -60 -32 -112l51 -51q4 -4 4 -7t-4 -7l-39 -39q-4 -4 -7 -4t-7 4l-50 50 q-47 -32 -113 -32q-65 0 -112 32l-51 -50q-4 -4 -7 -4t-7 4l-39 39q-4 4 -4 7t4 7zM187 307q0 -59 33 -94t88 -35t88 35t33 94t-33 94t-88 35t-88 -35t-33 -94z" />
<glyph unicode="&#xa5;" d="M101 382h119l-183 325q-1 2 -1 4q0 6 6 6h83q6 0 11 -8l172 -318l172 318q5 8 12 8h82q7 0 7 -6q0 -2 -1 -4l-184 -325h119q10 0 10 -10v-60q0 -10 -10 -10h-164v-73h136q11 0 11 -10v-59q0 -10 -11 -10h-136v-140q0 -10 -10 -10h-66q-10 0 -10 10v140h-136q-10 0 -10 10 v59q0 10 10 10h136v73h-164q-10 0 -10 10v60q0 10 10 10z" />
<glyph unicode="&#xa6;" d="M265 430v379q0 10 10 10h66q10 0 10 -10v-379q0 -10 -10 -10h-66q-10 0 -10 10zM265 -92v379q0 10 10 10h66q10 0 10 -10v-379q0 -10 -10 -10h-66q-10 0 -10 10z" />
<glyph unicode="&#xa7;" d="M527 -41q0 -82 -60 -127t-142 -45q-96 0 -154 56.5t-58 136.5q0 10 10 10h65q11 0 11 -10q0 -48 34.5 -79.5t91.5 -31.5q50 0 83 22t33 68q0 38 -29 65t-111 76q-60 36 -85.5 53t-55 42.5t-39.5 48.5t-10 53q0 39 14.5 67t48.5 57q-63 57 -63 134q0 82 60 127t142 45 q96 0 154 -56t58 -136q0 -11 -10 -11h-65q-11 0 -11 11q0 48 -34.5 79t-91.5 31q-50 0 -83 -22t-33 -68q0 -38 29 -65t111 -76q60 -36 85.5 -53t55 -42.5t39.5 -48.5t10 -53q0 -39 -14.5 -67t-48.5 -57q63 -57 63 -134zM441 208q0 30 -39 62.5t-159 101.5q-46 -25 -46 -66 q0 -30 39 -62.5t159 -101.5q46 25 46 66z" />
<glyph unicode="&#xa8;" d="M170 621v86q0 10 10 10h86q10 0 10 -10v-86q0 -11 -10 -11h-86q-10 0 -10 11zM340 621v86q0 10 10 10h86q10 0 10 -10v-86q0 -11 -10 -11h-86q-10 0 -10 11z" />
<glyph unicode="&#xa9;" d="M393 302h25q7 0 7 -7q-6 -46 -38 -72.5t-79 -26.5q-52 0 -90.5 40.5t-38.5 113.5t38.5 114.5t90.5 41.5q47 0 79 -26.5t38 -72.5q0 -8 -7 -8h-25q-7 0 -9 8q-13 60 -76 60q-37 0 -61.5 -30t-24.5 -87q0 -56 24.5 -86t61.5 -30q62 0 76 61q1 7 9 7zM308 86 q-101 0 -177 71.5t-76 192.5t76 192.5t177 71.5t177 -71.5t76 -192.5t-76 -192.5t-177 -71.5zM308 131q82 0 143.5 58t61.5 161t-61.5 161t-143.5 58t-143.5 -58t-61.5 -161t61.5 -161t143.5 -58z" />
<glyph unicode="&#xaa;" d="M485 710v-369q0 -7 -7 -7h-44q-8 0 -8 7v36q-42 -51 -125 -51q-72 0 -121 55.5t-49 143.5t49 144t121 56q83 0 125 -51v36q0 7 8 7h44q7 0 7 -7zM432 525q0 65 -32 104t-88 39t-87 -40.5t-31 -102.5t31 -102t87 -40t88 38.5t32 103.5z" />
<glyph unicode="&#xab;" d="M314 130v-86q0 -7 -6 -7q-3 0 -6 3l-220 193q-10 9 -10 19v57q0 10 10 19l220 193q3 3 6 3q6 0 6 -7v-86q0 -10 -7 -16l-153 -134l153 -135q7 -6 7 -16zM529 130v-86q0 -7 -6 -7q-3 0 -6 3l-220 193q-10 9 -10 19v57q0 10 10 19l220 193q3 3 6 3q6 0 6 -7v-86 q0 -10 -7 -16l-153 -134l153 -135q7 -6 7 -16z" />
<glyph unicode="&#xac;" d="M91 299v51q0 10 10 10h398q10 0 10 -10v-189q0 -10 -10 -10h-60q-10 0 -10 10v128h-328q-10 0 -10 10z" />
<glyph unicode="&#xad;" d="M126 390h364q11 0 11 -10v-59q0 -11 -11 -11h-364q-10 0 -10 11v59q0 10 10 10z" />
<glyph unicode="&#xae;" d="M308 86q-101 0 -177 71.5t-76 192.5t76 192.5t177 71.5t177 -71.5t76 -192.5t-76 -192.5t-177 -71.5zM308 131q82 0 143.5 58t61.5 161t-61.5 161t-143.5 58t-143.5 -58t-61.5 -161t61.5 -161t143.5 -58zM221 206v290q0 7 7 7h90q45 0 71 -22t26 -62q0 -62 -62 -81 l66 -132q1 -2 1 -4q0 -3 -4 -3h-32q-7 0 -10 6l-65 129h-47v-128q0 -7 -7 -7h-27q-7 0 -7 7zM262 464v-91h61q51 0 51 46q0 45 -51 45h-61z" />
<glyph unicode="&#xaf;" d="M199 621v51q0 10 10 10h199q10 0 10 -10v-51q0 -11 -10 -11h-199q-10 0 -10 11z" />
<glyph unicode="&#xb0;" d="M125 553q0 77 52 125.5t131 48.5t131.5 -49t52.5 -125t-52.5 -125t-131.5 -49t-131 48.5t-52 125.5zM197 553q0 -51 31.5 -81t79.5 -30t80 30.5t32 80.5t-32 80.5t-80 30.5t-79.5 -30t-31.5 -81z" />
<glyph unicode="&#xb1;" d="M348 577v-170h170q10 0 10 -11v-59q0 -10 -10 -10h-170v-170q0 -11 -10 -11h-59q-11 0 -11 11v170h-170q-10 0 -10 10v59q0 11 10 11h170v170q0 10 11 10h59q10 0 10 -10zM98 80h420q10 0 10 -10v-60q0 -10 -10 -10h-420q-10 0 -10 10v60q0 10 10 10z" />
<glyph unicode="&#xb2;" d="M185 344v31q0 9 6 14l156 135q41 35 41 78q0 28 -16.5 47t-46.5 19q-32 0 -51 -19t-23 -48q-1 -10 -10 -10h-40q-11 0 -11 10q2 52 39 87t96 35q57 0 89.5 -34.5t32.5 -85.5q0 -68 -57 -116l-115 -98h178q10 0 10 -10v-35q0 -10 -10 -10h-257q-11 0 -11 10z" />
<glyph unicode="&#xb3;" d="M259 517v35q0 10 10 10h21q67 0 67 60q0 22 -16.5 36t-42.5 14q-53 0 -62 -55q-1 -8 -11 -8h-36q-10 0 -10 9q2 45 35 75t84 30q52 0 84.5 -28.5t32.5 -66.5q0 -58 -46 -86q62 -26 62 -97q0 -53 -38 -85t-94 -32q-54 0 -94 33t-41 84q0 11 10 11h39q8 0 10 -11 q10 -62 75 -62q32 0 53 16t21 46t-20 46t-54 16h-29q-10 0 -10 10z" />
<glyph unicode="&#xb4;" d="M213 578l68 129q6 10 15 10h103q7 0 7 -5l-3 -5l-101 -130q-8 -10 -18 -10h-66q-6 0 -6 6q0 3 1 5z" />
<glyph unicode="&#xb5;" d="M513 504v-494q0 -10 -10 -10h-60q-10 0 -10 10v62q-29 -35 -75 -58.5t-99 -23.5t-89 18v-201q0 -10 -10 -10h-60q-10 0 -10 10v697q0 10 10 10h60q10 0 10 -10v-329q0 -55 24.5 -82t80.5 -27q67 0 112.5 49t45.5 129v260q0 10 10 10h60q10 0 10 -10z" />
<glyph unicode="&#xb6;" d="M221 717h331q10 0 10 -10v-62q0 -10 -10 -10h-60v-727q0 -10 -11 -10h-65q-10 0 -10 10v727h-76v-727q0 -10 -11 -10h-65q-10 0 -10 10v462h-23q-90 0 -140.5 46.5t-50.5 126.5t50.5 127t140.5 47z" />
<glyph unicode="&#xb7;" d="M256 421h104q11 0 11 -10v-105q0 -10 -11 -10h-104q-10 0 -10 10v105q0 10 10 10z" />
<glyph unicode="&#xb8;" d="M225 -105l-13 13q-2 2 -2 4q0 1 2 7l45 110q4 10 12 10h45q8 0 8 -5q0 -3 -1 -5l-50 -91q25 7 60 7q40 0 64 -20t24 -53q0 -85 -110 -85q-57 0 -100 10q-10 3 -10 10v30q0 10 10 10q2 0 34.5 -5.5t62.5 -5.5q45 0 45 32q0 14 -12 23t-33 9q-30 0 -66 -8q-4 -1 -8 -1 q-3 0 -7 4z" />
<glyph unicode="&#xb9;" d="M190 344v35q0 10 11 10h92v250l-79 -42q-6 -3 -10 -3q-8 0 -8 8v48q0 6 7 10l98 53q8 4 15 4h24q10 0 10 -10v-318h92q11 0 11 -10v-35q0 -10 -11 -10h-241q-11 0 -11 10z" />
<glyph unicode="&#xba;" d="M116 525q0 90 54 145t138 55t138.5 -55t54.5 -145t-54 -144.5t-139 -54.5q-84 0 -138 54.5t-54 144.5zM178 525q0 -65 37 -103.5t93 -38.5t93 38.5t37 103.5t-37 104t-93 39t-93 -39t-37 -104z" />
<glyph unicode="&#xbb;" d="M302 44v86q0 10 7 16l154 135l-154 134q-7 6 -7 16v86q0 7 6 7q3 0 6 -3l221 -193q10 -9 10 -19v-57q0 -10 -10 -19l-221 -193q-3 -3 -6 -3q-6 0 -6 7zM87 44v86q0 10 7 16l154 135l-154 134q-7 6 -7 16v86q0 7 6 7q3 0 6 -3l220 -193q11 -9 11 -19v-57q0 -10 -11 -19 l-220 -193q-3 -3 -6 -3q-6 0 -6 7z" />
<glyph unicode="&#xbc;" d="M53 344v35q0 10 10 10h93v250l-79 -42q-6 -3 -10 -3q-9 0 -9 8v48q0 6 8 10l98 53q8 4 15 4h24q10 0 10 -10v-318h92q10 0 10 -10v-35q0 -10 -10 -10h-242q-10 0 -10 10zM145 72l402 415q5 5 7 5q3 0 8 -5l26 -25q4 -4 4 -7q0 -4 -4 -8l-402 -415q-4 -4 -7 -4q-4 0 -8 4 l-26 25q-4 4 -4 8q0 3 4 7zM429 -193v63h-154q-10 0 -10 10v29q0 6 4 12l162 252q4 7 11 7h34q10 0 10 -10v-245h38q11 0 11 -10v-35q0 -10 -11 -10h-38v-63q0 -10 -10 -10h-37q-10 0 -10 10zM429 69l-89 -144h89v144z" />
<glyph unicode="&#xbd;" d="M53 344v35q0 10 10 10h93v250l-79 -42q-6 -3 -10 -3q-9 0 -9 8v48q0 6 8 10l98 53q8 4 15 4h24q10 0 10 -10v-318h92q10 0 10 -10v-35q0 -10 -10 -10h-242q-10 0 -10 10zM118 72l401 415q5 5 7 5q4 0 9 -5l25 -25q4 -4 4 -7q0 -4 -4 -8l-401 -415q-4 -4 -7 -4q-5 0 -9 4 l-25 25q-4 4 -4 8q0 3 4 7zM297 -193v31q0 10 6 15l156 135q41 35 41 78q0 28 -17 46.5t-47 18.5q-32 0 -51 -19t-23 -47q-2 -11 -10 -11h-40q-10 0 -10 11q2 52 38.5 86.5t95.5 34.5q57 0 90 -34t33 -85q0 -68 -57 -116l-115 -98h177q10 0 10 -11v-35q0 -10 -10 -10h-257 q-10 0 -10 10z" />
<glyph unicode="&#xbe;" d="M118 72l401 415q5 5 7 5q4 0 9 -5l25 -25q4 -4 4 -7q0 -4 -4 -8l-401 -415q-4 -4 -7 -4q-5 0 -9 4l-25 25q-4 4 -4 8q0 3 4 7zM429 -193v63h-154q-10 0 -10 10v29q0 6 4 12l162 252q4 7 11 7h34q10 0 10 -10v-245h38q11 0 11 -10v-35q0 -10 -11 -10h-38v-63 q0 -10 -10 -10h-37q-10 0 -10 10zM429 69l-89 -144h89v144zM139 517v35q0 10 11 10h20q68 0 68 60q0 22 -17 36t-43 14q-53 0 -62 -55q-1 -8 -11 -8h-35q-11 0 -11 9q2 45 35 75t84 30q52 0 84.5 -28.5t32.5 -66.5q0 -58 -46 -86q62 -26 62 -97q0 -53 -38 -85t-94 -32 q-54 0 -94 33t-41 84q0 11 10 11h39q8 0 10 -11q10 -62 75 -62q32 0 53 16t21 46t-20 46t-54 16h-28q-11 0 -11 10z" />
<glyph unicode="&#xbf;" d="M530 -10q-3 -85 -65 -144t-162 -59q-97 0 -154 52t-57 138q0 41 17.5 74t42.5 56t50 44.5t42.5 49t17.5 59.5v54q0 11 10 11h66q10 0 10 -11v-47q0 -45 -17.5 -82t-42.5 -61t-50 -45.5t-42.5 -47t-17.5 -54.5q0 -49 34.5 -78.5t90.5 -29.5t96 31.5t47 89.5q1 10 11 10h63 q10 0 10 -10zM355 393h-100q-10 0 -10 10v101q0 10 10 10h100q11 0 11 -10v-101q0 -10 -11 -10z" />
<glyph unicode="&#xc0;" d="M174 208l-65 -198q-3 -10 -13 -10h-69q-12 0 -12 10q0 3 1 6l240 691q3 10 10 10h84q7 0 10 -10l240 -691q1 -3 1 -6q0 -10 -11 -10h-70q-9 0 -12 10l-67 198h-267zM308 610l-107 -320h214zM285 909l67 -129q1 -2 1 -4q0 -6 -6 -6h-65q-12 0 -19 9l-101 130q-2 3 -2 5 q0 6 6 6h103q10 0 16 -11z" />
<glyph unicode="&#xc1;" d="M174 208l-65 -198q-3 -10 -13 -10h-69q-12 0 -12 10q0 3 1 6l240 691q3 10 10 10h84q7 0 10 -10l240 -691q1 -3 1 -6q0 -10 -11 -10h-70q-9 0 -12 10l-67 198h-267zM308 610l-107 -320h214zM264 780l68 129q6 11 15 11h104q6 0 6 -6q0 -2 -2 -5l-102 -130q-7 -9 -18 -9 h-66q-6 0 -6 6q0 2 1 4z" />
<glyph unicode="&#xc2;" d="M174 208l-65 -198q-3 -10 -13 -10h-69q-12 0 -12 10q0 3 1 6l240 691q3 10 10 10h84q7 0 10 -10l240 -691q1 -3 1 -6q0 -10 -11 -10h-70q-9 0 -12 10l-67 198h-267zM308 610l-107 -320h214zM352 911l104 -131q2 -2 2 -5q0 -5 -7 -5h-64q-9 0 -18 9l-61 62l-60 -62 q-9 -9 -19 -9h-63q-7 0 -7 5l2 5l103 131q8 9 16 9h57q7 0 15 -9z" />
<glyph unicode="&#xc3;" d="M174 208l-65 -198q-3 -10 -13 -10h-69q-12 0 -12 10q0 3 1 6l240 691q3 10 10 10h84q7 0 10 -10l240 -691q1 -3 1 -6q0 -10 -11 -10h-70q-9 0 -12 10l-67 198h-267zM308 610l-107 -320h214zM138 881q48 39 106 39q42 0 73 -21t56 -21q22 0 62 25q4 2 7 2q7 0 11 -8 l28 -43q2 -3 2 -6q0 -4 -5 -9q-48 -39 -105 -39q-43 0 -74 21t-55 21q-22 0 -63 -26q-4 -2 -7 -2q-5 0 -10 8l-29 43q-2 3 -2 6q0 5 5 10z" />
<glyph unicode="&#xc4;" d="M174 208l-65 -198q-3 -10 -13 -10h-69q-12 0 -12 10q0 3 1 6l240 691q3 10 10 10h84q7 0 10 -10l240 -691q1 -3 1 -6q0 -10 -11 -10h-70q-9 0 -12 10l-67 198h-267zM308 610l-107 -320h214zM170 823v86q0 11 10 11h86q10 0 10 -11v-86q0 -10 -10 -10h-86q-10 0 -10 10z M340 823v86q0 11 10 11h86q10 0 10 -11v-86q0 -10 -10 -10h-86q-10 0 -10 10z" />
<glyph unicode="&#xc5;" d="M174 208l-65 -198q-3 -10 -13 -10h-69q-12 0 -12 10q0 3 1 6l240 691q3 10 10 10h84q7 0 10 -10l240 -691q1 -3 1 -6q0 -10 -11 -10h-70q-9 0 -12 10l-67 198h-267zM308 610l-107 -320h214zM219 854q0 38 25 62t64 24t64 -24t25 -62t-25 -62t-64 -24t-64 24t-25 62z M268 854q0 -19 11 -30t29 -11t29 11t11 30t-11 30t-29 11t-29 -11t-11 -30z" />
<glyph unicode="&#xc6;" d="M347 336v-254h242q10 0 10 -10v-62q0 -10 -10 -10h-318q-10 0 -10 10v198h-134l-50 -198q-3 -10 -12 -10h-66q-11 0 -11 10q0 3 1 6l190 691q3 10 10 10h390q10 0 10 -10v-62q0 -10 -10 -10h-232v-217h202q10 0 10 -10v-62q0 -10 -10 -10h-202zM238 635l-90 -345h113v345 h-23z" />
<glyph unicode="&#xc7;" d="M266 -105l-13 13q-2 2 -2 4q0 1 2 7l30 75q-105 16 -170.5 109.5t-65.5 254.5q0 178 79 273.5t202 95.5q106 0 174.5 -62.5t83.5 -180.5q0 -10 -12 -10h-62q-11 0 -12 10q-17 83 -55.5 122t-116.5 39q-90 0 -140.5 -74t-50.5 -213t50.5 -212.5t140.5 -73.5q80 0 117 38 t55 122q2 11 12 11h62q12 0 12 -11q-15 -115 -80 -176.5t-166 -65.5l-28 -52q24 7 60 7q40 0 64 -20t24 -53q0 -85 -110 -85q-57 0 -100 10q-10 3 -10 10v30q0 10 10 10q2 0 34.5 -5.5t62.5 -5.5q45 0 45 32q0 14 -12 23t-33 9q-30 0 -66 -8q-4 -1 -8 -1q-3 0 -7 4z" />
<glyph unicode="&#xc8;" d="M175 336v-254h362q10 0 10 -10v-62q0 -10 -10 -10h-438q-10 0 -10 10v697q0 10 10 10h430q11 0 11 -10v-62q0 -10 -11 -10h-354v-217h323q10 0 10 -10v-62q0 -10 -10 -10h-323zM319 909l68 -129q1 -2 1 -4q0 -6 -6 -6h-66q-10 0 -18 9l-101 130q-2 3 -2 5q0 6 6 6h103 q9 0 15 -11z" />
<glyph unicode="&#xc9;" d="M175 336v-254h362q10 0 10 -10v-62q0 -10 -10 -10h-438q-10 0 -10 10v697q0 10 10 10h430q11 0 11 -10v-62q0 -10 -11 -10h-354v-217h323q10 0 10 -10v-62q0 -10 -10 -10h-323zM250 780l67 129q6 11 16 11h103q6 0 6 -6q0 -2 -2 -5l-101 -130q-7 -9 -18 -9h-66q-6 0 -6 6 q0 2 1 4z" />
<glyph unicode="&#xca;" d="M175 336v-254h362q10 0 10 -10v-62q0 -10 -10 -10h-438q-10 0 -10 10v697q0 10 10 10h430q11 0 11 -10v-62q0 -10 -11 -10h-354v-217h323q10 0 10 -10v-62q0 -10 -10 -10h-323zM360 911l104 -131q2 -2 2 -5q0 -5 -7 -5h-64q-9 0 -18 9l-61 62l-60 -62q-9 -9 -18 -9h-64 q-7 0 -7 5l2 5l103 131q8 9 16 9h57q7 0 15 -9z" />
<glyph unicode="&#xcb;" d="M175 336v-254h362q10 0 10 -10v-62q0 -10 -10 -10h-438q-10 0 -10 10v697q0 10 10 10h430q11 0 11 -10v-62q0 -10 -11 -10h-354v-217h323q10 0 10 -10v-62q0 -10 -10 -10h-323zM184 823v86q0 11 11 11h86q10 0 10 -11v-86q0 -10 -10 -10h-86q-11 0 -11 10zM354 823v86 q0 11 11 11h86q10 0 10 -11v-86q0 -10 -10 -10h-86q-11 0 -11 10z" />
<glyph unicode="&#xcc;" d="M98 645v62q0 10 11 10h399q10 0 10 -10v-62q0 -10 -10 -10h-157v-553h167q10 0 10 -10v-62q0 -10 -10 -10h-420q-10 0 -10 10v62q0 10 10 10h167v553h-156q-11 0 -11 10zM294 909l67 -129q1 -2 1 -4q0 -6 -6 -6h-65q-11 0 -19 9l-101 130q-2 3 -2 5q0 6 6 6h104 q9 0 15 -11z" />
<glyph unicode="&#xcd;" d="M98 645v62q0 10 11 10h399q10 0 10 -10v-62q0 -10 -10 -10h-157v-553h167q10 0 10 -10v-62q0 -10 -10 -10h-420q-10 0 -10 10v62q0 10 10 10h167v553h-156q-11 0 -11 10zM256 780l68 129q6 11 15 11h103q7 0 7 -6l-3 -5l-101 -130q-7 -9 -18 -9h-66q-6 0 -6 6q0 2 1 4z " />
<glyph unicode="&#xce;" d="M98 645v62q0 10 11 10h399q10 0 10 -10v-62q0 -10 -10 -10h-157v-553h167q10 0 10 -10v-62q0 -10 -10 -10h-420q-10 0 -10 10v62q0 10 10 10h167v553h-156q-11 0 -11 10zM352 911l104 -131q2 -2 2 -5q0 -5 -7 -5h-64q-9 0 -18 9l-61 62l-60 -62q-9 -9 -19 -9h-63 q-7 0 -7 5l2 5l103 131q8 9 16 9h57q7 0 15 -9z" />
<glyph unicode="&#xcf;" d="M98 645v62q0 10 11 10h399q10 0 10 -10v-62q0 -10 -10 -10h-157v-553h167q10 0 10 -10v-62q0 -10 -10 -10h-420q-10 0 -10 10v62q0 10 10 10h167v553h-156q-11 0 -11 10zM170 823v86q0 11 10 11h86q10 0 10 -11v-86q0 -10 -10 -10h-86q-10 0 -10 10zM340 823v86 q0 11 10 11h86q10 0 10 -11v-86q0 -10 -10 -10h-86q-10 0 -10 10z" />
<glyph unicode="&#xd0;" d="M84 10v308h-59q-11 0 -11 11v59q0 10 11 10h59v309q0 10 10 10h162q139 0 227 -91t88 -268t-88 -267.5t-227 -90.5h-162q-10 0 -10 10zM170 82h85q106 0 166 68.5t60 207.5t-60 208t-166 69h-85v-237h127q10 0 10 -10v-59q0 -11 -10 -11h-127v-236z" />
<glyph unicode="&#xd1;" d="M541 0h-83q-14 0 -17 8l-289 561v-559q0 -10 -11 -10h-65q-10 0 -10 10v697q0 10 10 10h83q13 0 16 -8l290 -562v560q0 10 10 10h66q10 0 10 -10v-697q0 -10 -10 -10zM142 881q48 39 106 39q42 0 73 -21t56 -21q22 0 62 25q4 2 7 2q7 0 11 -8l28 -43q2 -3 2 -6 q0 -4 -5 -9q-48 -39 -105 -39q-43 0 -74 21t-55 21q-22 0 -63 -26q-4 -2 -7 -2q-5 0 -10 8l-29 43q-2 3 -2 6q0 5 5 10z" />
<glyph unicode="&#xd2;" d="M308 -10q-121 0 -195 97t-74 271t74 271.5t195 97.5t195.5 -97.5t74.5 -271.5t-74.5 -271t-195.5 -97zM308 72q179 0 179 286q0 287 -179 287t-179 -287q0 -286 179 -286zM290 909l67 -129q1 -2 1 -4q0 -6 -6 -6h-65q-11 0 -19 9l-101 130q-2 3 -2 5q0 6 6 6h103 q10 0 16 -11z" />
<glyph unicode="&#xd3;" d="M308 -10q-121 0 -195 97t-74 271t74 271.5t195 97.5t195.5 -97.5t74.5 -271.5t-74.5 -271t-195.5 -97zM308 72q179 0 179 286q0 287 -179 287t-179 -287q0 -286 179 -286zM250 780l67 129q6 11 16 11h103q6 0 6 -6q0 -2 -2 -5l-101 -130q-7 -9 -18 -9h-66q-6 0 -6 6 q0 2 1 4z" />
<glyph unicode="&#xd4;" d="M308 -10q-121 0 -195 97t-74 271t74 271.5t195 97.5t195.5 -97.5t74.5 -271.5t-74.5 -271t-195.5 -97zM308 72q179 0 179 286q0 287 -179 287t-179 -287q0 -286 179 -286zM352 911l104 -131q2 -2 2 -5q0 -5 -7 -5h-64q-9 0 -18 9l-61 62l-60 -62q-9 -9 -19 -9h-63 q-7 0 -7 5l2 5l103 131q8 9 16 9h57q7 0 15 -9z" />
<glyph unicode="&#xd5;" d="M308 -10q-121 0 -195 97t-74 271t74 271.5t195 97.5t195.5 -97.5t74.5 -271.5t-74.5 -271t-195.5 -97zM308 72q179 0 179 286q0 287 -179 287t-179 -287q0 -286 179 -286zM138 881q48 39 106 39q42 0 73 -21t56 -21q22 0 62 25q4 2 7 2q7 0 11 -8l28 -43q2 -3 2 -6 q0 -4 -5 -9q-48 -39 -105 -39q-43 0 -74 21t-55 21q-22 0 -63 -26q-4 -2 -7 -2q-5 0 -10 8l-29 43q-2 3 -2 6q0 5 5 10z" />
<glyph unicode="&#xd6;" d="M308 -10q-121 0 -195 97t-74 271t74 271.5t195 97.5t195.5 -97.5t74.5 -271.5t-74.5 -271t-195.5 -97zM308 72q179 0 179 286q0 287 -179 287t-179 -287q0 -286 179 -286zM170 823v86q0 11 10 11h86q10 0 10 -11v-86q0 -10 -10 -10h-86q-10 0 -10 10zM340 823v86 q0 11 10 11h86q10 0 10 -11v-86q0 -10 -10 -10h-86q-10 0 -10 10z" />
<glyph unicode="&#xd7;" d="M485 470l-120 -120l120 -120q4 -4 4 -7q0 -4 -4 -8l-42 -42q-4 -4 -8 -4q-3 0 -7 4l-120 121l-120 -121q-4 -4 -7 -4q-4 0 -8 4l-42 42q-4 4 -4 8q0 3 4 7l121 120l-121 120q-4 4 -4 7q0 4 4 8l42 42q4 4 8 4q3 0 7 -4l120 -120l120 120q4 4 7 4q4 0 8 -4l42 -42 q4 -4 4 -8q0 -3 -4 -7z" />
<glyph unicode="&#xd8;" d="M308 -10q-89 0 -153 53l-39 -66q-4 -6 -8 -6q-3 0 -7 2l-27 17q-6 4 -6 8q0 2 2 6l46 79q-77 99 -77 275q0 174 74 271.5t195 97.5q91 0 154 -53l39 65q4 6 8 6q2 0 6 -2l28 -16q6 -4 6 -8q0 -2 -2 -6l-46 -79q77 -99 77 -276q0 -174 -74.5 -271t-195.5 -97zM129 358 q0 -126 34 -194l257 437q-44 44 -112 44q-179 0 -179 -287zM308 72q179 0 179 286q0 129 -33 195l-257 -437q44 -44 111 -44z" />
<glyph unicode="&#xd9;" d="M68 243v464q0 10 10 10h65q11 0 11 -10v-453q0 -182 154 -182q155 0 155 182v453q0 10 10 10h66q10 0 10 -10v-464q0 -117 -68 -185t-173 -68t-172.5 68t-67.5 185zM304 909l68 -129q1 -2 1 -4q0 -6 -6 -6h-66q-11 0 -18 9l-102 130q-2 3 -2 5q0 6 6 6h104q9 0 15 -11z " />
<glyph unicode="&#xda;" d="M68 243v464q0 10 10 10h65q11 0 11 -10v-453q0 -182 154 -182q155 0 155 182v453q0 10 10 10h66q10 0 10 -10v-464q0 -117 -68 -185t-173 -68t-172.5 68t-67.5 185zM239 780l67 129q6 11 16 11h103q6 0 6 -6q0 -2 -2 -5l-101 -130q-8 -9 -19 -9h-65q-6 0 -6 6q0 2 1 4z " />
<glyph unicode="&#xdb;" d="M68 243v464q0 10 10 10h65q11 0 11 -10v-453q0 -182 154 -182q155 0 155 182v453q0 10 10 10h66q10 0 10 -10v-464q0 -117 -68 -185t-173 -68t-172.5 68t-67.5 185zM352 911l104 -131q2 -2 2 -5q0 -5 -7 -5h-64q-9 0 -18 9l-61 62l-60 -62q-9 -9 -19 -9h-63q-7 0 -7 5 l2 5l103 131q8 9 16 9h57q7 0 15 -9z" />
<glyph unicode="&#xdc;" d="M68 243v464q0 10 10 10h65q11 0 11 -10v-453q0 -182 154 -182q155 0 155 182v453q0 10 10 10h66q10 0 10 -10v-464q0 -117 -68 -185t-173 -68t-172.5 68t-67.5 185zM170 823v86q0 11 10 11h86q10 0 10 -11v-86q0 -10 -10 -10h-86q-10 0 -10 10zM340 823v86q0 11 10 11h86 q10 0 10 -11v-86q0 -10 -10 -10h-86q-10 0 -10 10z" />
<glyph unicode="&#xdd;" d="M574 707l-223 -405v-292q0 -10 -10 -10h-66q-10 0 -10 10v292l-223 405q-2 4 -2 5q0 5 7 5h81q6 0 11 -8l169 -312l169 312q5 8 11 8h81q8 0 8 -5q0 -1 -1 -2l-1.5 -1.5t-0.5 -1.5zM250 780l67 129q6 11 16 11h103q6 0 6 -6q0 -2 -2 -5l-101 -130q-7 -9 -18 -9h-66 q-6 0 -6 6q0 2 1 4z" />
<glyph unicode="&#xde;" d="M97 10v697q0 10 11 10h65q10 0 10 -10v-149h155q112 0 173.5 -53t61.5 -147t-61.5 -146.5t-173.5 -52.5h-155v-149q0 -10 -10 -10h-65q-11 0 -11 10zM183 476v-235h170q130 0 130 117q0 118 -130 118h-170z" />
<glyph unicode="&#xdf;" d="M400 -10q-66 0 -113 40.5t-48 101.5q0 10 10 10h59q9 0 10 -10q6 -30 27.5 -48t54.5 -18q40 0 63 25.5t23 74.5q0 35 -16.5 59.5t-40 38.5t-47.5 28t-40.5 40t-16.5 63q0 30 14 54t31 37.5t31 33.5t14 43q0 38 -28 63t-77 25q-51 0 -79 -32t-28 -93v-516q0 -10 -10 -10 h-60q-10 0 -10 10v428h-74q-10 0 -10 11v55q0 10 10 10h74v33q0 74 51.5 127t135.5 53q86 0 135.5 -44t49.5 -116q0 -29 -9.5 -52.5t-22.5 -38.5t-26.5 -27.5t-23 -26t-9.5 -27.5q0 -19 17 -35.5t41.5 -31.5t49 -33.5t41.5 -51t17 -75.5q0 -79 -44.5 -128.5t-125.5 -49.5z " />
<glyph unicode="&#xe0;" d="M173 361h-65q-8 0 -8 7q0 6 1 10q15 62 71 104t144 42q101 0 156.5 -50t55.5 -134v-242q0 -53 18 -88q1 -2 1 -5q0 -5 -8 -5h-80q-10 0 -10 10v53q-27 -34 -74.5 -53.5t-102.5 -19.5q-78 0 -134 42.5t-56 121.5q0 82 57.5 126t146.5 44q68 0 163 -22v26q0 60 -34.5 90.5 t-98.5 30.5q-47 0 -81 -20.5t-48 -57.5q-4 -10 -14 -10zM449 226q-91 22 -153 22q-56 0 -93 -24.5t-37 -69.5q0 -39 31.5 -63.5t84.5 -24.5q68 0 117.5 43t49.5 117zM316 707l68 -129q1 -2 1 -5q0 -6 -6 -6h-66q-10 0 -18 10l-101 130q-3 4 -3 5q0 5 7 5h103q9 0 15 -10z " />
<glyph unicode="&#xe1;" d="M173 361h-65q-8 0 -8 7q0 6 1 10q15 62 71 104t144 42q101 0 156.5 -50t55.5 -134v-242q0 -53 18 -88q1 -2 1 -5q0 -5 -8 -5h-80q-10 0 -10 10v53q-27 -34 -74.5 -53.5t-102.5 -19.5q-78 0 -134 42.5t-56 121.5q0 82 57.5 126t146.5 44q68 0 163 -22v26q0 60 -34.5 90.5 t-98.5 30.5q-47 0 -81 -20.5t-48 -57.5q-4 -10 -14 -10zM449 226q-91 22 -153 22q-56 0 -93 -24.5t-37 -69.5q0 -39 31.5 -63.5t84.5 -24.5q68 0 117.5 43t49.5 117zM246 578l67 129q6 10 16 10h103q6 0 6 -5q0 -2 -2 -5l-101 -130q-8 -10 -19 -10h-65q-6 0 -6 6q0 3 1 5z " />
<glyph unicode="&#xe2;" d="M173 361h-65q-8 0 -8 7q0 6 1 10q15 62 71 104t144 42q101 0 156.5 -50t55.5 -134v-242q0 -53 18 -88q1 -2 1 -5q0 -5 -8 -5h-80q-10 0 -10 10v53q-27 -34 -74.5 -53.5t-102.5 -19.5q-78 0 -134 42.5t-56 121.5q0 82 57.5 126t146.5 44q68 0 163 -22v26q0 60 -34.5 90.5 t-98.5 30.5q-47 0 -81 -20.5t-48 -57.5q-4 -10 -14 -10zM449 226q-91 22 -153 22q-56 0 -93 -24.5t-37 -69.5q0 -39 31.5 -63.5t84.5 -24.5q68 0 117.5 43t49.5 117zM360 709l104 -131q2 -3 2 -6q0 -5 -7 -5h-64q-8 0 -18 10l-61 61l-60 -61q-10 -10 -18 -10h-64q-7 0 -7 5 l2 6l103 131q7 8 16 8h57q8 0 15 -8z" />
<glyph unicode="&#xe3;" d="M173 361h-65q-8 0 -8 7q0 6 1 10q15 62 71 104t144 42q101 0 156.5 -50t55.5 -134v-242q0 -53 18 -88q1 -2 1 -5q0 -5 -8 -5h-80q-10 0 -10 10v53q-27 -34 -74.5 -53.5t-102.5 -19.5q-78 0 -134 42.5t-56 121.5q0 82 57.5 126t146.5 44q68 0 163 -22v26q0 60 -34.5 90.5 t-98.5 30.5q-47 0 -81 -20.5t-48 -57.5q-4 -10 -14 -10zM449 226q-91 22 -153 22q-56 0 -93 -24.5t-37 -69.5q0 -39 31.5 -63.5t84.5 -24.5q68 0 117.5 43t49.5 117zM152 678q48 39 105 39q43 0 74 -21t55 -21q23 0 63 25q4 2 7 2q6 0 10 -8l29 -43q2 -3 2 -6q0 -4 -5 -9 q-48 -39 -106 -39q-42 0 -73 21t-56 21q-21 0 -62 -26q-4 -2 -8 -2q-5 0 -10 9l-29 43q-2 3 -2 6t6 9z" />
<glyph unicode="&#xe4;" d="M173 361h-65q-8 0 -8 7q0 6 1 10q15 62 71 104t144 42q101 0 156.5 -50t55.5 -134v-242q0 -53 18 -88q1 -2 1 -5q0 -5 -8 -5h-80q-10 0 -10 10v53q-27 -34 -74.5 -53.5t-102.5 -19.5q-78 0 -134 42.5t-56 121.5q0 82 57.5 126t146.5 44q68 0 163 -22v26q0 60 -34.5 90.5 t-98.5 30.5q-47 0 -81 -20.5t-48 -57.5q-4 -10 -14 -10zM449 226q-91 22 -153 22q-56 0 -93 -24.5t-37 -69.5q0 -39 31.5 -63.5t84.5 -24.5q68 0 117.5 43t49.5 117zM181 621v86q0 10 10 10h87q10 0 10 -10v-86q0 -11 -10 -11h-87q-10 0 -10 11zM351 621v86q0 10 10 10h86 q11 0 11 -10v-86q0 -11 -11 -11h-86q-10 0 -10 11z" />
<glyph unicode="&#xe5;" d="M173 361h-65q-8 0 -8 7q0 6 1 10q15 62 71 104t144 42q101 0 156.5 -50t55.5 -134v-242q0 -53 18 -88q1 -2 1 -5q0 -5 -8 -5h-80q-10 0 -10 10v53q-27 -34 -74.5 -53.5t-102.5 -19.5q-78 0 -134 42.5t-56 121.5q0 82 57.5 126t146.5 44q68 0 163 -22v26q0 60 -34.5 90.5 t-98.5 30.5q-47 0 -81 -20.5t-48 -57.5q-4 -10 -14 -10zM449 226q-91 22 -153 22q-56 0 -93 -24.5t-37 -69.5q0 -39 31.5 -63.5t84.5 -24.5q68 0 117.5 43t49.5 117zM227 651q0 38 25 62t64 24t64.5 -24.5t25.5 -61.5t-25.5 -61.5t-64.5 -24.5t-64 24t-25 62zM276 651 q0 -19 11 -30t29 -11t29 11t11 30t-11 30t-29 11t-29 -11t-11 -30z" />
<glyph unicode="&#xe6;" d="M293 524h28q115 0 185.5 -78t70.5 -189v-14q0 -11 -11 -11h-220v-166q54 0 83 22t48 72q3 9 15 9h66q7 0 7 -7q0 -4 -2 -10q-51 -162 -242 -162h-39q-108 0 -171.5 38.5t-63.5 118.5t62 120.5t151 40.5h6v138q-40 -4 -70.5 -24t-42.5 -51q-4 -10 -15 -10h-65q-7 0 -7 7 q0 6 1 10q14 57 78 101.5t148 44.5zM131 147q0 -81 125 -81h10v166q-65 0 -100 -22t-35 -63zM486 308q-12 65 -49 103t-91 38v-141h140z" />
<glyph unicode="&#xe7;" d="M252 -105l-13 13q-2 2 -2 4q0 1 2 7l30 76q-91 17 -143.5 88.5t-52.5 173.5q0 117 68 192t182 75q89 0 147.5 -45.5t79.5 -125.5q1 -4 1 -10t-7 -6h-63q-12 0 -14 9q-14 49 -51.5 76t-92.5 27q-73 0 -119.5 -53t-46.5 -139t46.5 -138.5t119.5 -52.5q55 0 92.5 26.5 t51.5 75.5q2 9 14 9h63q7 0 7 -6t-1 -10q-21 -80 -78.5 -125t-145.5 -46l-28 -52q24 7 59 7q40 0 64 -20t24 -53q0 -85 -109 -85q-57 0 -100 10q-11 3 -11 10v30q0 10 11 10q2 0 34.5 -5.5t62.5 -5.5q45 0 45 32q0 14 -12 23t-33 9q-31 0 -67 -8q-4 -1 -7 -1t-7 4z" />
<glyph unicode="&#xe8;" d="M548 232h-390q6 -75 47 -120.5t113 -45.5q55 0 88.5 22.5t52.5 71.5q3 9 14 9h67q7 0 7 -7q0 -4 -2 -10q-55 -162 -227 -162q-116 0 -181 75t-65 192q0 115 68.5 191t177.5 76q112 0 176 -77.5t64 -189.5v-14q0 -11 -10 -11zM318 449q-57 0 -100.5 -38.5t-55.5 -102.5 h306q-12 63 -53.5 102t-96.5 39zM330 707l67 -129q1 -2 1 -5q0 -6 -6 -6h-65q-11 0 -19 10l-101 130q-2 3 -2 5q0 5 6 5h103q10 0 16 -10z" />
<glyph unicode="&#xe9;" d="M548 232h-390q6 -75 47 -120.5t113 -45.5q55 0 88.5 22.5t52.5 71.5q3 9 14 9h67q7 0 7 -7q0 -4 -2 -10q-55 -162 -227 -162q-116 0 -181 75t-65 192q0 115 68.5 191t177.5 76q112 0 176 -77.5t64 -189.5v-14q0 -11 -10 -11zM318 449q-57 0 -100.5 -38.5t-55.5 -102.5 h306q-12 63 -53.5 102t-96.5 39zM257 578l68 129q6 10 15 10h103q7 0 7 -5l-3 -5l-101 -130q-8 -10 -18 -10h-66q-6 0 -6 6q0 3 1 5z" />
<glyph unicode="&#xea;" d="M548 232h-390q6 -75 47 -120.5t113 -45.5q55 0 88.5 22.5t52.5 71.5q3 9 14 9h67q7 0 7 -7q0 -4 -2 -10q-55 -162 -227 -162q-116 0 -181 75t-65 192q0 115 68.5 191t177.5 76q112 0 176 -77.5t64 -189.5v-14q0 -11 -10 -11zM318 449q-57 0 -100.5 -38.5t-55.5 -102.5 h306q-12 63 -53.5 102t-96.5 39zM362 709l104 -131q2 -3 2 -6q0 -5 -7 -5h-64q-8 0 -18 10l-61 61l-60 -61q-10 -10 -18 -10h-64q-7 0 -7 5l2 6l103 131q7 8 16 8h57q8 0 15 -8z" />
<glyph unicode="&#xeb;" d="M548 232h-390q6 -75 47 -120.5t113 -45.5q55 0 88.5 22.5t52.5 71.5q3 9 14 9h67q7 0 7 -7q0 -4 -2 -10q-55 -162 -227 -162q-116 0 -181 75t-65 192q0 115 68.5 191t177.5 76q112 0 176 -77.5t64 -189.5v-14q0 -11 -10 -11zM318 449q-57 0 -100.5 -38.5t-55.5 -102.5 h306q-12 63 -53.5 102t-96.5 39zM180 621v86q0 10 10 10h86q11 0 11 -10v-86q0 -11 -11 -11h-86q-10 0 -10 11zM350 621v86q0 10 10 10h86q11 0 11 -10v-86q0 -11 -11 -11h-86q-10 0 -10 11z" />
<glyph unicode="&#xec;" d="M126 451v53q0 10 10 10h221q11 0 11 -10v-428h177q10 0 10 -10v-56q0 -10 -10 -10h-434q-11 0 -11 10v56q0 10 11 10h177v364h-152q-10 0 -10 11zM305 707l68 -129q1 -2 1 -5q0 -6 -6 -6h-66q-10 0 -18 10l-102 130q-2 3 -2 5q0 5 6 5h104q9 0 15 -10z" />
<glyph unicode="&#xed;" d="M126 451v53q0 10 10 10h221q11 0 11 -10v-428h177q10 0 10 -10v-56q0 -10 -10 -10h-434q-11 0 -11 10v56q0 10 11 10h177v364h-152q-10 0 -10 11zM252 578l67 129q6 10 16 10h103q6 0 6 -5q0 -2 -2 -5l-101 -130q-8 -10 -18 -10h-66q-6 0 -6 6q0 3 1 5z" />
<glyph unicode="&#xee;" d="M126 451v53q0 10 10 10h221q11 0 11 -10v-428h177q10 0 10 -10v-56q0 -10 -10 -10h-434q-11 0 -11 10v56q0 10 11 10h177v364h-152q-10 0 -10 11zM358 709l104 -131q2 -3 2 -6q0 -5 -7 -5h-64q-8 0 -18 10l-61 61l-60 -61q-10 -10 -18 -10h-64q-7 0 -7 5l2 6l103 131 q7 8 16 8h57q8 0 15 -8z" />
<glyph unicode="&#xef;" d="M126 451v53q0 10 10 10h221q11 0 11 -10v-428h177q10 0 10 -10v-56q0 -10 -10 -10h-434q-11 0 -11 10v56q0 10 11 10h177v364h-152q-10 0 -10 11zM171 621v86q0 10 10 10h86q11 0 11 -10v-86q0 -11 -11 -11h-86q-10 0 -10 11zM341 621v86q0 10 10 10h86q10 0 10 -10v-86 q0 -11 -10 -11h-86q-10 0 -10 11z" />
<glyph unicode="&#xf0;" d="M229 548l-18 48q-1 3 -1 5q0 5 7 8l53 21q-36 12 -102 19q-8 1 -8 13l9 53q1 7 14 7q111 -10 190 -54l95 38q4 1 6 1q4 0 7 -7l19 -48q1 -3 1 -5q0 -5 -7 -8l-58 -23q50 -51 78 -132t28 -174q0 -162 -68.5 -241t-177.5 -79q-105 0 -175.5 73.5t-70.5 193.5 q0 121 67.5 194t175.5 73q94 0 144 -60q-17 78 -86 121l-108 -42q-3 -1 -6 -1q-6 0 -8 6zM134 257q0 -89 41.5 -140t120.5 -51q73 0 117.5 51t44.5 140q0 87 -45 139.5t-117 52.5q-79 0 -120.5 -51.5t-41.5 -140.5z" />
<glyph unicode="&#xf1;" d="M106 10v494q0 10 11 10h59q10 0 10 -10v-62q29 35 75 58.5t99 23.5q83 0 126 -45.5t43 -124.5v-344q0 -10 -10 -10h-59q-10 0 -10 10v329q0 55 -25 82.5t-81 27.5q-67 0 -112.5 -49t-45.5 -130v-260q0 -10 -10 -10h-59q-11 0 -11 10zM148 678q48 39 106 39q42 0 73 -21 t56 -21q22 0 62 25q4 2 8 2q6 0 10 -8l29 -43q2 -3 2 -6t-6 -9q-48 -39 -105 -39q-43 0 -74 21t-55 21q-22 0 -63 -26q-4 -2 -7 -2q-5 0 -10 9l-29 43q-2 3 -2 6q0 4 5 9z" />
<glyph unicode="&#xf2;" d="M52 257q0 119 72 193t184 74t184 -74t72 -193t-72 -193t-184 -74t-184 74t-72 193zM136 257q0 -84 48 -137.5t124 -53.5t124 53.5t48 137.5t-48 138t-124 54t-124 -54t-48 -138zM312 707l68 -129q1 -2 1 -5q0 -6 -6 -6h-66q-10 0 -18 10l-102 130q-2 3 -2 5q0 5 7 5h103 q9 0 15 -10z" />
<glyph unicode="&#xf3;" d="M52 257q0 119 72 193t184 74t184 -74t72 -193t-72 -193t-184 -74t-184 74t-72 193zM136 257q0 -84 48 -137.5t124 -53.5t124 53.5t48 137.5t-48 138t-124 54t-124 -54t-48 -138zM245 578l67 129q6 10 16 10h103q6 0 6 -5q0 -2 -2 -5l-101 -130q-8 -10 -19 -10h-65 q-6 0 -6 6q0 3 1 5z" />
<glyph unicode="&#xf4;" d="M52 257q0 119 72 193t184 74t184 -74t72 -193t-72 -193t-184 -74t-184 74t-72 193zM136 257q0 -84 48 -137.5t124 -53.5t124 53.5t48 137.5t-48 138t-124 54t-124 -54t-48 -138zM352 709l104 -131q2 -3 2 -6q0 -5 -7 -5h-64q-8 0 -18 10l-61 61l-60 -61q-10 -10 -19 -10 h-63q-7 0 -7 5l2 6l103 131q7 8 16 8h57q8 0 15 -8z" />
<glyph unicode="&#xf5;" d="M52 257q0 119 72 193t184 74t184 -74t72 -193t-72 -193t-184 -74t-184 74t-72 193zM136 257q0 -84 48 -137.5t124 -53.5t124 53.5t48 137.5t-48 138t-124 54t-124 -54t-48 -138zM138 678q48 39 106 39q42 0 73 -21t56 -21q22 0 62 25q4 2 7 2q7 0 11 -8l28 -43q2 -3 2 -6 q0 -4 -5 -9q-48 -39 -105 -39q-43 0 -74 21t-55 21q-22 0 -63 -26q-4 -2 -7 -2q-5 0 -10 9l-29 43q-2 3 -2 6q0 4 5 9z" />
<glyph unicode="&#xf6;" d="M52 257q0 119 72 193t184 74t184 -74t72 -193t-72 -193t-184 -74t-184 74t-72 193zM136 257q0 -84 48 -137.5t124 -53.5t124 53.5t48 137.5t-48 138t-124 54t-124 -54t-48 -138zM170 621v86q0 10 10 10h86q10 0 10 -10v-86q0 -11 -10 -11h-86q-10 0 -10 11zM340 621v86 q0 10 10 10h86q10 0 10 -10v-86q0 -11 -10 -11h-86q-10 0 -10 11z" />
<glyph unicode="&#xf7;" d="M256 166h104q11 0 11 -10v-105q0 -10 -11 -10h-104q-10 0 -10 10v105q0 10 10 10zM256 524h104q11 0 11 -10v-104q0 -11 -11 -11h-104q-10 0 -10 11v104q0 10 10 10zM98 323h420q10 0 10 -11v-59q0 -10 -10 -10h-420q-10 0 -10 10v59q0 11 10 11z" />
<glyph unicode="&#xf8;" d="M52 257q0 119 72 193t184 74q60 0 113 -22l24 42q4 6 9 6q2 0 6 -2l27 -17q7 -4 7 -8q0 -2 -2 -6l-26 -43q98 -76 98 -217q0 -119 -72 -193t-184 -74q-59 0 -112 22l-25 -42q-4 -6 -8 -6q-2 0 -6 2l-28 17q-6 4 -6 8q0 2 2 6l26 43q-99 76 -99 217zM480 257q0 91 -55 146 l-189 -322q33 -15 72 -15q76 0 124 53.5t48 137.5zM136 257q0 -91 55 -146l190 322q-35 16 -73 16q-76 0 -124 -54t-48 -138z" />
<glyph unicode="&#xf9;" d="M513 504v-494q0 -10 -10 -10h-60q-10 0 -10 10v62q-29 -35 -75 -58.5t-99 -23.5q-83 0 -126 45.5t-43 124.5v344q0 10 10 10h60q10 0 10 -10v-329q0 -55 24.5 -82t80.5 -27q67 0 112.5 49t45.5 129v260q0 10 10 10h60q10 0 10 -10zM314 707l68 -129q1 -2 1 -5q0 -6 -6 -6 h-66q-10 0 -18 10l-102 130q-2 3 -2 5q0 5 7 5h103q9 0 15 -10z" />
<glyph unicode="&#xfa;" d="M513 504v-494q0 -10 -10 -10h-60q-10 0 -10 10v62q-29 -35 -75 -58.5t-99 -23.5q-83 0 -126 45.5t-43 124.5v344q0 10 10 10h60q10 0 10 -10v-329q0 -55 24.5 -82t80.5 -27q67 0 112.5 49t45.5 129v260q0 10 10 10h60q10 0 10 -10zM222 578l68 129q6 10 15 10h104 q6 0 6 -5q0 -2 -2 -5l-102 -130q-8 -10 -18 -10h-66q-6 0 -6 6q0 3 1 5z" />
<glyph unicode="&#xfb;" d="M513 504v-494q0 -10 -10 -10h-60q-10 0 -10 10v62q-29 -35 -75 -58.5t-99 -23.5q-83 0 -126 45.5t-43 124.5v344q0 10 10 10h60q10 0 10 -10v-329q0 -55 24.5 -82t80.5 -27q67 0 112.5 49t45.5 129v260q0 10 10 10h60q10 0 10 -10zM346 709l104 -131q2 -3 2 -6 q0 -5 -8 -5h-63q-9 0 -19 10l-60 61l-60 -61q-10 -10 -19 -10h-63q-7 0 -7 5l2 6l103 131q7 8 15 8h58q8 0 15 -8z" />
<glyph unicode="&#xfc;" d="M513 504v-494q0 -10 -10 -10h-60q-10 0 -10 10v62q-29 -35 -75 -58.5t-99 -23.5q-83 0 -126 45.5t-43 124.5v344q0 10 10 10h60q10 0 10 -10v-329q0 -55 24.5 -82t80.5 -27q67 0 112.5 49t45.5 129v260q0 10 10 10h60q10 0 10 -10zM163 621v86q0 10 10 10h86q10 0 10 -10 v-86q0 -11 -10 -11h-86q-10 0 -10 11zM333 621v86q0 10 10 10h86q10 0 10 -10v-86q0 -11 -10 -11h-86q-10 0 -10 11z" />
<glyph unicode="&#xfd;" d="M92 -180v55q0 10 8 10q4 0 25.5 -11t48.5 -11q36 0 56 28.5t51 106.5l2 6l-210 494q-2 6 -2 8q0 8 8 8h74q10 0 13 -10l161 -388l152 388q4 10 15 10h70q8 0 8 -7q0 -1 -2 -7l-220 -550q-35 -87 -74.5 -125t-97.5 -38q-39 0 -76 16q-10 6 -10 17zM262 578l68 129 q6 10 15 10h104q6 0 6 -5q0 -2 -2 -5l-102 -130q-8 -10 -18 -10h-66q-6 0 -6 6q0 3 1 5z" />
<glyph unicode="&#xfe;" d="M98 -193v900q0 10 11 10h59q10 0 10 -10v-251q28 28 73.5 48t89.5 20q102 0 164 -72.5t62 -194.5t-62 -194.5t-164 -72.5q-52 0 -95.5 18.5t-67.5 49.5v-251q0 -10 -10 -10h-59q-11 0 -11 10zM170 257q0 -83 42 -137t113 -54q73 0 115.5 54t42.5 137t-42.5 137.5 t-115.5 54.5q-71 0 -113 -54.5t-42 -137.5z" />
<glyph unicode="&#xff;" d="M92 -180v55q0 10 8 10q4 0 25.5 -11t48.5 -11q36 0 56 28.5t51 106.5l2 6l-210 494q-2 6 -2 8q0 8 8 8h74q10 0 13 -10l161 -388l152 388q4 10 15 10h70q8 0 8 -7q0 -1 -2 -7l-220 -550q-35 -87 -74.5 -125t-97.5 -38q-39 0 -76 16q-10 6 -10 17zM188 621v86q0 10 11 10 h86q10 0 10 -10v-86q0 -11 -10 -11h-86q-11 0 -11 11zM358 621v86q0 10 11 10h86q10 0 10 -10v-86q0 -11 -10 -11h-86q-11 0 -11 11z" />
<glyph unicode="&#x152;" d="M399 336v-254h200q10 0 10 -10v-62q0 -10 -10 -10h-277q-40 -10 -85 -10q-100 0 -160.5 97t-60.5 271t60.5 271.5t160.5 97.5q45 0 85 -10h270q10 0 10 -10v-62q0 -10 -10 -10h-193v-217h142q10 0 10 -10v-62q0 -10 -10 -10h-142zM241 72q37 0 72 17v539q-35 17 -72 17 q-62 0 -98.5 -72t-36.5 -215t36.5 -214.5t98.5 -71.5z" />
<glyph unicode="&#x153;" d="M308 -10q-112 0 -184 74t-72 193t72 193t184 74q114 0 187 -78.5t73 -188.5v-14q0 -11 -10 -11h-212v-166q46 5 74.5 27.5t48.5 66.5q3 9 14 9h67q7 0 7 -7q0 -4 -2 -10q-27 -79 -93 -120.5t-154 -41.5zM136 257q0 -71 35.5 -122t94.5 -65v374q-59 -13 -94.5 -64.5 t-35.5 -122.5zM478 308q-9 55 -43.5 91.5t-88.5 46.5v-138h132z" />
<glyph unicode="&#x178;" d="M574 707l-223 -405v-292q0 -10 -10 -10h-66q-10 0 -10 10v292l-223 405q-2 4 -2 5q0 5 7 5h81q6 0 11 -8l169 -312l169 312q5 8 11 8h81q8 0 8 -5q0 -1 -1 -2l-1.5 -1.5t-0.5 -1.5zM170 823v86q0 11 10 11h86q10 0 10 -11v-86q0 -10 -10 -10h-86q-10 0 -10 10zM340 823 v86q0 11 10 11h86q10 0 10 -11v-86q0 -10 -10 -10h-86q-10 0 -10 10z" />
<glyph unicode="&#x17f;" d="M301 549v-539q0 -10 -10 -10h-60q-10 0 -10 10v428h-128q-10 0 -10 11v55q0 10 10 10h128v45q0 68 44 118t122 50q79 0 139 -35q9 -6 9 -17v-57q0 -9 -8 -9q-3 0 -7 3q-59 39 -127 39q-43 0 -67.5 -27.5t-24.5 -74.5z" />
<glyph unicode="&#x2c6;" d="M352 709l104 -131q2 -3 2 -6q0 -5 -7 -5h-64q-8 0 -18 10l-61 61l-60 -61q-10 -10 -19 -10h-63q-7 0 -7 5l2 6l103 131q7 8 16 8h57q8 0 15 -8z" />
<glyph unicode="&#x2dc;" d="M138 678q48 39 106 39q42 0 73 -21t56 -21q22 0 62 25q4 2 7 2q7 0 11 -8l28 -43q2 -3 2 -6q0 -4 -5 -9q-48 -39 -105 -39q-43 0 -74 21t-55 21q-22 0 -63 -26q-4 -2 -7 -2q-5 0 -10 9l-29 43q-2 3 -2 6q0 4 5 9z" />
<glyph unicode="&#x2000;" horiz-adv-x="470" />
<glyph unicode="&#x2001;" horiz-adv-x="940" />
<glyph unicode="&#x2002;" horiz-adv-x="470" />
<glyph unicode="&#x2003;" horiz-adv-x="940" />
<glyph unicode="&#x2004;" horiz-adv-x="313" />
<glyph unicode="&#x2005;" horiz-adv-x="235" />
<glyph unicode="&#x2006;" horiz-adv-x="156" />
<glyph unicode="&#x2007;" horiz-adv-x="156" />
<glyph unicode="&#x2008;" horiz-adv-x="117" />
<glyph unicode="&#x2009;" horiz-adv-x="188" />
<glyph unicode="&#x200a;" horiz-adv-x="52" />
<glyph unicode="&#x2010;" d="M126 390h364q11 0 11 -10v-59q0 -11 -11 -11h-364q-10 0 -10 11v59q0 10 10 10z" />
<glyph unicode="&#x2011;" d="M126 390h364q11 0 11 -10v-59q0 -11 -11 -11h-364q-10 0 -10 11v59q0 10 10 10z" />
<glyph unicode="&#x2012;" d="M126 390h364q11 0 11 -10v-59q0 -11 -11 -11h-364q-10 0 -10 11v59q0 10 10 10z" />
<glyph unicode="&#x2013;" d="M98 390h420q10 0 10 -10v-59q0 -11 -10 -11h-420q-10 0 -10 11v59q0 10 10 10z" />
<glyph unicode="&#x2014;" d="M58 390h500q10 0 10 -10v-59q0 -11 -10 -11h-500q-10 0 -10 11v59q0 10 10 10z" />
<glyph unicode="&#x2018;" d="M360 659q-29 0 -38 -11t-9 -43v-19h47q11 0 11 -11v-104q0 -10 -11 -10h-104q-10 0 -10 10v151q0 44 21 69.5t58 25.5h35q11 0 11 -10v-37q0 -11 -11 -11z" />
<glyph unicode="&#x2019;" d="M256 518q29 0 38 11t9 43v20h-47q-10 0 -10 10v105q0 10 10 10h104q11 0 11 -10v-151q0 -44 -21 -69.5t-58 -25.5h-36q-10 0 -10 10v37q0 10 10 10z" />
<glyph unicode="&#x201a;" d="M256 -74q28 0 37.5 11.5t9.5 43.5v19h-47q-10 0 -10 10v105q0 10 10 10h104q11 0 11 -10v-151q0 -44 -21 -69.5t-58 -25.5h-36q-10 0 -10 10v37q0 10 10 10z" />
<glyph unicode="&#x201c;" d="M466 659q-29 0 -38 -11t-9 -43v-19h47q10 0 10 -11v-104q0 -10 -10 -10h-105q-10 0 -10 10v151q0 44 21 69.5t58 25.5h36q10 0 10 -10v-37q0 -11 -10 -11zM255 659q-29 0 -38 -11t-9 -43v-19h47q10 0 10 -11v-104q0 -10 -10 -10h-104q-11 0 -11 10v151q0 44 21 69.5 t58 25.5h36q10 0 10 -10v-37q0 -11 -10 -11z" />
<glyph unicode="&#x201d;" d="M151 518q29 0 38 11t9 43v20h-47q-11 0 -11 10v105q0 10 11 10h104q10 0 10 -10v-151q0 -44 -21 -69.5t-58 -25.5h-35q-11 0 -11 10v37q0 10 11 10zM361 518q29 0 38.5 11.5t9.5 42.5v20h-48q-10 0 -10 10v105q0 10 10 10h105q10 0 10 -10v-151q0 -44 -21 -69.5 t-58 -25.5h-36q-10 0 -10 10v37q0 10 10 10z" />
<glyph unicode="&#x201e;" d="M151 -74q28 0 37.5 11.5t9.5 43.5v19h-47q-11 0 -11 10v105q0 10 11 10h104q10 0 10 -10v-151q0 -44 -21 -69.5t-58 -25.5h-35q-11 0 -11 10v37q0 10 11 10zM361 -74q29 0 38.5 11.5t9.5 43.5v19h-48q-10 0 -10 10v105q0 10 10 10h105q10 0 10 -10v-151q0 -44 -21 -69.5 t-58 -25.5h-36q-10 0 -10 10v37q0 10 10 10z" />
<glyph unicode="&#x2022;" d="M178 334q0 54 38 92t92 38t92 -38t38 -92t-38 -92t-92 -38t-92 38t-38 92z" />
<glyph unicode="&#x2026;" d="M49 125h105q10 0 10 -10v-105q0 -10 -10 -10h-105q-10 0 -10 10v105q0 10 10 10zM256 125h104q11 0 11 -10v-105q0 -10 -11 -10h-104q-10 0 -10 10v105q0 10 10 10zM463 125h104q11 0 11 -10v-105q0 -10 -11 -10h-104q-10 0 -10 10v105q0 10 10 10z" />
<glyph unicode="&#x202f;" horiz-adv-x="188" />
<glyph unicode="&#x2030;" d="M589 132q0 -63 -39.5 -102.5t-100.5 -39.5q-72 0 -111 51q-40 -51 -111 -51q-61 0 -100.5 39.5t-39.5 102.5t39.5 102.5t100.5 39.5q70 0 111 -51q40 51 111 51q61 0 100.5 -39.5t39.5 -102.5zM327 585q0 -63 -40 -103t-101 -40t-100.5 40t-39.5 103t39.5 102.5 t100.5 39.5t101 -39.5t40 -102.5zM26 319l536 212q3 1 5 1q7 0 10 -7l12 -33q1 -3 1 -6q0 -5 -7 -8l-537 -212q-3 -1 -5 -1q-6 0 -9 7l-13 34q-1 3 -1 5q0 5 8 8zM529 132q0 40 -22 63.5t-58 23.5t-58.5 -23.5t-22.5 -63.5t22.5 -63.5t58.5 -23.5t58 23.5t22 63.5zM308 132 q0 40 -22.5 63.5t-58.5 23.5t-58.5 -23.5t-22.5 -63.5t22.5 -63.5t58.5 -23.5t58.5 23.5t22.5 63.5zM267 585q0 40 -22.5 63.5t-58.5 23.5t-58.5 -23.5t-22.5 -63.5t22.5 -63.5t58.5 -23.5t58.5 23.5t22.5 63.5z" />
<glyph unicode="&#x2039;" d="M419 130v-86q0 -7 -6 -7q-3 0 -6 3l-221 193q-10 9 -10 19v57q0 10 10 19l221 193q3 3 6 3q6 0 6 -7v-86q0 -10 -7 -16l-154 -134l154 -135q7 -6 7 -16z" />
<glyph unicode="&#x203a;" d="M198 44v86q0 10 7 16l153 135l-153 134q-7 6 -7 16v86q0 7 6 7q3 0 6 -3l220 -193q10 -9 10 -19v-57q0 -10 -10 -19l-220 -193q-3 -3 -6 -3q-6 0 -6 7z" />
<glyph unicode="&#x2044;" d="M87 143l401 416q4 4 8 4t8 -4l25 -25q5 -5 5 -8q0 -2 -5 -7l-401 -416q-4 -4 -7 -4q-4 0 -8 4l-26 26q-4 4 -4 7t4 7z" />
<glyph unicode="&#x205f;" horiz-adv-x="235" />
<glyph unicode="&#x2070;" d="M164 525q0 91 40.5 144.5t103.5 53.5t104 -53.5t41 -144.5t-41 -144t-104 -53t-103.5 53t-40.5 144zM223 525q0 -77 28 -115l68 257q-3 1 -11 1q-85 0 -85 -143zM393 525q0 79 -27 116l-69 -257q3 -1 11 -1q85 0 85 142z" />
<glyph unicode="&#x2074;" d="M327 344v63h-154q-10 0 -10 10v28q0 7 4 13l162 252q4 7 11 7h34q10 0 10 -10v-245h38q10 0 10 -10v-35q0 -10 -10 -10h-38v-63q0 -10 -10 -10h-37q-10 0 -10 10zM327 605l-89 -143h89v143z" />
<glyph unicode="&#x2075;" d="M178 517l27 192q1 8 10 8h185q11 0 11 -10v-35q0 -10 -11 -10h-146l-15 -98q33 24 74 24q56 0 88 -34t32 -97q0 -61 -36.5 -95t-92.5 -34q-54 0 -91.5 31t-37.5 80q0 11 10 11h40q9 0 11 -11q4 -26 22 -41t46 -15q34 0 52 20t18 53q0 34 -18 54.5t-51 20.5q-35 0 -63 -28 q-4 -4 -6 -4q-3 0 -8 1l-45 9q-5 1 -5 8z" />
<glyph unicode="&#x2076;" d="M195 508q0 106 38 160.5t99 54.5q46 0 77.5 -27t37.5 -69q0 -5 -6 -5h-48q-3 0 -5 5q-16 41 -56 41q-66 0 -72 -118q28 31 77 31q54 0 89 -34.5t35 -91.5q0 -58 -38 -92.5t-91 -34.5q-57 0 -97 44t-40 136zM263 455q0 -33 18.5 -52.5t51.5 -19.5t51 19.5t18 52.5 q0 32 -18 51t-51 19t-51.5 -19t-18.5 -51z" />
<glyph unicode="&#x2077;" d="M189 672v35q0 10 11 10h239q11 0 11 -10v-17q0 -4 -5 -16l-129 -331q-3 -9 -12 -9h-41q-8 0 -8 6q0 3 2 7l122 315h-179q-11 0 -11 10z" />
<glyph unicode="&#x2078;" d="M190 622q0 47 34.5 74t83.5 27t83.5 -27t34.5 -74q0 -57 -45 -85q57 -28 57 -95q0 -52 -36.5 -83t-93.5 -31t-93.5 31t-36.5 83q0 67 58 95q-46 29 -46 85zM238 442q0 -27 19.5 -43t50.5 -16t51 16t20 43t-20 44.5t-51 17.5t-50.5 -17.5t-19.5 -44.5zM245 616 q0 -25 18 -41t45 -16t45.5 16t18.5 41t-19 40.5t-45 15.5t-44.5 -15.5t-18.5 -40.5z" />
<glyph unicode="&#x2079;" d="M437 543q0 -106 -38 -160.5t-99 -54.5q-46 0 -78 27t-38 69q0 5 6 5h49q3 0 5 -5q16 -41 56 -41q66 0 72 118q-28 -31 -77 -31q-54 0 -89 34.5t-35 91.5q0 58 38 92.5t91 34.5q57 0 97 -44t40 -136zM369 596q0 33 -18.5 52.5t-51.5 19.5t-51.5 -19.5t-18.5 -52.5 q0 -32 18.5 -51.5t51.5 -19.5t51.5 19.5t18.5 51.5z" />
<glyph unicode="&#x2080;" d="M164 -11q0 91 40.5 144t103.5 53t104 -53t41 -144t-41 -144.5t-104 -53.5t-103.5 53.5t-40.5 144.5zM223 -11q0 -78 28 -116l68 257q-3 1 -11 1q-85 0 -85 -142zM393 -11q0 78 -27 115l-69 -257q3 -1 11 -1q85 0 85 143z" />
<glyph unicode="&#x2081;" d="M190 -193v35q0 11 11 11h92v249l-79 -42q-6 -3 -10 -3q-8 0 -8 9v48q0 6 7 10l98 52q8 4 15 4h24q10 0 10 -10v-317h92q11 0 11 -11v-35q0 -10 -11 -10h-241q-11 0 -11 10z" />
<glyph unicode="&#x2082;" d="M185 -193v31q0 10 6 15l156 135q41 35 41 78q0 28 -16.5 46.5t-46.5 18.5q-32 0 -51 -19t-23 -47q-2 -11 -10 -11h-40q-11 0 -11 11q2 51 39 86t96 35q57 0 89.5 -34t32.5 -85q0 -68 -57 -116l-115 -98h178q10 0 10 -11v-35q0 -10 -10 -10h-257q-11 0 -11 10z" />
<glyph unicode="&#x2083;" d="M259 -19v34q0 11 10 11h21q67 0 67 59q0 22 -16.5 36t-42.5 14q-53 0 -62 -54q-1 -8 -11 -8h-36q-10 0 -10 9q2 45 35 74.5t84 29.5q52 0 84.5 -28.5t32.5 -66.5q0 -58 -46 -86q62 -26 62 -96q0 -53 -38 -85.5t-94 -32.5q-54 0 -94 33t-41 85q0 10 10 10h39q9 0 10 -10 q10 -63 75 -63q31 0 52.5 16t21.5 47q0 29 -20 45t-54 16h-29q-10 0 -10 11z" />
<glyph unicode="&#x2084;" d="M327 -193v63h-154q-10 0 -10 10v29q0 6 4 12l162 252q4 7 11 7h34q10 0 10 -10v-245h38q10 0 10 -10v-35q0 -10 -10 -10h-38v-63q0 -10 -10 -10h-37q-10 0 -10 10zM327 69l-89 -144h89v144z" />
<glyph unicode="&#x2085;" d="M178 -19l27 191q1 8 10 8h185q11 0 11 -10v-35q0 -10 -11 -10h-146l-15 -97q31 23 74 23q56 0 88 -34t32 -97q0 -61 -36.5 -95t-92.5 -34q-54 0 -91.5 31.5t-37.5 80.5q0 10 10 10h40q10 0 11 -10q4 -26 22 -41.5t46 -15.5q34 0 52 20t18 53q0 35 -18 55.5t-51 20.5 q-34 0 -63 -29q-4 -4 -6 -4q-3 0 -8 1l-45 9q-5 1 -5 9z" />
<glyph unicode="&#x2086;" d="M195 -29q0 106 38 160.5t99 54.5q46 0 77.5 -27t37.5 -69q0 -5 -6 -5h-48q-3 0 -5 5q-16 41 -56 41q-66 0 -72 -118q28 31 77 31q54 0 89 -34.5t35 -91.5q0 -58 -38 -92.5t-91 -34.5q-57 0 -97 44t-40 136zM263 -82q0 -33 18.5 -52.5t51.5 -19.5t51 19.5t18 52.5 q0 32 -18.5 51.5t-50.5 19.5q-33 0 -51.5 -19.5t-18.5 -51.5z" />
<glyph unicode="&#x2087;" d="M189 135v35q0 10 11 10h239q11 0 11 -10v-16q0 -5 -5 -17l-129 -331q-3 -9 -12 -9h-41q-8 0 -8 6q0 4 2 8l122 314h-179q-11 0 -11 10z" />
<glyph unicode="&#x2088;" d="M190 85q0 47 34.5 74t83.5 27t83.5 -27t34.5 -74q0 -57 -45 -85q57 -28 57 -94q0 -52 -36.5 -83.5t-93.5 -31.5t-93.5 31.5t-36.5 83.5q0 66 58 94q-46 29 -46 85zM238 -94q0 -27 19.5 -43.5t50.5 -16.5t51 16.5t20 43.5t-20 44t-51 17t-50.5 -17t-19.5 -44zM245 80 q0 -25 18 -41t45 -16t45.5 16t18.5 41t-19 40t-45 15t-44.5 -15t-18.5 -40z" />
<glyph unicode="&#x2089;" d="M437 6q0 -106 -38 -160.5t-99 -54.5q-46 0 -78 27t-38 69q0 5 6 5h49q3 0 5 -5q16 -41 56 -41q66 0 72 118q-28 -31 -77 -31q-54 0 -89 34.5t-35 91.5q0 58 38 92.5t91 34.5q57 0 97 -44t40 -136zM369 59q0 33 -18.5 52.5t-51.5 19.5t-51.5 -19.5t-18.5 -52.5 q0 -32 18.5 -51t51.5 -19t51.5 19t18.5 51z" />
<glyph unicode="&#x20ac;" d="M49 493h61q25 113 88 173.5t152 60.5q104 0 169 -67t73 -177q0 -10 -10 -10h-64q-9 0 -10 10q-10 82 -51 123t-107 41q-117 0 -154 -154h202q11 0 11 -11v-59q0 -10 -11 -10h-214q-2 -24 -2 -55q0 -30 2 -54h214q11 0 11 -10v-60q0 -10 -11 -10h-202q37 -154 154 -154 q67 0 107.5 40.5t50.5 122.5q2 11 10 11h64q10 0 10 -11q-8 -109 -73 -176t-169 -67q-89 0 -152 60.5t-88 173.5h-61q-10 0 -10 10v60q0 10 10 10h49q-2 17 -2 54q0 38 2 55h-49q-10 0 -10 10v59q0 11 10 11z" />
<glyph unicode="&#x2122;" d="M11 672v35q0 10 11 10h219q10 0 10 -10v-35q0 -10 -10 -10h-81v-318q0 -10 -10 -10h-37q-11 0 -11 10v318h-80q-11 0 -11 10zM570 707v-363q0 -10 -10 -10h-37q-10 0 -10 10v291l-59 -156q-3 -6 -9 -6h-30q-5 0 -8 6l-60 156v-291q0 -10 -10 -10h-37q-10 0 -10 10v363 q0 10 10 10h62q10 0 13 -8l55 -154l55 154q3 8 13 8h62q10 0 10 -10z" />
<glyph unicode="&#x2153;" d="M53 344v35q0 10 10 10h93v250l-79 -42q-6 -3 -10 -3q-9 0 -9 8v48q0 6 8 10l98 53q8 4 15 4h24q10 0 10 -10v-318h92q10 0 10 -10v-35q0 -10 -10 -10h-242q-10 0 -10 10zM423 -19v34q0 11 10 11h21q67 0 67 59q0 22 -16.5 36t-42.5 14q-54 0 -63 -54q-1 -8 -10 -8h-36 q-10 0 -10 9q2 45 35 74.5t84 29.5q52 0 84.5 -28.5t32.5 -66.5q0 -58 -47 -86q63 -26 63 -96q0 -53 -38 -85.5t-94 -32.5q-54 0 -94 33t-41 85q0 10 10 10h39q9 0 10 -10q10 -63 75 -63q31 0 52.5 16t21.5 47q0 29 -20 45t-54 16h-29q-10 0 -10 11zM118 72l401 415q5 5 7 5 q4 0 9 -5l25 -25q4 -4 4 -7q0 -4 -4 -8l-401 -415q-4 -4 -7 -4q-5 0 -9 4l-25 25q-4 4 -4 8q0 3 4 7z" />
<glyph unicode="&#x2154;" d="M118 72l401 415q5 5 7 5q4 0 9 -5l25 -25q4 -4 4 -7q0 -4 -4 -8l-401 -415q-4 -4 -7 -4q-5 0 -9 4l-25 25q-4 4 -4 8q0 3 4 7zM22 344v31q0 9 6 14l155 135q41 35 41 78q0 28 -16.5 47t-46.5 19q-32 0 -51 -19t-23 -48q-1 -10 -10 -10h-40q-10 0 -10 10q2 52 38.5 87 t95.5 35q57 0 90 -34.5t33 -85.5q0 -67 -58 -116l-114 -98h177q10 0 10 -10v-35q0 -10 -10 -10h-257q-10 0 -10 10zM423 -19v34q0 11 10 11h21q67 0 67 59q0 22 -16.5 36t-42.5 14q-54 0 -63 -54q-1 -8 -10 -8h-36q-10 0 -10 9q2 45 35 74.5t84 29.5q52 0 84.5 -28.5 t32.5 -66.5q0 -58 -47 -86q63 -26 63 -96q0 -53 -38 -85.5t-94 -32.5q-54 0 -94 33t-41 85q0 10 10 10h39q9 0 10 -10q10 -63 75 -63q31 0 52.5 16t21.5 47q0 29 -20 45t-54 16h-29q-10 0 -10 11z" />
<glyph unicode="&#x215b;" d="M53 344v35q0 10 10 10h93v250l-79 -42q-6 -3 -10 -3q-9 0 -9 8v48q0 6 8 10l98 53q8 4 15 4h24q10 0 10 -10v-318h92q10 0 10 -10v-35q0 -10 -10 -10h-242q-10 0 -10 10zM112 72l401 415q5 5 7 5q3 0 8 -5l26 -25q4 -4 4 -7q0 -4 -4 -8l-401 -415q-4 -4 -8 -4t-8 4 l-25 25q-4 4 -4 8q0 3 4 7zM324 85q0 47 34 74t83 27t83.5 -27t34.5 -74q0 -57 -45 -85q57 -28 57 -94q0 -52 -36.5 -83.5t-93.5 -31.5t-93.5 31.5t-36.5 83.5q0 66 58 94q-45 28 -45 85zM371 -94q0 -27 19.5 -43.5t50.5 -16.5t51 16.5t20 43.5t-20 44t-51 17t-50.5 -17 t-19.5 -44zM378 80q0 -25 18 -41t45 -16t45.5 16t18.5 41t-19 40t-45 15t-44.5 -15t-18.5 -40z" />
<glyph unicode="&#x215c;" d="M324 85q0 47 34 74t83 27t83.5 -27t34.5 -74q0 -57 -45 -85q57 -28 57 -94q0 -52 -36.5 -83.5t-93.5 -31.5t-93.5 31.5t-36.5 83.5q0 66 58 94q-45 28 -45 85zM371 -94q0 -27 19.5 -43.5t50.5 -16.5t51 16.5t20 43.5t-20 44t-51 17t-50.5 -17t-19.5 -44zM378 80 q0 -25 18 -41t45 -16t45.5 16t18.5 41t-19 40t-45 15t-44.5 -15t-18.5 -40zM112 72l401 415q5 5 7 5q3 0 8 -5l26 -25q4 -4 4 -7q0 -4 -4 -8l-401 -415q-4 -4 -8 -4t-8 4l-25 25q-4 4 -4 8q0 3 4 7zM155 517v35q0 10 10 10h20q68 0 68 60q0 22 -16.5 36t-42.5 14 q-24 0 -41.5 -14t-21.5 -41q-1 -8 -10 -8h-36q-10 0 -10 9q2 45 35 75t84 30q52 0 84 -28.5t32 -66.5q0 -58 -46 -86q27 -11 45 -35.5t18 -61.5q0 -53 -38 -85t-94 -32q-54 0 -94.5 33t-41.5 84q0 11 11 11h39q8 0 10 -11q10 -62 75 -62q31 0 52 15.5t21 46.5q0 30 -19.5 46 t-53.5 16h-29q-10 0 -10 10z" />
<glyph unicode="&#x215d;" d="M324 85q0 47 34 74t83 27t83.5 -27t34.5 -74q0 -57 -45 -85q57 -28 57 -94q0 -52 -36.5 -83.5t-93.5 -31.5t-93.5 31.5t-36.5 83.5q0 66 58 94q-45 28 -45 85zM371 -94q0 -27 19.5 -43.5t50.5 -16.5t51 16.5t20 43.5t-20 44t-51 17t-50.5 -17t-19.5 -44zM378 80 q0 -25 18 -41t45 -16t45.5 16t18.5 41t-19 40t-45 15t-44.5 -15t-18.5 -40zM112 72l401 415q5 5 7 5q3 0 8 -5l26 -25q4 -4 4 -7q0 -4 -4 -8l-401 -415q-4 -4 -8 -4t-8 4l-25 25q-4 4 -4 8q0 3 4 7zM68 517l26 192q1 8 10 8h186q10 0 10 -10v-35q0 -10 -10 -10h-147l-15 -98 q33 24 75 24q56 0 88 -34t32 -97q0 -61 -36.5 -95t-92.5 -34q-54 0 -91.5 31t-37.5 80q0 11 10 11h40q8 0 10 -11q4 -26 22.5 -41t46.5 -15q34 0 51.5 20t17.5 53q0 35 -17.5 55t-50.5 20q-36 0 -64 -28q-4 -4 -6 -4t-7 1l-45 9q-5 1 -5 8z" />
<glyph unicode="&#x215e;" d="M324 85q0 47 34 74t83 27t83.5 -27t34.5 -74q0 -57 -45 -85q57 -28 57 -94q0 -52 -36.5 -83.5t-93.5 -31.5t-93.5 31.5t-36.5 83.5q0 66 58 94q-45 28 -45 85zM371 -94q0 -27 19.5 -43.5t50.5 -16.5t51 16.5t20 43.5t-20 44t-51 17t-50.5 -17t-19.5 -44zM378 80 q0 -25 18 -41t45 -16t45.5 16t18.5 41t-19 40t-45 15t-44.5 -15t-18.5 -40zM71 72l401 415q5 5 7 5q3 0 8 -5l26 -25q4 -4 4 -7q0 -4 -4 -8l-401 -415q-4 -4 -8 -4t-8 4l-25 25q-4 4 -4 8q0 3 4 7zM67 672v35q0 10 10 10h239q11 0 11 -10v-17q0 -7 -4 -16l-129 -331 q-3 -9 -13 -9h-41q-8 0 -8 6q0 3 2 7l122 315h-179q-10 0 -10 10z" />
<glyph unicode="&#x25fc;" horiz-adv-x="512" d="M0 512h512v-512h-512v512z" />
<glyph unicode="&#xfb01;" d="M376 438h-174v-428q0 -10 -11 -10h-59q-10 0 -10 10v428h-80q-10 0 -10 11v55q0 10 10 10h80v45q0 73 39.5 120.5t112.5 47.5q60 0 106 -20q8 -4 8 -18v-54q0 -10 -7 -10q-3 0 -7 2q-53 24 -93 24q-79 0 -79 -92v-45h174q10 0 10 -10v-55q0 -11 -10 -11zM480 10v494 q0 10 10 10h60q10 0 10 -10v-494q0 -10 -10 -10h-60q-10 0 -10 10zM459 608v88q0 11 10 11h88q10 0 10 -11v-88q0 -10 -10 -10h-88q-10 0 -10 10z" />
<glyph unicode="&#xfb02;" d="M480 10v697q0 10 10 10h60q10 0 10 -10v-697q0 -10 -10 -10h-60q-10 0 -10 10zM376 438h-174v-428q0 -10 -11 -10h-59q-10 0 -10 10v428h-80q-10 0 -10 11v55q0 10 10 10h80v45q0 73 39.5 120.5t112.5 47.5q60 0 106 -20q8 -4 8 -18v-54q0 -10 -7 -10q-3 0 -7 2 q-53 24 -93 24q-79 0 -79 -92v-45h174q10 0 10 -10v-55q0 -11 -10 -11z" />
<glyph d="M196 202q0 9 -1 14h-71q-10 0 -10 10v54q0 10 10 10h44q-13 30 -13 60q0 82 50 128t129 46q83 0 132 -42.5t54 -116.5q0 -11 -10 -11h-59q-9 0 -11 11q-15 84 -106 84q-47 0 -72 -27.5t-25 -71.5q0 -36 13 -60h175q10 0 10 -10v-54q0 -10 -10 -10h-150q3 -8 3 -18 q0 -43 -14.5 -69t-46.5 -53h299q10 0 10 -10v-56q0 -10 -10 -10h-378q-10 0 -10 10v48q0 13 8 21q34 34 47 60.5t13 62.5z" />
<glyph d="M529 151q0 -68 -48.5 -109.5t-124.5 -49.5v-84q0 -10 -10 -10h-59q-11 0 -11 10v85q-77 11 -127.5 56t-50.5 108q0 10 11 10h65q9 0 10 -10q4 -34 29 -57t63 -31v161q-87 15 -126 49.5t-39 98.5q0 62 46 99t119 45v82q0 10 11 10h59q10 0 10 -10v-83q67 -10 108.5 -48 t47.5 -96q0 -10 -10 -10h-58q-7 0 -10 10q-16 51 -78 66v-152q81 -16 127 -47t46 -93zM445 140q0 29 -21.5 46.5t-67.5 28.5v-147q89 10 89 72zM190 380q0 -29 20 -45.5t66 -28.5v140q-86 -10 -86 -66z" />
<glyph d="M131 312h92l-126 192q-2 3 -2 5q0 5 8 5h81q7 0 12 -8l112 -184l113 184q5 8 11 8h81q8 0 8 -5q0 -2 -2 -5l-126 -192h92q11 0 11 -10v-55q0 -10 -11 -10h-137v-73h117q10 0 10 -10v-56q0 -10 -10 -10h-117v-78q0 -10 -10 -10h-59q-11 0 -11 10v78h-116q-11 0 -11 10v56 q0 10 11 10h116v73h-137q-10 0 -10 10v55q0 10 10 10z" />
<glyph d="M269 -91v84q-95 13 -151 86t-56 178q0 104 55.5 176.5t151.5 86.5v85q0 10 11 10h65q10 0 10 -10v-84q71 -10 119 -54t66 -114q1 -4 1 -10t-7 -6h-63q-12 0 -14 9q-23 78 -102 97v-372q79 19 102 97q2 9 14 9h63q7 0 7 -6t-1 -10q-18 -70 -66 -114t-119 -54v-84 q0 -10 -10 -10h-65q-11 0 -11 10zM146 257q0 -72 33.5 -122t89.5 -64v371q-56 -14 -89.5 -64t-33.5 -121z" />
<glyph d="M485 378l-120 -120l120 -120q4 -4 4 -7q0 -4 -4 -8l-42 -42q-4 -4 -8 -4q-3 0 -7 4l-120 121l-120 -121q-4 -4 -7 -4q-4 0 -8 4l-42 42q-4 4 -4 8q0 3 4 7l121 120l-121 120q-4 4 -4 7q0 4 4 8l42 42q4 4 8 4q3 0 7 -4l120 -121l120 121q4 4 7 4q4 0 8 -4l42 -42 q4 -4 4 -8q0 -3 -4 -7z" />
<glyph d="M348 468v-170h170q10 0 10 -10v-60q0 -10 -10 -10h-170v-170q0 -10 -10 -10h-59q-11 0 -11 10v170h-170q-10 0 -10 10v60q0 10 10 10h170v170q0 10 11 10h59q10 0 10 -10z" />
<glyph d="M256 125h104q11 0 11 -10v-105q0 -10 -11 -10h-104q-10 0 -10 10v105q0 10 10 10zM256 483h104q11 0 11 -10v-104q0 -11 -11 -11h-104q-10 0 -10 11v104q0 10 10 10zM98 282h420q10 0 10 -11v-59q0 -10 -10 -10h-420q-10 0 -10 10v59q0 11 10 11z" />
<glyph d="M74 226h46q-1 10 -1 31t1 31h-46q-11 0 -11 10v55q0 11 11 11h60q24 76 82 118t130 42q85 0 143 -48.5t70 -125.5q0 -10 -10 -10h-61q-9 0 -10 10q-8 44 -43.5 71.5t-88.5 27.5q-44 0 -79.5 -22t-52.5 -63h136q10 0 10 -11v-55q0 -10 -10 -10h-150q-1 -10 -1 -31t1 -31 h150q10 0 10 -10v-55q0 -10 -10 -10h-136q17 -41 52.5 -63t79.5 -22q53 0 88.5 27t43.5 71q1 10 10 10h61q10 0 10 -10q-12 -77 -70 -125.5t-143 -48.5q-72 0 -130 42t-82 119h-60q-11 0 -11 10v55q0 10 11 10z" />
<glyph d="M98 392h420q10 0 10 -10v-59q0 -11 -10 -11h-420q-10 0 -10 11v59q0 10 10 10zM98 184h420q10 0 10 -10v-59q0 -11 -10 -11h-420q-10 0 -10 11v59q0 10 10 10z" />
<glyph d="M47 257q0 118 75.5 192.5t185.5 74.5t185.5 -74.5t75.5 -192.5t-75.5 -192.5t-185.5 -74.5t-185.5 74.5t-75.5 192.5zM131 257q0 -106 76 -161l140 349q-24 4 -39 4q-78 0 -127.5 -54.5t-49.5 -137.5zM485 257q0 107 -75 161l-141 -349q18 -3 39 -3q78 0 127.5 54 t49.5 137z" />
<glyph d="M115 10v56q0 10 10 10h161v328l-143 -75q-6 -3 -11 -3q-7 0 -7 9v66q0 11 11 16l169 92q8 5 16 5h34q11 0 11 -10v-428h160q11 0 11 -10v-56q0 -10 -11 -10h-401q-10 0 -10 10z" />
<glyph d="M122 10v43q0 15 11 24l218 173q33 27 48.5 50.5t15.5 57.5q0 42 -28.5 66.5t-71.5 24.5q-44 0 -72.5 -29t-31.5 -69q-1 -15 -13 -15h-55q-12 0 -12 15q3 79 56.5 126t127.5 47q78 0 129 -44.5t51 -111.5q0 -97 -84 -165l-161 -127h249q10 0 10 -10v-56q0 -10 -10 -10 h-367q-10 0 -10 10z" />
<glyph d="M234 185v56q0 10 11 10h48q55 0 86.5 25.5t31.5 78.5q0 43 -31.5 68.5t-78.5 25.5q-48 0 -81 -27t-37 -75q-1 -11 -12 -11h-53q-13 0 -13 15q3 79 59.5 126t140.5 47q82 0 133.5 -44.5t51.5 -114.5q0 -101 -87 -143q55 -21 83.5 -60t28.5 -111q0 -85 -59 -138.5 t-150 -53.5q-90 0 -152 52t-66 140q0 16 12 16h55q12 0 13 -13q6 -58 43 -89t95 -31q60 0 94.5 30.5t34.5 88.5q0 57 -35 89.5t-98 32.5h-57q-11 3 -11 10z" />
<glyph d="M356 -131v131h-280q-10 0 -10 10v30q0 12 8 23l300 443q5 8 13 8h39q10 0 10 -10v-428h95q11 0 11 -10v-56q0 -10 -11 -10h-95v-131q0 -10 -11 -10h-58q-11 0 -11 10zM356 345l-184 -269h184v269z" />
<glyph d="M104 161l40 343q1 10 11 10h332q11 0 11 -10v-55q0 -11 -11 -11h-275l-22 -189q23 23 63 36t74 13q90 0 146.5 -55.5t56.5 -157.5t-58.5 -164t-155.5 -62q-90 0 -154 52.5t-66 137.5q0 16 13 16h56q10 0 13 -16q14 -115 138 -115q62 0 98.5 41t36.5 108t-38 103t-97 36 q-77 0 -128 -62q-7 -9 -17 -9h-56q-11 0 -11 10z" />
<glyph d="M95 289q0 176 63 271t173 95q77 0 132.5 -47t62.5 -126q0 -10 -11 -10h-54q-8 0 -11 10q-25 98 -124 98q-60 0 -99 -50.5t-46 -158.5q63 59 158 59q89 0 147 -58t58 -163q0 -101 -62.5 -160t-156.5 -59q-101 0 -165.5 71.5t-64.5 227.5zM185 209q0 -64 38.5 -103.5 t99.5 -39.5q60 0 98.5 39.5t38.5 103.5t-38.5 104.5t-98.5 40.5t-99 -40.5t-39 -104.5z" />
<glyph d="M96 449v55q0 10 10 10h410q10 0 10 -10v-35q0 -9 -5 -22l-223 -581q-2 -7 -11 -7h-60q-10 0 -10 8q0 3 1 5l218 566h-330q-10 0 -10 11z" />
<glyph d="M122 481q0 81 54.5 127.5t131.5 46.5t132 -46.5t55 -127.5q0 -85 -77 -137q97 -55 97 -162q0 -88 -59 -140t-148 -52t-148 52t-59 140q0 106 98 162q-77 52 -77 137zM185 182q0 -56 34.5 -86t88.5 -30t88.5 30t34.5 86q0 55 -34.5 86t-88.5 31t-88.5 -31t-34.5 -86z M202 477q0 -49 30.5 -75.5t75.5 -26.5t76 26.5t31 75.5q0 50 -32 76.5t-75 26.5t-74.5 -26.5t-31.5 -76.5z" />
<glyph d="M528 225q0 -177 -62.5 -271.5t-172.5 -94.5q-77 0 -133 47t-63 126q0 10 12 10h54q8 0 11 -10q25 -98 124 -98q60 0 98.5 50.5t45.5 158.5q-63 -59 -157 -59q-89 0 -147 58t-58 163q0 101 62.5 160t156.5 59q101 0 165 -71.5t64 -227.5zM438 305q0 64 -38.5 104t-98.5 40 t-98.5 -40t-38.5 -104t38.5 -104.5t98.5 -40.5t98.5 40.5t38.5 104.5z" />
<glyph d="M305 274v-74q0 -69 12.5 -93.5t56.5 -24.5h70q11 0 11 -10v-62q0 -10 -11 -10h-70q-79 0 -117 48t-38 152v58q0 59 -54 59h-45q-10 0 -10 11v61q0 10 10 10h45q54 0 54 60v58q0 104 38 152t117 48h70q11 0 11 -10v-62q0 -10 -11 -10h-70q-44 0 -56.5 -24.5t-12.5 -93.5 v-75q0 -69 -58 -84q58 -15 58 -84z" />
<glyph d="M259 200v74q0 69 58 84q-58 15 -58 84v75q0 69 -12.5 93.5t-56.5 24.5h-70q-10 0 -10 10v62q0 10 10 10h70q79 0 117 -48t38 -152v-58q0 -60 54 -60h45q11 0 11 -10v-61q0 -11 -11 -11h-45q-54 0 -54 -59v-58q0 -104 -38 -152t-117 -48h-70q-10 0 -10 10v62q0 10 10 10 h70q44 0 56.5 24.5t12.5 93.5z" />
<glyph d="M175 10v697q0 10 10 10h296q11 0 11 -10v-62q0 -10 -11 -10h-220v-553h220q11 0 11 -10v-62q0 -10 -11 -10h-296q-10 0 -10 10z" />
<glyph d="M441 707v-697q0 -10 -10 -10h-296q-10 0 -10 10v62q0 10 10 10h220v553h-220q-10 0 -10 10v62q0 10 10 10h296q10 0 10 -10z" />
<glyph d="M267 347q0 -102 31 -152.5t126 -121.5q4 -3 4 -7t-3 -8l-42 -57q-3 -4 -7 -4q-2 0 -7 3q-91 62 -139.5 132.5t-48.5 166.5v121q0 95 48.5 165.5t139.5 132.5q5 3 7 3q4 0 7 -4l42 -58q3 -5 3 -7q0 -4 -4 -7q-95 -71 -126 -121.5t-31 -151.5v-25z" />
<glyph d="M344 347v25q0 101 -31 151.5t-126 121.5q-4 3 -4 7q0 2 3 7l42 58q3 4 8 4q2 0 7 -3q90 -62 138.5 -132.5t48.5 -165.5v-121q0 -96 -48.5 -166.5t-138.5 -132.5q-5 -3 -7 -3q-5 0 -8 4l-42 57q-3 4 -3 8t4 7q95 71 126 121.5t31 152.5z" />
<glyph d="M342 275v-176q0 -69 12.5 -93t56.5 -24h70q11 0 11 -11v-61q0 -10 -11 -10h-70q-79 0 -117 47.5t-38 151.5v160q0 59 -54 59h-45q-11 0 -11 11v61q0 10 11 10h45q54 0 54 60v160q0 104 38 151.5t117 47.5h70q11 0 11 -10v-61q0 -11 -11 -11h-70q-44 0 -56.5 -24 t-12.5 -93v-177q0 -69 -58 -84q58 -15 58 -84z" />
<glyph d="M274 99v176q0 68 59 84q-59 16 -59 84v177q0 69 -12 93t-56 24h-71q-10 0 -10 11v61q0 10 10 10h71q79 0 116.5 -47t37.5 -152v-160q0 -60 55 -60h45q10 0 10 -10v-61q0 -11 -10 -11h-45q-55 0 -55 -59v-160q0 -105 -37.5 -152t-116.5 -47h-71q-10 0 -10 10v61 q0 11 10 11h71q44 0 56 24t12 93z" />
<glyph d="M175 -90v899q0 10 10 10h296q11 0 11 -10v-61q0 -11 -11 -11h-220v-755h220q11 0 11 -11v-61q0 -10 -11 -10h-296q-10 0 -10 10z" />
<glyph d="M441 809v-899q0 -10 -10 -10h-296q-10 0 -10 10v61q0 11 10 11h220v755h-220q-10 0 -10 11v61q0 10 10 10h296q10 0 10 -10z" />
<glyph d="M291 290q0 -69 6.5 -112t28.5 -81t47.5 -64.5t80.5 -73.5q4 -4 4 -7q0 -2 -3 -7l-40 -48q-5 -5 -7 -5t-8 4q-112 94 -153.5 168.5t-41.5 193.5v204q0 119 41.5 193.5t153.5 168.5q4 3 8 3q3 0 7 -4l40 -48q3 -5 3 -7q0 -3 -4 -7q-55 -47 -80.5 -73.5t-47.5 -64.5 t-28.5 -81t-6.5 -112v-140z" />
<glyph d="M331 290v140q0 69 -6.5 112t-28.5 81t-47.5 64.5t-80.5 73.5q-4 4 -4 7q0 2 3 7l40 48q4 4 7 4q2 0 7 -3q113 -94 154.5 -168.5t41.5 -193.5v-204q0 -119 -41.5 -193.5t-154.5 -168.5q-6 -4 -7 -4q-2 0 -7 5l-40 48q-3 5 -3 7q0 3 4 7q55 47 80.5 73.5t47.5 64.5t28.5 81 t6.5 112z" />
<glyph d="M178 358q0 54 38 92t92 38t92 -38t38 -92t-38 -92t-92 -38t-92 38t-38 92z" />
<glyph d="M341 0h-66q-10 0 -10 10v507q0 10 10 10h66q10 0 10 -10v-507q0 -10 -10 -10zM358 596h-100q-10 0 -10 10v101q0 10 10 10h100q11 0 11 -10v-101q0 -10 -11 -10z" />
<glyph d="M530 193q-3 -85 -65 -144t-162 -59q-97 0 -154 52t-57 138q0 41 17.5 74t42.5 56t50 44.5t42.5 49t17.5 59.5v54q0 10 10 10h66q10 0 10 -10v-47q0 -45 -17.5 -82t-42.5 -61t-50 -45.5t-42.5 -47t-17.5 -54.5q0 -49 34.5 -78.5t90.5 -29.5t96 31.5t47 89.5q1 10 11 10h63 q10 0 10 -10zM355 596h-100q-10 0 -10 10v101q0 10 10 10h100q11 0 11 -10v-101q0 -10 -11 -10z" />
<glyph d="M584 560v-408q0 -10 -10 -10h-53q-9 0 -9 10v39q-46 -57 -127 -57q-84 0 -136 61.5t-52 162.5t52 163t136 62q85 0 127 -56v38q0 65 -41 105t-129 40q-110 0 -172 -99.5t-62 -252.5q0 -166 69 -256.5t189 -90.5q97 0 174 45q2 1 5 1q5 0 7 -5l25 -48q1 -2 1 -4 q0 -4 -6 -8q-91 -50 -206 -50q-154 0 -244 103.5t-90 312.5q0 187 83.5 304t226.5 117q113 0 177.5 -60t64.5 -159zM518 358q0 73 -31 114t-91 41t-92 -43t-32 -112t32 -111.5t92 -42.5t91 40.5t31 113.5z" />
<glyph d="M516 202v-75q0 -6 -5 -6q-2 0 -5 1l-407 185q-10 4 -10 14v75q0 10 10 14l407 185q3 1 5 1q5 0 5 -6v-75q0 -10 -10 -14l-325 -143l325 -142q10 -4 10 -14z" />
<glyph d="M100 127v75q0 9 11 14l324 142l-324 143q-11 5 -11 14v75q0 6 5 6q3 0 6 -1l406 -185q10 -4 10 -14v-75q0 -10 -10 -14l-406 -185q-3 -1 -6 -1q-5 0 -5 6z" />
<glyph d="M419 208v-86q0 -7 -6 -7q-3 0 -6 3l-221 193q-10 9 -10 19v57q0 10 10 19l221 193q3 3 6 3q6 0 6 -7v-86q0 -10 -7 -16l-154 -135l154 -134q7 -6 7 -16z" />
<glyph d="M198 122v86q0 10 7 16l153 134l-153 135q-7 6 -7 16v86q0 7 6 7q3 0 6 -3l220 -193q10 -9 10 -19v-57q0 -10 -10 -19l-220 -193q-3 -3 -6 -3q-6 0 -6 7z" />
<glyph d="M314 208v-86q0 -7 -6 -7q-3 0 -6 3l-220 193q-10 9 -10 19v57q0 10 10 19l220 193q3 3 6 3q6 0 6 -7v-86q0 -10 -7 -16l-153 -135l153 -134q7 -6 7 -16zM529 208v-86q0 -7 -6 -7q-3 0 -6 3l-220 193q-10 9 -10 19v57q0 10 10 19l220 193q3 3 6 3q6 0 6 -7v-86 q0 -10 -7 -16l-153 -135l153 -134q7 -6 7 -16z" />
<glyph d="M302 122v86q0 10 7 16l154 134l-154 135q-7 6 -7 16v86q0 7 6 7q3 0 6 -3l221 -193q10 -9 10 -19v-57q0 -10 -10 -19l-221 -193q-3 -3 -6 -3q-6 0 -6 7zM87 122v86q0 10 7 16l154 134l-154 135q-7 6 -7 16v86q0 7 6 7q3 0 6 -3l220 -193q11 -9 11 -19v-57q0 -10 -11 -19 l-220 -193q-3 -3 -6 -3q-6 0 -6 7z" />
<glyph d="M541 504v-494q0 -10 -11 -10h-59q-10 0 -10 10v48q-59 -68 -171 -68q-98 0 -163.5 74t-65.5 193t65.5 193t163.5 74q112 0 171 -68v48q0 10 10 10h59q11 0 11 -10zM469 257q0 86 -46 139t-118 53q-73 0 -116.5 -55t-43.5 -137t43 -136.5t117 -54.5q72 0 118 52.5 t46 138.5z" />
<glyph d="M541 504v-494q0 -10 -11 -10h-59q-10 0 -10 10v48q-59 -68 -171 -68q-98 0 -163.5 74t-65.5 193t65.5 193t163.5 74q112 0 171 -68v48q0 10 10 10h59q11 0 11 -10zM469 257q0 86 -46 139t-118 53q-73 0 -116.5 -55t-43.5 -137t43 -136.5t117 -54.5q72 0 118 52.5 t46 138.5zM223 578l68 129q6 10 15 10h104q6 0 6 -5q0 -2 -2 -5l-102 -130q-8 -10 -18 -10h-66q-6 0 -6 6q0 3 1 5z" />
<glyph d="M541 504v-494q0 -10 -11 -10h-59q-10 0 -10 10v48q-59 -68 -171 -68q-98 0 -163.5 74t-65.5 193t65.5 193t163.5 74q112 0 171 -68v48q0 10 10 10h59q11 0 11 -10zM469 257q0 86 -46 139t-118 53q-73 0 -116.5 -55t-43.5 -137t43 -136.5t117 -54.5q72 0 118 52.5 t46 138.5zM300 707l68 -129q1 -2 1 -5q0 -6 -7 -6h-65q-10 0 -18 10l-102 130q-2 3 -2 5q0 5 6 5h104q9 0 15 -10z" />
<glyph d="M541 504v-494q0 -10 -11 -10h-59q-10 0 -10 10v48q-59 -68 -171 -68q-98 0 -163.5 74t-65.5 193t65.5 193t163.5 74q112 0 171 -68v48q0 10 10 10h59q11 0 11 -10zM469 257q0 86 -46 139t-118 53q-73 0 -116.5 -55t-43.5 -137t43 -136.5t117 -54.5q72 0 118 52.5 t46 138.5zM346 709l104 -131q2 -3 2 -6q0 -5 -8 -5h-63q-9 0 -19 10l-60 61l-60 -61q-10 -10 -19 -10h-63q-7 0 -7 5l2 6l103 131q7 8 15 8h58q8 0 15 -8z" />
<glyph d="M541 504v-494q0 -10 -11 -10h-59q-10 0 -10 10v48q-59 -68 -171 -68q-98 0 -163.5 74t-65.5 193t65.5 193t163.5 74q112 0 171 -68v48q0 10 10 10h59q11 0 11 -10zM469 257q0 86 -46 139t-118 53q-73 0 -116.5 -55t-43.5 -137t43 -136.5t117 -54.5q72 0 118 52.5 t46 138.5zM170 621v86q0 10 10 10h86q10 0 10 -10v-86q0 -11 -10 -11h-86q-10 0 -10 11zM340 621v86q0 10 10 10h86q10 0 10 -10v-86q0 -11 -10 -11h-86q-10 0 -10 11z" />
<glyph d="M541 504v-494q0 -10 -11 -10h-59q-10 0 -10 10v48q-59 -68 -171 -68q-98 0 -163.5 74t-65.5 193t65.5 193t163.5 74q112 0 171 -68v48q0 10 10 10h59q11 0 11 -10zM469 257q0 86 -46 139t-118 53q-73 0 -116.5 -55t-43.5 -137t43 -136.5t117 -54.5q72 0 118 52.5 t46 138.5zM135 678q48 39 106 39q43 0 74 -21t55 -21q22 0 62 25q4 2 7 2q7 0 11 -8l28 -43q2 -3 2 -6q0 -4 -5 -9q-48 -39 -105 -39q-42 0 -73 21t-56 21q-22 0 -63 -26q-4 -2 -7 -2q-5 0 -10 9l-29 43q-2 3 -2 6q0 4 5 9z" />
<glyph d="M541 504v-494q0 -10 -11 -10h-59q-10 0 -10 10v48q-59 -68 -171 -68q-98 0 -163.5 74t-65.5 193t65.5 193t163.5 74q112 0 171 -68v48q0 10 10 10h59q11 0 11 -10zM469 257q0 86 -46 139t-118 53q-73 0 -116.5 -55t-43.5 -137t43 -136.5t117 -54.5q72 0 118 52.5 t46 138.5zM209 651q0 38 25 62t64 24t64 -24t25 -62t-25 -62t-64 -24t-64 24t-25 62zM258 651q0 -19 11 -30t29 -11t29 11t11 30t-11 30t-29 11t-29 -11t-11 -30z" />
<glyph d="M321 -213q-89 0 -151 44.5t-67 122.5q0 10 11 10h59q10 0 10 -10q12 -46 44.5 -68.5t93.5 -22.5q73 0 104.5 42.5t31.5 123.5v37q-37 -33 -72.5 -48.5t-85.5 -15.5q-99 0 -162 71.5t-63 189.5t62.5 189.5t162.5 71.5q97 0 158 -66v46q0 10 10 10h59q11 0 11 -10v-473 q0 -112 -54.5 -178t-161.5 -66zM465 263q0 84 -41 135t-112 51q-74 0 -114 -50.5t-40 -135.5t40 -135t114 -50q71 0 112 50.5t41 134.5z" />
</font>
</defs>
</svg>
