<svg xmlns="http://www.w3.org/2000/svg" viewBox="0 0 91.3 24.3"><path d="M15.2 21.3h-11l7.6-7.2c1-.9 1.8-2 2.4-3.2.5-1.3.8-2.6.7-4 0-1.9-.7-3.7-2-4.9C11.5.7 9.8 0 7.6 0 5.2 0 3.4.7 2.1 2 .8 3.4 0 5.3 0 7.2c0 .3.1.5.4.5h1.9c.3 0 .4-.2.4-.5C2.8 6 3.2 4.8 4 4c.8-.9 2-1.3 3.5-1.3 1.4 0 2.5.4 3.3 1.2.8.8 1.2 1.8 1.2 3.2 0 1-.2 2-.5 2.9-.4 1-1.1 1.8-1.9 2.5L.3 21.4c-.2.2-.3.5-.3.8v1.5c0 .1 0 .2.1.3h15.1c.1 0 .2 0 .3-.1.1-.1.1-.2.1-.3v-2c0-.2-.1-.3-.4-.3zM32.9 0c-2.5 0-4.5 1.1-6 3.2s-2.3 5.1-2.3 9c0 3.9.8 6.9 2.3 9 1.5 2.1 3.5 3.2 6 3.2s4.5-1.1 6-3.2 2.3-5.1 2.3-9c0-3.9-.7-6.9-2.3-9S35.4 0 32.9 0zm-5.4 12.2c0-3.3.5-5.7 1.4-7.2.9-1.5 2.3-2.3 4.1-2.3.4 0 .9 0 1.3.1l-4.8 17.5c-1.3-1.5-2-4.2-2-8.1zm9.5 7.2c-.8 1.5-2.4 2.3-4.1 2.3h-1.3l4.8-17.5c1.3 1.4 2 4.1 2 8.1 0 3.2-.5 5.6-1.4 7.1zm29 1.9h-5.4V.7c0-.1 0-.2-.1-.3-.1-.1-.2-.1-.3-.1H59c-.2 0-.4.1-.5.2l-5.9 3.2c-.2.1-.3.3-.4.5v2.3c0 .2.1.3.2.3s.3 0 .4-.1L57.7 4v17.2h-5.4c-.1 0-.2 0-.2.1-.1.1-.1.2-.1.3v2c0 .2.1.3.3.3H66c.1 0 .2 0 .3-.1.1-.1.1-.2.1-.3v-2c-.1-.1-.2-.2-.4-.2zm24.6-15c0-1.9-.7-3.4-2-4.6C87.2.6 85.4 0 83.6 0c-1.8 0-3.6.6-4.9 1.7-1.4 1.1-2 2.7-2 4.6 0 2.2 1 3.9 3 5.1-2.5 1.2-3.7 3.1-3.7 5.8-.1 1.9.7 3.8 2.1 5.1 1.4 1.3 3.3 2 5.5 2 2.3 0 4.1-.7 5.5-2 1.4-1.3 2.2-3.2 2.1-5.1 0-2.7-1.2-4.6-3.7-5.8 2.1-1.1 3.1-2.8 3.1-5.1zm-11.3.2c0-1.1.4-2.1 1.2-2.7.8-.7 1.9-1 3.2-1 1.3 0 2.4.3 3.2 1 .7.6 1.1 1.6 1.1 2.7s-.4 2.1-1.2 2.8c-.8.7-1.8 1-3.2 1-1.3 0-2.4-.4-3.2-1.1-.7-.7-1.2-1.7-1.1-2.7zm9.2 10.8c.1 1.2-.4 2.4-1.4 3.2-.9.8-2.1 1.2-3.5 1.2-1.5 0-2.6-.4-3.6-1.2-.9-.8-1.4-2-1.4-3.2 0-1.2.5-2.4 1.4-3.2.9-.8 2.1-1.2 3.6-1.2s2.6.4 3.5 1.2c1 .8 1.5 2 1.4 3.2z" fill="#FFF"/></svg>