<svg xmlns="http://www.w3.org/2000/svg" viewBox="0 0 172 44"><title>Button</title><g fill="#FFF"><circle cx="170" cy="2" r="2"/><circle cx="170" cy="10" r="2"/><circle cx="170" cy="18" r="2"/><circle cx="170" cy="26" r="2"/><circle cx="170" cy="34" r="2"/><circle cx="130" cy="2" r="2"/><circle cx="138" cy="2" r="2"/><circle cx="146" cy="2" r="2"/><circle cx="154" cy="2" r="2"/><circle cx="162" cy="2" r="2"/><circle cx="130" cy="10" r="2"/><circle cx="138" cy="10" r="2"/><circle cx="146" cy="10" r="2"/><circle cx="154" cy="10" r="2"/><circle cx="162" cy="10" r="2"/><circle cx="130" cy="18" r="2"/><circle cx="138" cy="18" r="2"/><circle cx="146" cy="18" r="2"/><circle cx="154" cy="18" r="2"/><circle cx="162" cy="18" r="2"/><circle cx="130" cy="26" r="2"/><circle cx="138" cy="26" r="2"/><circle cx="146" cy="26" r="2"/><circle cx="154" cy="26" r="2"/><circle cx="162" cy="26" r="2"/><circle cx="130" cy="34" r="2"/><circle cx="138" cy="34" r="2"/><circle cx="146" cy="34" r="2"/><circle cx="154" cy="34" r="2"/><circle cx="162" cy="34" r="2"/><circle cx="90" cy="2" r="2"/><circle cx="98" cy="2" r="2"/><circle cx="106" cy="2" r="2"/><circle cx="114" cy="2" r="2"/><circle cx="122" cy="2" r="2"/><circle cx="90" cy="10" r="2"/><circle cx="98" cy="10" r="2"/><circle cx="106" cy="10" r="2"/><circle cx="114" cy="10" r="2"/><circle cx="122" cy="10" r="2"/><circle cx="90" cy="18" r="2"/><circle cx="98" cy="18" r="2"/><circle cx="106" cy="18" r="2"/><circle cx="114" cy="18" r="2"/><circle cx="122" cy="18" r="2"/><circle cx="90" cy="26" r="2"/><circle cx="98" cy="26" r="2"/><circle cx="106" cy="26" r="2"/><circle cx="114" cy="26" r="2"/><circle cx="122" cy="26" r="2"/><circle cx="90" cy="34" r="2"/><circle cx="98" cy="34" r="2"/><circle cx="106" cy="34" r="2"/><circle cx="114" cy="34" r="2"/><circle cx="122" cy="34" r="2"/><circle cx="50" cy="2" r="2"/><circle cx="58" cy="2" r="2"/><circle cx="66" cy="2" r="2"/><circle cx="74" cy="2" r="2"/><circle cx="82" cy="2" r="2"/><circle cx="50" cy="10" r="2"/><circle cx="58" cy="10" r="2"/><circle cx="66" cy="10" r="2"/><circle cx="74" cy="10" r="2"/><circle cx="82" cy="10" r="2"/><circle cx="42" cy="2" r="2"/><circle cx="42" cy="10" r="2"/><circle cx="2" cy="2" r="2"/><circle cx="10" cy="2" r="2"/><circle cx="18" cy="2" r="2"/><circle cx="26" cy="2" r="2"/><circle cx="34" cy="2" r="2"/><circle cx="2" cy="10" r="2"/><circle cx="10" cy="10" r="2"/><circle cx="18" cy="10" r="2"/><circle cx="26" cy="10" r="2"/><circle cx="34" cy="10" r="2"/><circle cx="42" cy="18" r="2"/><circle cx="42" cy="26" r="2"/><circle cx="2" cy="18" r="2"/><circle cx="10" cy="18" r="2"/><circle cx="18" cy="18" r="2"/><circle cx="26" cy="18" r="2"/><circle cx="34" cy="18" r="2"/><circle cx="2" cy="26" r="2"/><circle cx="10" cy="26" r="2"/><circle cx="18" cy="26" r="2"/><circle cx="26" cy="26" r="2"/><circle cx="34" cy="26" r="2"/><circle cx="42" cy="34" r="2"/><circle cx="42" cy="42" r="2"/><circle cx="2" cy="34" r="2"/><circle cx="10" cy="34" r="2"/><circle cx="18" cy="34" r="2"/><circle cx="26" cy="34" r="2"/><circle cx="34" cy="34" r="2"/><circle cx="2" cy="42" r="2"/><circle cx="10" cy="42" r="2"/><circle cx="18" cy="42" r="2"/><circle cx="26" cy="42" r="2"/><circle cx="34" cy="42" r="2"/><circle cx="50" cy="18" r="2"/><circle cx="58" cy="18" r="2"/><circle cx="66" cy="18" r="2"/><circle cx="74" cy="18" r="2"/><circle cx="82" cy="18" r="2"/><circle cx="50" cy="26" r="2"/><circle cx="58" cy="26" r="2"/><circle cx="66" cy="26" r="2"/><circle cx="74" cy="26" r="2"/><circle cx="82" cy="26" r="2"/><circle cx="50" cy="34" r="2"/><circle cx="58" cy="34" r="2"/><circle cx="66" cy="34" r="2"/><circle cx="74" cy="34" r="2"/><circle cx="82" cy="34" r="2"/><circle cx="170" cy="42" r="2"/><circle cx="130" cy="42" r="2"/><circle cx="138" cy="42" r="2"/><circle cx="146" cy="42" r="2"/><circle cx="154" cy="42" r="2"/><circle cx="162" cy="42" r="2"/><circle cx="90" cy="42" r="2"/><circle cx="98" cy="42" r="2"/><circle cx="106" cy="42" r="2"/><circle cx="114" cy="42" r="2"/><circle cx="122" cy="42" r="2"/><circle cx="50" cy="42" r="2"/><circle cx="58" cy="42" r="2"/><circle cx="66" cy="42" r="2"/><circle cx="74" cy="42" r="2"/><circle cx="82" cy="42" r="2"/></g></svg>