<svg xmlns="http://www.w3.org/2000/svg" viewBox="0 0 118 96"><path d="M17.6 12.1H9.4c-.1 0-.2 0-.2.1-.1.1-.1.2-.1.2v2c0 .2.1.3.3.3h5.7v3.8c-1 2.1-2.7 3.2-5.2 3.2-2.2 0-3.9-.8-5-2.4s-1.7-3.9-1.7-7c0-3 .6-5.4 1.7-7 1-1.6 2.8-2.5 4.7-2.4 1.5 0 2.6.4 3.4 1.1.8.8 1.4 1.9 1.7 3.4 0 .2.1.3.4.3h2.2c.3 0 .4-.1.4-.3-.3-2.2-1.1-4-2.5-5.3-1.4-1.3-3.3-2-5.5-2C7 .1 4.8 1.2 3 3.3S.3 8.4.3 12.3c0 3.9.9 6.8 2.7 8.9 1.7 2.1 4.3 3.3 7 3.2 1.6 0 3.2-.4 4.6-1.3 1.3-.8 2.4-2 3.1-3.4.2-.4.3-.8.3-1.3v-6c0-.1 0-.2-.1-.2s-.2-.1-.3-.1zm9.7 12h13.8c.2 0 .3-.1.3-.3v-2c0-.1 0-.2-.1-.3-.1-.1-.2-.1-.3-.1h-5.5V3.2h5.1c.1 0 .2 0 .2-.1s.1-.2.1-.2v-2c0-.2-.1-.3-.3-.3h-13c-.1 0-.2 0-.3.1s-.1.2-.1.3v2c0 .1 0 .2.1.2s.2.1.2.1h5.1v18.2h-5.5c-.2 0-.3.1-.3.3v2c.2.2.3.3.5.3zM58 3.2v20.6c0 .1 0 .2.1.2s.2.1.3.1h2.1c.1 0 .2 0 .2-.1.1-.1.1-.2.1-.2V3.2h6.9c.2 0 .3-.1.3-.3v-2c0-.2-.1-.3-.3-.3H51.2c-.1 0-.2 0-.3.1s-.1.2-.1.3v2c0 .2.1.3.3.3H58zM16.8 36.1h-3.3c-.3 0-.5.1-.5.3L9 47.6 5 36.4c0-.2-.2-.3-.5-.3H1.1c-.1 0-.2 0-.2.1-.1.1-.1.2-.1.3v22.9c0 .1 0 .2.1.2s.2.1.2.1h2.2c.2 0 .3-.1.3-.3V40.3l4 10.6c0 .1.2.2.4.2h1.8c.2 0 .4-.1.4-.2l4-10.6v19.1c0 .1 0 .2.1.2.1.1.2.1.3.1h2.1c.1 0 .2 0 .2-.1.1-.1.1-.2.1-.2V36.5c.1-.3 0-.4-.2-.4zm24.7 0H27.3c-.1 0-.2 0-.3.1v23.2c0 .2.1.3.3.3h14.3c.2 0 .3-.1.3-.3v-2c0-.1 0-.2-.1-.3s0-.1-.1-.1H29.8v-8.4h10.6c.2 0 .3-.1.3-.3v-2c0-.2-.1-.3-.3-.3H29.8v-7.1h11.6c.1 0 .2 0 .2-.1.1-.1.1-.2.1-.2v-2c.1-.4 0-.5-.2-.5zM63 48.3c2.9-1 4.4-3 4.4-5.9 0-4.2-2.4-6.2-7.1-6.2h-8c-.1 0-.2 0-.2.1-.1.1-.1.2-.1.3v22.9c0 .1 0 .2.1.2s.2.1.2.1h2.2c.2 0 .3-.1.3-.3V48.6H60l5.2 10.8c.1.2.3.3.5.3h2.5c.2 0 .3-.1.3-.2v-.1L63 48.3zm-8.2-2.4v-7.1h5.9c2.6 0 4 1.2 4 3.5 0 2.4-1.3 3.5-4 3.5h-5.9zm38.6 1.8h-8.2c-.1 0-.2 0-.2.1-.1.1-.1.2-.1.2v2c0 .2.1.3.3.3h5.7v3.8c-1 2.1-2.7 3.2-5.2 3.2-2.2 0-3.9-.8-5-2.4-1.2-1.6-1.7-3.9-1.7-7 0-3 .6-5.4 1.7-7 1-1.6 2.8-2.5 4.7-2.4 1.5 0 2.6.4 3.4 1.1.8.8 1.4 1.9 1.7 3.4 0 .2.1.3.4.3H93c.3 0 .4-.1.4-.3-.3-2.2-1.1-4-2.5-5.3s-3.3-2-5.5-2c-2.7 0-4.9 1-6.7 3.2-1.9 2.1-2.7 5.1-2.7 9 0 3.8.9 6.8 2.7 8.9 1.7 2.1 4.3 3.3 7 3.2 3.3.1 6.3-1.7 7.7-4.7.2-.4.3-.8.3-1.3v-6c0-.1 0-.2-.1-.2 0 0-.1-.1-.2-.1zm24.1 9.3h-11.9v-8.4h10.6c.2 0 .3-.1.3-.3v-2c0-.2-.1-.3-.3-.3h-10.6v-7.1h11.6c.1 0 .2 0 .2-.1s.1-.2.1-.2v-2c0-.2-.1-.3-.3-.3h-14.1c-.1 0-.2 0-.3.1s-.1.2-.1.3v22.9c0 .2.1.3.3.3h14.3c.2 0 .3-.1.3-.3v-2c0-.1 0-.2-.1-.3.2-.3.1-.3 0-.3zM41.8 92.7h-11l7.6-7.2c1-.9 1.8-2 2.4-3.2.5-1.3.8-2.6.7-4 0-1.9-.7-3.6-2-4.9-1.3-1.3-3.1-2-5.3-2-2.3 0-4.1.7-5.4 2-1.3 1.4-2.1 3.2-2 5.1 0 .3.1.5.4.5h1.9c.3 0 .4-.2.4-.5 0-1.2.4-2.4 1.2-3.2.8-.9 2-1.3 3.5-1.3 1.4 0 2.5.4 3.3 1.2.8.8 1.2 1.8 1.2 3.2 0 1-.2 2-.5 2.9-.4 1-1.1 1.8-1.9 2.5l-9.3 9c-.2.2-.4.5-.4.8V95c0 .1 0 .2.1.3.1.1.2.1.3.1h14.9c.1 0 .2 0 .3-.1.1-.1.1-.2.1-.3v-2c-.2-.2-.3-.3-.5-.3zm17.7-21.3c-2.5 0-4.5 1.1-6 3.2s-2.3 5.1-2.3 9c0 3.9.8 6.8 2.3 9 1.5 2.1 3.5 3.2 6 3.2s4.5-1.1 6-3.2 2.3-5.1 2.3-9c0-3.9-.7-6.8-2.3-9s-3.6-3.2-6-3.2zM54 83.6c0-3.3.5-5.7 1.4-7.2.9-1.5 2.3-2.2 4.1-2.2.4 0 .9 0 1.3.1L56 91.7c-1.3-1.5-2-4.2-2-8.1zm9.5 7.2c-.8 1.5-2.4 2.3-4.1 2.3h-1.3l4.8-17.5c1.3 1.4 2 4.1 2 8 0 3.2-.5 5.7-1.4 7.2zm28.9 1.9H87V72.1c0-.1 0-.2-.1-.3s-.2-.1-.3-.1h-1.2c-.2 0-.4.1-.5.2L79 75.1c-.2.1-.3.3-.4.5V78c0 .2.1.3.2.3s.3 0 .4-.1l4.9-2.7v17.2h-5.4c-.1 0-.2 0-.2.1-.1.1-.1.2-.1.3v2c0 .2.1.3.3.3h13.5c.1 0 .2 0 .3-.1s.1-.2.1-.3v-2c.2-.2 0-.3-.2-.3zm24.6-15c0-1.9-.7-3.4-2-4.6-1.4-1.2-3.1-1.8-4.9-1.7-1.8 0-3.5.6-4.9 1.7-1.4 1.1-2 2.7-2 4.6 0 2.2 1 3.9 3 5.1-2.5 1.2-3.7 3.1-3.7 5.8-.1 1.9.7 3.8 2.1 5.1 1.4 1.3 3.3 2 5.5 2s4.1-.7 5.5-2c1.4-1.3 2.2-3.1 2.1-5.1 0-2.7-1.2-4.6-3.7-5.8 2-1.1 3-2.8 3-5.1zm-11.3.2c0-1 .4-2.1 1.2-2.7.8-.7 1.8-1 3.1-1s2.3.3 3.1 1c.8.7 1.2 1.7 1.2 2.7 0 1.1-.4 2.1-1.2 2.8-.8.7-1.8 1.1-3.2 1.1-1.3 0-2.4-.4-3.2-1.1-.6-.8-1.1-1.8-1-2.8zm9.2 10.8c.1 1.2-.4 2.4-1.4 3.2-.9.8-2.1 1.2-3.5 1.2-1.5 0-2.6-.4-3.5-1.2-.9-.8-1.4-2-1.4-3.2 0-1.2.5-2.4 1.4-3.2.9-.8 2.1-1.2 3.5-1.2 1.5 0 2.6.4 3.5 1.2.9.8 1.4 2 1.4 3.2z" fill="#FFF"/></svg>