<svg xmlns="http://www.w3.org/2000/svg" viewBox="0 0 177.8 177.8"><path fill="none" stroke="#EC4141" stroke-width="7.76" stroke-miterlimit="10" d="M173.8 208.7l-.1-349.8"/><path fill="none" stroke="#8965A6" stroke-width="7.76" stroke-miterlimit="10" d="M131.5 208.7l-.3-152.8c0-2.8 1.1-5.4 3-7.4l56.3-56.3"/><path fill="none" stroke="#66B9D5" stroke-width="7.76" stroke-miterlimit="10" d="M89.2 208.7L89-138.4"/><path fill="none" stroke="#F2BF22" stroke-width="7.76" stroke-miterlimit="10" d="M46.9 208.7l-.2-345.8"/><path fill="none" stroke="#65C3B7" stroke-width="7.76" stroke-miterlimit="10" d="M4.6 208.7l-.2-345.8"/><path fill="none" stroke="#66B9D5" stroke-width="7.76" stroke-miterlimit="10" d="M89.3 235.9v-78.3c0-21 17.9-38 40-38"/><path fill="none" stroke="#F2BF22" stroke-width="7.76" stroke-miterlimit="10" d="M46.9 28.3v29.2C46.9 71 57.8 82 71.4 82h128.3"/><circle fill="#151515" cx="46.6" cy="37.2" r="4.4"/><circle fill="none" stroke="#F0BF20" stroke-width="7.951" stroke-miterlimit="10" cx="46.6" cy="37.2" r="8.2"/><circle fill="#64BFB6" cx="4.2" cy="148.3" r="4.4"/><circle fill="none" stroke="#151515" stroke-width="7.951" stroke-miterlimit="10" cx="4.2" cy="148.3" r="8.2"/><circle fill="#151515" cx="131.2" cy="119.6" r="4.4"/><circle fill="none" stroke="#63B6CE" stroke-width="7.951" stroke-miterlimit="10" cx="131.2" cy="119.6" r="8.2"/><circle fill="#151515" cx="173.5" cy="10" r="4.4"/><circle fill="none" stroke="#8865A3" stroke-width="7.951" stroke-miterlimit="10" cx="173.5" cy="10" r="8.2"/></svg>