<svg xmlns="http://www.w3.org/2000/svg" viewBox="0 0 177.8 177.8"><path fill="none" stroke="#EC4141" stroke-width="7.76" stroke-miterlimit="10" d="M-30.9 173.8l466.9-.2"/><path fill="none" stroke="#8965A6" stroke-width="7.76" stroke-miterlimit="10" d="M-30.9 131.5l152.8-.3c2.8 0 5.4 1.1 7.4 3l56.3 56.3"/><path fill="none" stroke="#66B9D5" stroke-width="7.76" stroke-miterlimit="10" d="M-30.9 89.2l466.1-.2"/><path fill="none" stroke="#F2BF22" stroke-width="7.76" stroke-miterlimit="10" d="M-30.9 46.9l466.9-.2"/><path fill="none" stroke="#65C3B7" stroke-width="7.76" stroke-miterlimit="10" d="M-30.9 4.6L436 4.4m-503.3.2H22c17.3 0 33.8 6.9 46 19.1l46.6 46.6c12.2 12.2 28.8 19.1 46 19.1H282"/><path fill="none" stroke="#66B9D5" stroke-width="7.76" stroke-miterlimit="10" d="M-58.2 89.3h78.3c21 0 38.1 17.9 38.1 40"/><circle fill="#151515" cx="58.2" cy="131.7" r="4.4"/><circle fill="none" stroke="#63B6CE" stroke-width="7.951" stroke-miterlimit="10" cx="58.2" cy="131.7" r="8.2"/><circle fill="#8865A3" cx="167.8" cy="173.6" r="4.4"/><circle fill="none" stroke="#151515" stroke-width="7.951" stroke-miterlimit="10" cx="167.8" cy="173.6" r="8.2"/></svg>