<svg xmlns="http://www.w3.org/2000/svg" viewBox="0 0 186.9 186.9"><path fill="none" stroke="#66B9D5" stroke-width="7.951" stroke-miterlimit="10" d="M44.9 26.2L-8 79.1"/><path fill="none" stroke="#F2BF22" stroke-width="7.951" stroke-miterlimit="10" d="M389.7-260.8l-506 506.1"/><path fill="none" stroke="#65C3B7" stroke-width="7.951" stroke-miterlimit="10" d="M418.6-231.8l-506 506"/><path fill="none" stroke="#8965A6" stroke-width="7.951" stroke-miterlimit="10" d="M447.6-202.9L-58.5 303.2"/><path fill="none" stroke="#66B9D5" stroke-width="7.951" stroke-miterlimit="10" d="M274.2 28.4L70.8 231.8"/><path fill="none" stroke="#EC4141" stroke-width="7.951" stroke-miterlimit="10" d="M332.7-261.6L104.1-33c-2 2-3.2 4.7-3.2 7.6L99.4 83.1c0 2.8-1.2 5.6-3.2 7.6l-211.7 211.7"/><path fill="none" stroke="#F76C81" stroke-width="7.951" stroke-miterlimit="10" d="M234.6 125.7L164.3 196"/><path fill="none" stroke="#8965A6" stroke-width="7.951" stroke-miterlimit="10" d="M74 170.6l58.2-58.2c15.6-15.6 41.6-15 58 1.4"/><path fill="none" stroke="#F2BF22" stroke-width="7.951" stroke-miterlimit="10" d="M-59.5 188.5l49.8-49.8c17.2-17.2 45.2-17.2 62.4 0l26.7 26.7"/><circle fill="none" stroke="#63B6CE" stroke-width="8" stroke-miterlimit="10" cx="48.1" cy="23.5" r="8.6"/><circle fill="#151515" cx="48.2" cy="23.5" r="4.9"/><circle fill="#151515" cx="79.4" cy="165.4" r="4.4"/><circle fill="#8965A6" cx="189.5" cy="113.1" r="4.4"/><circle fill="none" stroke="#F2BF22" stroke-width="7.951" stroke-miterlimit="10" cx="79" cy="165" r="8.2"/><circle fill="none" stroke="#151515" stroke-width="7.951" stroke-miterlimit="10" cx="189.5" cy="113.1" r="8.2"/></svg>