<svg xmlns="http://www.w3.org/2000/svg" viewBox="0 0 177.8 388.9"><path fill="none" stroke="#8965A6" stroke-width="7.477" stroke-miterlimit="10" d="M-88.6 8.1L95 191.7"/><path fill="none" stroke="#65C3B7" stroke-width="7.477" stroke-miterlimit="10" d="M-221.6 290.1l372.9-373"/><path fill="none" stroke="#8965A6" stroke-width="7.477" stroke-miterlimit="10" d="M137.3-123.3L55.9-41.9c-8.3 8.3-8.3 21.8 0 30.1l39.3 39.3"/><path fill="none" stroke="#F2BF22" stroke-width="7.477" stroke-miterlimit="10" d="M205.7-28.5l-365.1 365.2"/><path fill="none" stroke="#F76C81" stroke-width="7.477" stroke-miterlimit="10" d="M232.9-1.3l-357.6 357.6"/><path fill="none" stroke="#EC4141" stroke-width="7.477" stroke-miterlimit="10" d="M260.1 25.9l-357.9 358"/><path fill="none" stroke="#66B9D5" stroke-width="7.477" stroke-miterlimit="10" d="M287.3 53.1l-261 261"/><path fill="none" stroke="#F76C81" stroke-width="7.477" stroke-miterlimit="10" d="M-66.9 407.3l93.2-93.2c11.6-11.6 27.4-18.2 43.9-18.2h112.1c16.5 0 32.2-6.5 43.9-18.2l65-65"/><path fill="none" stroke="#65C3B7" stroke-width="7.477" stroke-miterlimit="10" d="M314.5 80.3L-42.9 438"/><path fill="none" stroke="#8965A6" stroke-width="7.477" stroke-miterlimit="10" d="M272.8 176.4L-8.1 457.5"/><path fill="none" stroke="#F76C81" stroke-width="7.477" stroke-miterlimit="10" d="M368.9 134.7L18.8 485m82.7-564.8l-155 155"/><path fill="none" stroke="#EC4141" stroke-width="7.477" stroke-miterlimit="10" d="M-82.4 102.7l97.5-1.4c4.1-.1 8.1-1.7 11-4.7L178.5-55.7M43.2 242.8L90 196c16.2-16.2 42.5-16.2 58.7 0l25.1 25.1m-74.4-34.5l5-5c19.7-19.7 19.7-51.6 0-71.3L85.7 91.7"/><path fill="none" stroke="#F2BF22" stroke-width="7.477" stroke-miterlimit="10" d="M187.5 370.6l-46.8 46.8c-16.2 16.2-42.5 16.2-58.7 0l-52.3-52.3"/><circle fill="#151515" cx="85.7" cy="91.7" r="4.4"/><circle fill="none" stroke="#EA4141" stroke-width="7.951" stroke-miterlimit="10" cx="85.7" cy="91.7" r="8.2"/><circle fill="#151515" cx="95.3" cy="27.5" r="4.4"/><circle fill="none" stroke="#8765A1" stroke-width="7.951" stroke-miterlimit="10" cx="95.3" cy="27.5" r="8.2"/><circle fill="#151515" cx="169.7" cy="220.9" r="4.4"/><circle fill="none" stroke="#EA4141" stroke-width="7.951" stroke-miterlimit="10" cx="169.7" cy="220.9" r="8.2"/><circle fill="#151515" cx="30.5" cy="366" r="4.4"/><circle fill="none" stroke="#F0BF20" stroke-width="7.951" stroke-miterlimit="10" cx="30.5" cy="366" r="8.2"/></svg>