<svg xmlns="http://www.w3.org/2000/svg" viewBox="0 0 177.3 177.3"><path fill="none" stroke="#F2BF22" stroke-width="7.546" stroke-miterlimit="10" d="M228.8 4.3l-270.7.1"/><path fill="none" stroke="#8965A6" stroke-width="7.74" stroke-miterlimit="10" d="M202.9 46.6H59.8c-5.7 0-10.4 4.7-10.4 10.4v132"/><path fill="none" stroke="#EC4141" stroke-width="7.546" stroke-miterlimit="10" d="M228.8 88.7l-270.8.1"/><path fill="none" stroke="#66B9D5" stroke-width="7.546" stroke-miterlimit="10" d="M45.2 130.9l-92.8.1"/><path fill="none" stroke="#F76C81" stroke-width="7.546" stroke-miterlimit="10" d="M-74.7 46.6H5.7c2.8 0 5.4 1.1 7.3 3l120.5 120.5c1.9 1.9 4.6 3 7.3 3h81.6"/><path fill="none" stroke="#65C3B7" stroke-width="7.546" stroke-miterlimit="10" d="M-8.8 173.2H81c5.7 0 10.4-4.6 10.4-10.4v-21.5c0-5.7 4.6-10.4 10.4-10.4l120.8-.1"/><path fill="none" stroke="#F2BF22" stroke-width="7.546" stroke-miterlimit="10" d="M231.7 88.8h-66.9c-23.1 0-41.9-18.7-41.9-41.9V4.3"/><circle fill="#151515" cx="123" cy="4.2" r="4.4"/><circle fill="none" stroke="#F0BF20" stroke-width="7.951" stroke-miterlimit="10" cx="123" cy="4.2" r="8.2"/><circle fill="#F56C81" cx="49.4" cy="88.7" r="4.4"/><circle fill="none" stroke="#151515" stroke-width="7.951" stroke-miterlimit="10" cx="49.4" cy="88.7" r="8.2"/><circle fill="#151515" cx="49.4" cy="130.9" r="4.4"/><circle fill="none" stroke="#63B6CE" stroke-width="7.951" stroke-miterlimit="10" cx="49.4" cy="130.9" r="8.2"/></svg>