<svg xmlns="http://www.w3.org/2000/svg" viewBox="0 0 177.8 177.8"><path fill="none" stroke="#8965A6" stroke-width="7.565" stroke-miterlimit="10" d="M-78.7 19.1l179.6 179.7"/><path fill="none" stroke="#65C3B7" stroke-width="7.565" stroke-miterlimit="10" d="M-90.9 160.2L153-83.9"/><path fill="none" stroke="#8965A6" stroke-width="7.565" stroke-miterlimit="10" d="M56.6-12l39.8 39.8"/><path fill="none" stroke="#F2BF22" stroke-width="7.565" stroke-miterlimit="10" d="M208.1-28.8L-32.6 212"/><path fill="none" stroke="#F76C81" stroke-width="7.565" stroke-miterlimit="10" d="M235.6-1.3L-4.8 239.1"/><path fill="none" stroke="#EC4141" stroke-width="7.565" stroke-miterlimit="10" d="M263.1 26.2L26.6 262.9"/><path fill="none" stroke="#66B9D5" stroke-width="7.565" stroke-miterlimit="10" d="M290.7 53.7l-236 235.9-28.1 28.2"/><path fill="none" stroke="#EC4141" stroke-width="7.565" stroke-miterlimit="10" d="M-94.5 108.6c3-3 7-4.6 11.1-4.7l46.2-.7 52.5-.7c4.2-.1 8.2-1.7 11.1-4.7L180.6-56.3m-80.1 245.1l5-5c19.9-19.9 19.9-52.2 0-72.1l-18.8-19"/><circle fill="#151515" cx="96.4" cy="27.8" r="4.4"/><circle fill="none" stroke="#8865A3" stroke-width="7.951" stroke-miterlimit="10" cx="96.4" cy="27.8" r="8.2"/><circle fill="#151515" cx="86.7" cy="92.7" r="4.4"/><circle fill="none" stroke="#EA4141" stroke-width="7.951" stroke-miterlimit="10" cx="86.7" cy="92.7" r="8.2"/></svg>