<svg xmlns="http://www.w3.org/2000/svg" viewBox="0 0 188 409.4"><path fill="none" stroke="#F76C81" stroke-width="8" stroke-miterlimit="10" d="M217.6-93l.1 262.2c0 9.4-7.6 17-17 17H94.2"/><path fill="none" stroke="#F2BF22" stroke-width="8" stroke-miterlimit="10" d="M176.6 472.3L176.4-93"/><path fill="none" stroke="#8965A6" stroke-width="8" stroke-miterlimit="10" d="M135.4 472.3l-.2-203.2c0-9.4-7.6-17-17-17H57.4"/><path fill="none" stroke="#F76C81" stroke-width="8" stroke-miterlimit="10" d="M53.1 472.3L52.9-93"/><path fill="none" stroke="#F2BF22" stroke-width="8" stroke-miterlimit="10" d="M176.5 268.8v70.9c0 24.5-19.9 44.4-44.4 44.4H53"/><path fill="none" stroke="#66B9D5" stroke-width="8" stroke-miterlimit="10" d="M94.1 472.3v-93.4c0-17.6 7-34.5 19.4-46.9l84.8-84.8c12.4-12.4 19.4-29.3 19.4-46.9v-98.4"/><path fill="none" stroke="#EC4141" stroke-width="8" stroke-miterlimit="10" d="M217.7 468.1V296.8c0-23.1-9.2-45.3-25.5-61.6l-30.4-30.4c-16.3-16.3-25.5-38.5-25.5-61.6V-93"/><path fill="none" stroke="#EC4141" stroke-width="8" stroke-miterlimit="10" d="M136.2 147.6V64.8c0-22.2 18.9-40.2 42.3-40.2"/><path fill="none" stroke="#65C3B7" stroke-width="8" stroke-miterlimit="10" d="M11.9 472.3V137.2c0-11.6 9.4-21 21-21h40c11.6 0 21-9.4 21-21V-93"/><circle fill="#151515" cx="94.2" cy="186.3" r="4.7"/><circle fill="none" stroke="#F56C81" stroke-width="7.951" stroke-miterlimit="10" cx="94.2" cy="186.3" r="8.4"/><circle fill="#151515" cx="54.1" cy="252.1" r="4.7"/><circle fill="none" stroke="#8865A3" stroke-width="7.951" stroke-miterlimit="10" cx="54.1" cy="252.1" r="8.4"/><circle fill="#151515" cx="176.4" cy="24.5" r="4.7"/><circle fill="none" stroke="#EA4141" stroke-width="7.951" stroke-miterlimit="10" cx="176.4" cy="24.5" r="8.4"/><circle fill="#151515" cx="53" cy="384.1" r="4.7"/><circle fill="none" stroke="#64BFB6" stroke-width="7.951" stroke-miterlimit="10" cx="53" cy="384" r="8.4"/></svg>