<svg xmlns="http://www.w3.org/2000/svg" viewBox="0 0 177.8 177.8"><path fill="none" stroke="#65C3B7" stroke-width="7.565" stroke-miterlimit="10" d="M254.5-132L-72.9 195.6l-34.2 34.2"/><path fill="none" stroke="#EC4141" stroke-width="7.565" stroke-miterlimit="10" d="M233.9-166.6l-481.5 481.7"/><path fill="none" stroke="#66B9D5" stroke-width="7.565" stroke-miterlimit="10" d="M227-159.5L69.3-2c-2 2-3 4.6-3 7.4V107c0 2.8-1.1 5.4-3 7.4l-85.5 85.5"/><path fill="none" stroke="#8965A6" stroke-width="7.565" stroke-miterlimit="10" d="M186.2-8.6l-81.6 81.8c-6.3 6.3-6.3 16.4 0 22.7l77.5 77.5"/><path fill="none" stroke="#F76C81" stroke-width="7.565" stroke-miterlimit="10" d="M363.6-131.2L83.8 148.9"/><path fill="none" stroke="#F2BF22" stroke-width="7.565" stroke-miterlimit="10" d="M337.1-49.4l-481.5 481.7M157.9 19.8l13.4-13.4C181.5-3.8 195.7-9 210-7.7l55.7 5.1c14.4 1.3 28.6-3.9 38.8-14.1l27.7-27.9"/><circle fill="#151515" cx="80.5" cy="152.2" r="4.4"/><circle fill="none" stroke="#F56C81" stroke-width="7.951" stroke-miterlimit="10" cx="80.5" cy="152.2" r="8.2"/><circle fill="#F0BF20" cx="156.1" cy="21.7" r="4.4"/><circle fill="none" stroke="#151515" stroke-width="7.951" stroke-miterlimit="10" cx="156.1" cy="21.7" r="8.2"/></svg>