<svg xmlns="http://www.w3.org/2000/svg" viewBox="0 0 177.8 177.8"><path fill="none" stroke="#65C3B7" stroke-width="7.565" stroke-miterlimit="10" d="M-224.8 292.4l481.5-481.6"/><path fill="none" stroke="#F2BF22" stroke-width="7.565" stroke-miterlimit="10" d="M311.7-134.1l-481.4 481.6"/><path fill="none" stroke="#F76C81" stroke-width="7.565" stroke-miterlimit="10" d="M339.3-106.6L-22.5 255.1"/><path fill="none" stroke="#EC4141" stroke-width="7.565" stroke-miterlimit="10" d="M366.8-79.1l-481.5 481.7"/><path fill="none" stroke="#66B9D5" stroke-width="7.565" stroke-miterlimit="10" d="M394.3-51.6L130.2 212.5"/><path fill="none" stroke="#8965A6" stroke-width="7.565" stroke-miterlimit="10" d="M64.5 58l-93.1 93.3"/><path fill="none" stroke="#EC4141" stroke-width="7.565" stroke-miterlimit="10" d="M-110.5 123L31.2-18.7M202.8 85.1l-55.4 55.4c-14.9 14.9-39.6 14.2-55.2-1.4m54.3-107.8L63.9-51.4"/><circle fill="#151515" cx="93" cy="140" r="4.4"/><circle fill="none" stroke="#EA4141" stroke-width="7.951" stroke-miterlimit="10" cx="93" cy="140" r="8.2"/><circle fill="#151515" cx="70.6" cy="52.7" r="4.4"/><circle fill="none" stroke="#8865A3" stroke-width="7.951" stroke-miterlimit="10" cx="70.6" cy="52.7" r="8.2"/><circle fill="#F0BF20" cx="146.5" cy="31" r="4.4"/><circle fill="none" stroke="#151515" stroke-width="7.951" stroke-miterlimit="10" cx="146.5" cy="31" r="8.2"/></svg>