<svg xmlns="http://www.w3.org/2000/svg" viewBox="0 0 177.6 177.6"><path fill="none" stroke="#66B9D5" stroke-width="7.558" stroke-miterlimit="10" d="M351.9-284.3l-481 481.1"/><path fill="none" stroke="#65C3B7" stroke-width="7.558" stroke-miterlimit="10" d="M-46.6 279.4l481-481.2"/><path fill="none" stroke="#F2BF22" stroke-width="7.558" stroke-miterlimit="10" d="M489.4-146.8L8.4 334.4"/><path fill="none" stroke="#F76C81" stroke-width="7.558" stroke-miterlimit="10" d="M44.6-31.9L26.9-14.2c-6.3 6.3-6.3 16.4 0 22.7l126.2 126.2"/><path fill="none" stroke="#F2BF22" stroke-width="7.558" stroke-miterlimit="10" d="M-46.6 93.3H25c2.8 0 5.4-1.1 7.3-3L122.1.5c1.9-1.9 3-4.6 3-7.3V-61"/><path fill="none" stroke="#8965A6" stroke-width="7.558" stroke-miterlimit="10" d="M242.4 45.2L87.8 199.9c-4.1 4.1-10.6 4.1-14.7 0L5.3 132c-4.1-4-10.7-4-14.7 0l-92.5 92.5"/><path fill="none" stroke="#EC4141" stroke-width="7.558" stroke-miterlimit="10" d="M-74.4 252L187.1-9.5"/><circle fill="#151515" cx="153.1" cy="134.6" r="4.4"/><circle fill="none" stroke="#F56C81" stroke-width="7.951" stroke-miterlimit="10" cx="153.1" cy="134.6" r="8.2"/><circle fill="#151515" cx="52.8" cy="180" r="4.4"/><circle fill="none" stroke="#64BFB6" stroke-width="7.951" stroke-miterlimit="10" cx="52.8" cy="180" r="8.2"/></svg>