<svg width="62" height="139" viewBox="0 0 62 139" xmlns="http://www.w3.org/2000/svg" xmlns:xlink="http://www.w3.org/1999/xlink"><title>1</title><defs><path id="a" d="M.051.2h61.685v138.797H.051z"/></defs><g fill="none" fill-rule="evenodd"><mask id="b" fill="#fff"><use xlink:href="#a"/></mask><path d="M70.478-77.098l.079 134.658 1.332-.001-1.332-.054v.054h1.332l-1.332-.054v.057a4.375 4.375 0 0 1-1.305 3.117 4.459 4.459 0 0 1-3.148 1.29H29.62v2.713h36.484c1.98 0 3.788-.8 5.083-2.086a7.048 7.048 0 0 0 2.107-5.034H71.96l1.333.054v-.054H71.96l1.333.054s.003-.02.003-.057L73.218-77.1l-2.74.001" fill="#E36577" mask="url(#b)"/><path fill="#EDBA31" mask="url(#b)" d="M59.191 160.321l-.075-244.205h-2.74l.075 244.205"/><path d="M45.089 160.321l-.072-68.886c0-1.96-.809-3.747-2.11-5.03a7.204 7.204 0 0 0-5.084-2.082H17.007v2.712h20.816c1.234 0 2.34.49 3.148 1.29a4.354 4.354 0 0 1 1.305 3.113l.072 68.887 2.74-.004" fill="#7F5D98" mask="url(#b)"/><path fill="#E36577" mask="url(#b)" d="M16.89 160.321l-.085-244.22-2.74.001.085 244.223"/><path d="M56.42 91.324v24.031c0 3.785-1.548 7.199-4.052 9.68a13.854 13.854 0 0 1-9.78 4.01H15.48v2.713h27.11c4.569 0 8.72-1.838 11.718-4.804a16.275 16.275 0 0 0 4.853-11.599V91.324h-2.74" fill="#EDBA31" mask="url(#b)"/><path d="M30.959 238.87V128.646c0-5.61 2.25-10.99 6.258-14.956l29.048-28.75a23.738 23.738 0 0 0 7.063-16.872V34.715h-2.74v33.353a21.04 21.04 0 0 1-6.259 14.955l-29.05 28.75a23.75 23.75 0 0 0-7.06 16.873V238.87h2.74" fill="#6DB2D6" mask="url(#b)"/><path d="M73.29 158.884v-58.07c0-8.191-3.288-16.047-9.142-21.839L53.72 68.655c-5.337-5.284-8.338-12.45-8.338-19.921v-132.52h-2.74v132.52c0 8.191 3.288 16.046 9.142 21.838l10.427 10.321c5.337 5.284 8.338 12.45 8.338 19.92v58.07h2.74" fill="#DC3E40" mask="url(#b)"/><path d="M15.48 133.21a2.957 2.957 0 0 1-2.035-.8 2.74 2.74 0 0 1 0-4.017 2.958 2.958 0 0 1 2.034-.8c.768 0 1.49.285 2.035.8a2.736 2.736 0 0 1 0 4.018c-.544.515-1.267.8-2.035.8" fill="#141513" mask="url(#b)"/><path d="M15.48 126.238a4.319 4.319 0 0 0-2.977 1.173 4.128 4.128 0 0 0-1.305 2.991c0 1.121.476 2.211 1.305 2.991a4.319 4.319 0 0 0 2.976 1.173 4.32 4.32 0 0 0 2.98-1.173 4.126 4.126 0 0 0 1.302-2.991 4.124 4.124 0 0 0-1.301-2.991 4.32 4.32 0 0 0-2.98-1.173zm0 2.712c.393 0 .79.142 1.089.425a1.392 1.392 0 0 1 0 2.054 1.581 1.581 0 0 1-1.09.425 1.59 1.59 0 0 1-1.089-.425 1.392 1.392 0 0 1 0-2.054 1.588 1.588 0 0 1 1.09-.425z" fill="#6FC0AB" mask="url(#b)"/><path d="M29.62 66.134a2.958 2.958 0 0 1-2.035-.799 2.742 2.742 0 0 1 0-4.018c.548-.516 1.27-.8 2.035-.8.767 0 1.49.284 2.034.8a2.73 2.73 0 0 1 .877 2.009c0 .762-.308 1.476-.877 2.009a2.943 2.943 0 0 1-2.034.799" fill="#141513" mask="url(#b)"/><path d="M29.62 59.161a4.319 4.319 0 0 0-2.977 1.173 4.129 4.129 0 0 0-1.305 2.992c0 1.121.476 2.211 1.305 2.99a4.317 4.317 0 0 0 2.977 1.174 4.32 4.32 0 0 0 2.98-1.173 4.124 4.124 0 0 0 1.301-2.991 4.126 4.126 0 0 0-1.301-2.992 4.32 4.32 0 0 0-2.98-1.173zm0 2.713c.397 0 .79.142 1.092.425.6.567.6 1.486 0 2.054a1.59 1.59 0 0 1-1.092.425c-.394 0-.788-.142-1.09-.425a1.392 1.392 0 0 1 0-2.054 1.587 1.587 0 0 1 1.09-.425z" fill="#E36577" mask="url(#b)"/><path d="M56.375-83.876c.048 9.047 3.69 17.712 10.133 24.128l22.837 22.735c5.98 5.953 9.338 14.008 9.338 22.404v28.827h2.74v-28.827c0-9.113-3.641-17.855-10.132-24.317L68.453-61.66c-5.94-5.911-9.293-13.895-9.337-22.231l-2.74.015" fill="#6FC0AB" mask="url(#b)"/><path d="M15.86 88.487a2.956 2.956 0 0 1-2.035-.799 2.741 2.741 0 0 1 0-4.018c.548-.515 1.27-.8 2.035-.8.764 0 1.486.285 2.034.8a2.738 2.738 0 0 1 0 4.018c-.548.515-1.27.8-2.034.8" fill="#141513" mask="url(#b)"/><path d="M15.86 81.515c-1.12 0-2.175.416-2.98 1.173a4.138 4.138 0 0 0-1.302 2.99 4.14 4.14 0 0 0 1.302 2.992 4.328 4.328 0 0 0 2.98 1.173 4.333 4.333 0 0 0 2.98-1.173 4.139 4.139 0 0 0 1.301-2.991 4.138 4.138 0 0 0-1.301-2.991 4.333 4.333 0 0 0-2.98-1.173zm0 2.712c.394 0 .788.142 1.089.425a1.392 1.392 0 0 1 0 2.053 1.586 1.586 0 0 1-1.09.426c-.393 0-.787-.142-1.089-.426a1.392 1.392 0 0 1 0-2.053 1.588 1.588 0 0 1 1.09-.425z" fill="#7F5D98" mask="url(#b)"/><path d="M45.366 50.235v-28.08c0-3.377 1.446-6.429 3.816-8.665 2.37-2.231 5.652-3.621 9.297-3.621V7.157c-4.354 0-8.314 1.663-11.184 4.369-2.874 2.702-4.67 6.47-4.67 10.629v28.08h2.741" fill="#DC3E40" mask="url(#b)"/><path d="M57.746 11.321a2.95 2.95 0 0 1-2.035-.799 2.742 2.742 0 0 1 0-4.018 2.95 2.95 0 0 1 2.035-.8c.764 0 1.486.285 2.034.8a2.738 2.738 0 0 1 0 4.018 2.956 2.956 0 0 1-2.034.799" fill="#141513" mask="url(#b)"/><path d="M57.746 4.348a4.32 4.32 0 0 0-2.98 1.173 4.126 4.126 0 0 0-1.302 2.992c0 1.12.473 2.211 1.302 2.991a4.322 4.322 0 0 0 2.98 1.173 4.334 4.334 0 0 0 2.98-1.173 4.14 4.14 0 0 0 1.301-2.991 4.139 4.139 0 0 0-1.301-2.992 4.333 4.333 0 0 0-2.98-1.173zm0 2.713c.394 0 .787.141 1.089.425a1.392 1.392 0 0 1 0 2.053 1.587 1.587 0 0 1-1.09.426c-.393 0-.79-.142-1.089-.426a1.392 1.392 0 0 1 0-2.053 1.58 1.58 0 0 1 1.09-.425z" fill="#DC3E40" mask="url(#b)"/><path d="M2.792 160.321V46.702c0-1.598.65-3.033 1.709-4.082a5.838 5.838 0 0 1 4.124-1.69h13.712c2.36 0 4.515-.953 6.06-2.486a8.4 8.4 0 0 0 2.51-6V-31.34h-2.74v63.783c0 1.598-.65 3.033-1.706 4.082a5.845 5.845 0 0 1-4.124 1.69H8.625a8.6 8.6 0 0 0-6.063 2.486 8.428 8.428 0 0 0-2.51 6v113.62h2.74" fill="#6FC0AB" mask="url(#b)"/></g></svg>