<svg xmlns="http://www.w3.org/2000/svg"><symbol id="shape-GitHub" viewBox="0 0 60 17"><title>Page 1</title><g fill-rule="evenodd"><path d="M11.4 7.037H6.428a.234.234 0 0 0-.233.235v2.454c0 .13.104.235.233.235h1.94v3.048s-.436.15-1.64.15c-1.421 0-3.407-.524-3.407-4.929s2.068-4.985 4.008-4.985c1.68 0 2.404.298 2.865.442.144.045.278-.1.278-.23l.555-2.37a.22.22 0 0 0-.089-.184C10.75.768 9.61.124 6.727.124 3.407.124 0 1.55 0 8.402c0 6.853 3.9 7.874 7.186 7.874 2.721 0 4.372-1.173 4.372-1.173.068-.038.075-.134.075-.178V7.272a.234.234 0 0 0-.232-.235M37.035.945a.233.233 0 0 0-.23-.236h-2.802a.234.234 0 0 0-.232.236l.001 5.462h-4.365V.945a.233.233 0 0 0-.231-.236h-2.8a.234.234 0 0 0-.232.236v14.788c0 .13.104.236.231.236h2.8a.234.234 0 0 0 .232-.236V9.408h4.365l-.007 6.325c0 .13.104.236.232.236h2.807c.128 0 .23-.106.231-.236V.945zM16.686 2.886c0-1.018-.809-1.84-1.806-1.84s-1.806.822-1.806 1.84c0 1.016.81 1.84 1.806 1.84.997 0 1.806-.824 1.806-1.84M16.485 12.613V5.787a.234.234 0 0 0-.231-.235h-2.792c-.128 0-.243.133-.243.263v9.78c0 .286.178.372.407.372h2.516c.276 0 .343-.137.343-.377v-2.977zM47.679 5.574h-2.78a.234.234 0 0 0-.23.237v7.25s-.706.522-1.709.522c-1.002 0-1.268-.46-1.268-1.45V5.812a.234.234 0 0 0-.23-.237H38.64a.235.235 0 0 0-.231.237v6.801c0 2.941 1.624 3.66 3.859 3.66 1.833 0 3.311-1.021 3.311-1.021s.07.538.102.602a.245.245 0 0 0 .205.128l1.794-.008a.234.234 0 0 0 .232-.236l-.001-9.926a.234.234 0 0 0-.232-.237M54.179 13.574c-.964-.03-1.618-.471-1.618-.471V8.42s.645-.4 1.437-.47c1-.091 1.965.214 1.965 2.623 0 2.54-.436 3.042-1.784 3m1.096-8.331c-1.578 0-2.652.71-2.652.71V.946a.233.233 0 0 0-.231-.236h-2.809a.234.234 0 0 0-.231.236v14.788c0 .13.104.236.232.236h1.948c.088 0 .154-.046.204-.125.048-.08.118-.682.118-.682s1.148 1.098 3.322 1.098c2.553 0 4.017-1.306 4.017-5.864s-2.338-5.154-3.918-5.154M24.535 5.55h-2.101l-.003-2.8c0-.106-.054-.159-.176-.159h-2.863c-.111 0-.17.05-.17.158v2.893s-1.435.35-1.532.378a.235.235 0 0 0-.168.226v1.818c0 .13.103.236.231.236h1.468v4.375c0 3.25 2.26 3.569 3.784 3.569.696 0 1.53-.226 1.667-.277.083-.03.132-.118.132-.212l.002-2c0-.131-.11-.237-.232-.237-.123 0-.436.05-.758.05-1.032 0-1.382-.483-1.382-1.11V8.3h2.1a.234.234 0 0 0 .233-.236V5.786a.233.233 0 0 0-.232-.235"/></g></symbol><symbol id="shape-arrow-right-pink" viewBox="0 0 24 20"><title>arrow</title><g transform="rotate(-90 10 10)" fill-rule="evenodd"><ellipse cx="10" cy="5.455" rx="1.111" ry="1.091"/><ellipse cx="10" cy="1.091" rx="1.111" ry="1.091"/><ellipse cx="10" cy="9.818" rx="1.111" ry="1.091"/><ellipse cx="1.111" cy="14.182" rx="1.111" ry="1.091"/><ellipse cx="10" cy="14.182" rx="1.111" ry="1.091"/><ellipse cx="18.889" cy="14.182" rx="1.111" ry="1.091"/><ellipse cx="5.556" cy="18.545" rx="1.111" ry="1.091"/><ellipse cx="10" cy="18.545" rx="1.111" ry="1.091"/><ellipse cx="14.444" cy="18.545" rx="1.111" ry="1.091"/><ellipse cx="10" cy="22.909" rx="1.111" ry="1.091"/></g></symbol><symbol id="shape-arrow-right" viewBox="0 0 24 20"><title>arrow</title><ellipse cx="5.5" cy="10" rx="1.1" ry="1.1"/><ellipse cx="1.1" cy="10" rx="1.1" ry="1.1"/><ellipse cx="9.8" cy="10" rx="1.1" ry="1.1"/><ellipse cx="14.2" cy="18.9" rx="1.1" ry="1.1"/><ellipse cx="14.2" cy="10" rx="1.1" ry="1.1"/><ellipse cx="14.2" cy="1.1" rx="1.1" ry="1.1"/><ellipse cx="18.5" cy="14.4" rx="1.1" ry="1.1"/><ellipse cx="18.5" cy="10" rx="1.1" ry="1.1"/><ellipse cx="18.5" cy="5.6" rx="1.1" ry="1.1"/><ellipse cx="22.9" cy="10" rx="1.1" ry="1.1"/></symbol><symbol id="shape-code" viewBox="0 0 20 15"><title>code</title><path d="M13.197.39l-2.084 2.083 4.862 4.862-4.862 4.862 2.084 2.084 6.251-6.946-6.25-6.946zm-6.946 0L0 7.334l6.251 6.946 2.084-2.084-4.862-4.862 4.862-4.862L6.251.389z" fill-rule="nonzero"/></symbol><symbol id="shape-heart" viewBox="0 0 17 16"><title>heart</title><path d="M15.559 1.39C14.836.513 13.822.07 12.503 0c-1.348 0-2.348.583-3.057 1.39-.708.805-1.083 1.277-1.111 1.388-.028-.11-.389-.583-1.111-1.389C6.5.583 5.598 0 4.168 0 2.848.07 1.82.528 1.11 1.39.39 2.236.028 3.166 0 4.167c0 .722.125 2.111.93 3.709.806 1.597 3.251 4.084 7.405 7.404 4.14-3.32 6.626-5.793 7.418-7.404.792-1.612.917-3.015.917-3.71-.028-1-.389-1.93-1.111-2.806v.028z" fill-rule="nonzero"/></symbol></svg>