<svg xmlns="http://www.w3.org/2000/svg"><symbol id="shape-arrow-right-pink" viewBox="0 0 24 20"><title>arrow</title><g transform="rotate(-90 10 10)" fill-rule="evenodd"><ellipse cx="10" cy="5.455" rx="1.111" ry="1.091"/><ellipse cx="10" cy="1.091" rx="1.111" ry="1.091"/><ellipse cx="10" cy="9.818" rx="1.111" ry="1.091"/><ellipse cx="1.111" cy="14.182" rx="1.111" ry="1.091"/><ellipse cx="10" cy="14.182" rx="1.111" ry="1.091"/><ellipse cx="18.889" cy="14.182" rx="1.111" ry="1.091"/><ellipse cx="5.556" cy="18.545" rx="1.111" ry="1.091"/><ellipse cx="10" cy="18.545" rx="1.111" ry="1.091"/><ellipse cx="14.444" cy="18.545" rx="1.111" ry="1.091"/><ellipse cx="10" cy="22.909" rx="1.111" ry="1.091"/></g></symbol><symbol id="shape-arrow-right" viewBox="0 0 24 20"><title>arrow</title><ellipse cx="5.5" cy="10" rx="1.1" ry="1.1"/><ellipse cx="1.1" cy="10" rx="1.1" ry="1.1"/><ellipse cx="9.8" cy="10" rx="1.1" ry="1.1"/><ellipse cx="14.2" cy="18.9" rx="1.1" ry="1.1"/><ellipse cx="14.2" cy="10" rx="1.1" ry="1.1"/><ellipse cx="14.2" cy="1.1" rx="1.1" ry="1.1"/><ellipse cx="18.5" cy="14.4" rx="1.1" ry="1.1"/><ellipse cx="18.5" cy="10" rx="1.1" ry="1.1"/><ellipse cx="18.5" cy="5.6" rx="1.1" ry="1.1"/><ellipse cx="22.9" cy="10" rx="1.1" ry="1.1"/></symbol></svg>